G04 #@! TF.FileFunction,Copper,L2,Bot,Signal*
%FSLAX46Y46*%
G04 Gerber Fmt 4.6, Leading zero omitted, Abs format (unit mm)*
G04 Created by KiCad (PCBNEW 4.0.7) date Fri May 11 18:38:54 2018*
%MOMM*%
%LPD*%
G01*
G04 APERTURE LIST*
%ADD10C,0.100000*%
%ADD11C,0.300000*%
%ADD12C,5.999480*%
%ADD13R,1.600000X1.600000*%
%ADD14O,1.600000X1.600000*%
%ADD15C,2.000000*%
%ADD16R,1.200000X1.200000*%
%ADD17C,1.200000*%
%ADD18R,2.400000X2.400000*%
%ADD19C,2.400000*%
%ADD20R,2.000000X1.600000*%
%ADD21R,1.600000X2.000000*%
%ADD22C,1.600000*%
%ADD23O,0.900000X1.500000*%
%ADD24R,0.900000X1.500000*%
%ADD25C,3.500000*%
%ADD26C,2.350000*%
%ADD27R,1.700000X1.700000*%
%ADD28O,1.700000X1.700000*%
%ADD29C,8.600000*%
%ADD30R,3.200000X1.500000*%
%ADD31O,2.540000X2.032000*%
%ADD32R,2.000000X1.700000*%
%ADD33R,1.700000X2.000000*%
%ADD34O,2.400000X2.400000*%
%ADD35R,1.800000X1.800000*%
%ADD36O,1.800000X1.800000*%
%ADD37C,0.800000*%
%ADD38C,2.000000*%
%ADD39C,0.600000*%
%ADD40C,0.254000*%
G04 APERTURE END LIST*
D10*
D11*
X137871429Y-57957143D02*
X136442858Y-57957143D01*
X136442858Y-54957143D01*
X143585714Y-57957143D02*
X143442857Y-57957143D01*
X143157143Y-57814286D01*
X142728571Y-57385714D01*
X142014286Y-56528571D01*
X141728571Y-56100000D01*
X141585714Y-55671429D01*
X141585714Y-55385714D01*
X141728571Y-55100000D01*
X142014286Y-54957143D01*
X142157143Y-54957143D01*
X142442857Y-55100000D01*
X142585714Y-55385714D01*
X142585714Y-55528571D01*
X142442857Y-55814286D01*
X142300000Y-55957143D01*
X141442857Y-56528571D01*
X141300000Y-56671429D01*
X141157143Y-56957143D01*
X141157143Y-57385714D01*
X141300000Y-57671429D01*
X141442857Y-57814286D01*
X141728571Y-57957143D01*
X142157143Y-57957143D01*
X142442857Y-57814286D01*
X142585714Y-57671429D01*
X143014286Y-57100000D01*
X143157143Y-56671429D01*
X143157143Y-56385714D01*
X147157143Y-57957143D02*
X147157143Y-54957143D01*
X148157143Y-57100000D01*
X149157143Y-54957143D01*
X149157143Y-57957143D01*
X135800000Y-61185714D02*
X136800000Y-61185714D01*
X137228571Y-62757143D02*
X135800000Y-62757143D01*
X135800000Y-59757143D01*
X137228571Y-59757143D01*
X139371429Y-63900000D02*
X139228571Y-63757143D01*
X138942857Y-63328571D01*
X138800000Y-63042857D01*
X138657143Y-62614286D01*
X138514286Y-61900000D01*
X138514286Y-61328571D01*
X138657143Y-60614286D01*
X138800000Y-60185714D01*
X138942857Y-59900000D01*
X139228571Y-59471429D01*
X139371429Y-59328571D01*
X141800000Y-60757143D02*
X141800000Y-62757143D01*
X141085714Y-59614286D02*
X140371429Y-61757143D01*
X142228571Y-61757143D01*
X143085714Y-63900000D02*
X143228572Y-63757143D01*
X143514286Y-63328571D01*
X143657143Y-63042857D01*
X143800000Y-62614286D01*
X143942857Y-61900000D01*
X143942857Y-61328571D01*
X143800000Y-60614286D01*
X143657143Y-60185714D01*
X143514286Y-59900000D01*
X143228572Y-59471429D01*
X143085714Y-59328571D01*
X145228572Y-62614286D02*
X145657143Y-62757143D01*
X146371429Y-62757143D01*
X146657143Y-62614286D01*
X146800000Y-62471429D01*
X146942857Y-62185714D01*
X146942857Y-61900000D01*
X146800000Y-61614286D01*
X146657143Y-61471429D01*
X146371429Y-61328571D01*
X145800000Y-61185714D01*
X145514286Y-61042857D01*
X145371429Y-60900000D01*
X145228572Y-60614286D01*
X145228572Y-60328571D01*
X145371429Y-60042857D01*
X145514286Y-59900000D01*
X145800000Y-59757143D01*
X146514286Y-59757143D01*
X146942857Y-59900000D01*
X149942857Y-62471429D02*
X149800000Y-62614286D01*
X149371429Y-62757143D01*
X149085715Y-62757143D01*
X148657143Y-62614286D01*
X148371429Y-62328571D01*
X148228572Y-62042857D01*
X148085715Y-61471429D01*
X148085715Y-61042857D01*
X148228572Y-60471429D01*
X148371429Y-60185714D01*
X148657143Y-59900000D01*
X149085715Y-59757143D01*
X149371429Y-59757143D01*
X149800000Y-59900000D01*
X149942857Y-60042857D01*
D12*
X88400000Y-23600000D03*
X146300000Y-119000000D03*
D13*
X133000000Y-51400000D03*
D14*
X125380000Y-36160000D03*
X133000000Y-48860000D03*
X125380000Y-38700000D03*
X133000000Y-46320000D03*
X125380000Y-41240000D03*
X133000000Y-43780000D03*
X125380000Y-43780000D03*
X133000000Y-41240000D03*
X125380000Y-46320000D03*
X133000000Y-38700000D03*
X125380000Y-48860000D03*
X133000000Y-36160000D03*
X125380000Y-51400000D03*
D15*
X98860000Y-88200000D03*
X96320000Y-88200000D03*
X101400000Y-88200000D03*
D16*
X94300000Y-67200000D03*
D17*
X96300000Y-67200000D03*
D18*
X97600000Y-34000000D03*
D19*
X105100000Y-34000000D03*
D20*
X100900000Y-71300000D03*
X96900000Y-71300000D03*
X111500000Y-63300000D03*
X107500000Y-63300000D03*
D21*
X122200000Y-35000000D03*
X122200000Y-31000000D03*
X127400000Y-61800000D03*
X127400000Y-57800000D03*
D20*
X122200000Y-99400000D03*
X118200000Y-99400000D03*
X140400000Y-48800000D03*
X136400000Y-48800000D03*
D21*
X141900000Y-75200000D03*
X141900000Y-79200000D03*
X141900000Y-107900000D03*
X141900000Y-111900000D03*
D22*
X157800000Y-38000000D03*
X157800000Y-43000000D03*
X157600000Y-69700000D03*
X157600000Y-74700000D03*
X150500000Y-96000000D03*
X150500000Y-101000000D03*
D23*
X99270000Y-94800000D03*
X100540000Y-94800000D03*
D24*
X98000000Y-94800000D03*
D13*
X143800000Y-38600000D03*
D14*
X143800000Y-46220000D03*
D13*
X150100000Y-66600000D03*
D14*
X157720000Y-66600000D03*
D13*
X139600000Y-96000000D03*
D14*
X147220000Y-96000000D03*
D25*
X108700000Y-23500000D03*
D19*
X104100000Y-22300000D03*
D25*
X99500000Y-23500000D03*
D26*
X88400000Y-39500000D03*
X88400000Y-34500000D03*
X88400000Y-49500000D03*
X88400000Y-54500000D03*
D27*
X120400000Y-77200000D03*
D28*
X120400000Y-74660000D03*
X120400000Y-72120000D03*
D29*
X180600000Y-40600000D03*
X180600000Y-73600000D03*
X180400000Y-104000000D03*
D27*
X87800000Y-120000000D03*
D28*
X87800000Y-117460000D03*
X87800000Y-114920000D03*
D27*
X88400000Y-88900000D03*
D28*
X88400000Y-91440000D03*
D27*
X88400000Y-83700000D03*
D28*
X88400000Y-81160000D03*
X88400000Y-78620000D03*
X88400000Y-76080000D03*
D27*
X120400000Y-46500000D03*
D28*
X120400000Y-43960000D03*
X120400000Y-41420000D03*
D27*
X120500000Y-109300000D03*
D28*
X120500000Y-106760000D03*
X120500000Y-104220000D03*
D30*
X137900000Y-119000000D03*
X133900000Y-119000000D03*
D31*
X163000000Y-32600000D03*
X163000000Y-35140000D03*
X163000000Y-30060000D03*
X163000000Y-50200000D03*
X163000000Y-52740000D03*
X163000000Y-47660000D03*
X163000000Y-63800000D03*
X163000000Y-66340000D03*
X163000000Y-61260000D03*
X162800000Y-81500000D03*
X162800000Y-84040000D03*
X162800000Y-78960000D03*
X162900000Y-96000000D03*
X162900000Y-98540000D03*
X162900000Y-93460000D03*
X162900000Y-113200000D03*
X162900000Y-115740000D03*
X162900000Y-110660000D03*
D32*
X102000000Y-112000000D03*
X106000000Y-112000000D03*
D33*
X87600000Y-111000000D03*
X87600000Y-107000000D03*
X104200000Y-67000000D03*
X104200000Y-71000000D03*
D32*
X88200000Y-98200000D03*
X92200000Y-98200000D03*
D33*
X93600000Y-95200000D03*
X93600000Y-91200000D03*
D19*
X148000000Y-23600000D03*
D34*
X117520000Y-23600000D03*
D33*
X108400000Y-76000000D03*
X108400000Y-72000000D03*
X105800000Y-91600000D03*
X105800000Y-87600000D03*
D32*
X111600000Y-58900000D03*
X107600000Y-58900000D03*
D13*
X90800000Y-108600000D03*
D14*
X106040000Y-100980000D03*
X93340000Y-108600000D03*
X103500000Y-100980000D03*
X95880000Y-108600000D03*
X100960000Y-100980000D03*
X98420000Y-108600000D03*
X98420000Y-100980000D03*
X100960000Y-108600000D03*
X95880000Y-100980000D03*
X103500000Y-108600000D03*
X93340000Y-100980000D03*
X106040000Y-108600000D03*
X90800000Y-100980000D03*
D35*
X88400000Y-62100000D03*
D36*
X88400000Y-64640000D03*
X88400000Y-67180000D03*
D13*
X112500000Y-45700000D03*
D14*
X104880000Y-53320000D03*
X109960000Y-45700000D03*
X107420000Y-53320000D03*
X107420000Y-45700000D03*
X109960000Y-53320000D03*
X104880000Y-45700000D03*
X112500000Y-53320000D03*
D13*
X133000000Y-82300000D03*
D14*
X125380000Y-67060000D03*
X133000000Y-79760000D03*
X125380000Y-69600000D03*
X133000000Y-77220000D03*
X125380000Y-72140000D03*
X133000000Y-74680000D03*
X125380000Y-74680000D03*
X133000000Y-72140000D03*
X125380000Y-77220000D03*
X133000000Y-69600000D03*
X125380000Y-79760000D03*
X133000000Y-67060000D03*
X125380000Y-82300000D03*
D13*
X133100000Y-114400000D03*
D14*
X125480000Y-99160000D03*
X133100000Y-111860000D03*
X125480000Y-101700000D03*
X133100000Y-109320000D03*
X125480000Y-104240000D03*
X133100000Y-106780000D03*
X125480000Y-106780000D03*
X133100000Y-104240000D03*
X125480000Y-109320000D03*
X133100000Y-101700000D03*
X125480000Y-111860000D03*
X133100000Y-99160000D03*
X125480000Y-114400000D03*
D21*
X93000000Y-79200000D03*
X93000000Y-75200000D03*
D33*
X96800000Y-75200000D03*
X96800000Y-79200000D03*
X84400000Y-72200000D03*
X84400000Y-76200000D03*
D17*
X127000000Y-91550000D03*
X117600000Y-70000000D03*
X144650000Y-91850000D03*
X104200000Y-73100000D03*
X90600000Y-105000000D03*
X105400000Y-84600000D03*
D37*
X96800000Y-75200000D02*
X91820000Y-75200000D01*
X91820000Y-75200000D02*
X88400000Y-78620000D01*
X129000000Y-83200000D02*
X129000000Y-52480000D01*
X99270000Y-94800000D02*
X99270000Y-92670000D01*
X96320000Y-89720000D02*
X96320000Y-88200000D01*
X99270000Y-92670000D02*
X96320000Y-89720000D01*
X95880000Y-100980000D02*
X96020000Y-100980000D01*
X96020000Y-100980000D02*
X99270000Y-97730000D01*
X99270000Y-97730000D02*
X99270000Y-94800000D01*
X96900000Y-71300000D02*
X96900000Y-67800000D01*
X96900000Y-67800000D02*
X96300000Y-67200000D01*
X125480000Y-111860000D02*
X125480000Y-111880000D01*
X125480000Y-111880000D02*
X129000000Y-115400000D01*
X125380000Y-79760000D02*
X125560000Y-79760000D01*
X125560000Y-79760000D02*
X129000000Y-83200000D01*
X133900000Y-119000000D02*
X131000000Y-119000000D01*
X129000000Y-52480000D02*
X125380000Y-48860000D01*
X129000000Y-117000000D02*
X129000000Y-115400000D01*
X129000000Y-115400000D02*
X129000000Y-102200000D01*
X129000000Y-102200000D02*
X129000000Y-83200000D01*
X131000000Y-119000000D02*
X129000000Y-117000000D01*
X101400000Y-88200000D02*
X102400000Y-88200000D01*
X102400000Y-88200000D02*
X105800000Y-91600000D01*
X100540000Y-94800000D02*
X100540000Y-89060000D01*
X100540000Y-89060000D02*
X101400000Y-88200000D01*
X100540000Y-94800000D02*
X100540000Y-100560000D01*
X100540000Y-100560000D02*
X100960000Y-100980000D01*
X105800000Y-91600000D02*
X105800000Y-95800000D01*
X105800000Y-95800000D02*
X100960000Y-100640000D01*
X100960000Y-100640000D02*
X100960000Y-100980000D01*
D38*
X97600000Y-34000000D02*
X97600000Y-32800000D01*
X97600000Y-32800000D02*
X88400000Y-23600000D01*
D37*
X88400000Y-39500000D02*
X88400000Y-34500000D01*
X88400000Y-23600000D02*
X88400000Y-24800000D01*
D38*
X88400000Y-23600000D02*
X88400000Y-39500000D01*
X99500000Y-23500000D02*
X88500000Y-23500000D01*
X88500000Y-23500000D02*
X88400000Y-23600000D01*
X99400000Y-23600000D02*
X99500000Y-23500000D01*
X105100000Y-34000000D02*
X105100000Y-33900000D01*
X105100000Y-33900000D02*
X112000000Y-27000000D01*
X112000000Y-27000000D02*
X132800000Y-27000000D01*
X105100000Y-34000000D02*
X105400000Y-34000000D01*
D37*
X133000000Y-79760000D02*
X141340000Y-79760000D01*
X141340000Y-79760000D02*
X141900000Y-79200000D01*
X117600000Y-82150000D02*
X117600000Y-70000000D01*
X117600000Y-82150000D02*
X127000000Y-91550000D01*
X144650000Y-91850000D02*
X144700000Y-91900000D01*
X144700000Y-91900000D02*
X153000000Y-91900000D01*
D38*
X146300000Y-119000000D02*
X137900000Y-119000000D01*
X152400000Y-111500000D02*
X152400000Y-112900000D01*
X152400000Y-112900000D02*
X146300000Y-119000000D01*
X157700000Y-89140000D02*
X157700000Y-113600000D01*
X157700000Y-113600000D02*
X152300000Y-119000000D01*
X162900000Y-115740000D02*
X162900000Y-115800000D01*
X162900000Y-115800000D02*
X159700000Y-119000000D01*
X159700000Y-119000000D02*
X152300000Y-119000000D01*
X152300000Y-119000000D02*
X146300000Y-119000000D01*
D37*
X141900000Y-111900000D02*
X152000000Y-111900000D01*
X152000000Y-111900000D02*
X152400000Y-111500000D01*
X152400000Y-111500000D02*
X153000000Y-110900000D01*
X141900000Y-111900000D02*
X133140000Y-111900000D01*
X133140000Y-111900000D02*
X133100000Y-111860000D01*
X150500000Y-101000000D02*
X151300000Y-101000000D01*
X151300000Y-101000000D02*
X153000000Y-102700000D01*
X133000000Y-79760000D02*
X151640000Y-79760000D01*
X151640000Y-79760000D02*
X153000000Y-78400000D01*
X157600000Y-74700000D02*
X157600000Y-80000000D01*
X157600000Y-80000000D02*
X161640000Y-84040000D01*
X161640000Y-84040000D02*
X162800000Y-84040000D01*
X157800000Y-43000000D02*
X157800000Y-48800000D01*
X157800000Y-48800000D02*
X161740000Y-52740000D01*
X161740000Y-52740000D02*
X163000000Y-52740000D01*
X136400000Y-48800000D02*
X133060000Y-48800000D01*
X133060000Y-48800000D02*
X133000000Y-48860000D01*
D39*
X161640000Y-84040000D02*
X162800000Y-84040000D01*
X161740000Y-84040000D02*
X162800000Y-84040000D01*
X133060000Y-48800000D02*
X133000000Y-48860000D01*
X161740000Y-52740000D02*
X163000000Y-52740000D01*
D38*
X153000000Y-110900000D02*
X153000000Y-102700000D01*
X153000000Y-102700000D02*
X153000000Y-91900000D01*
X153000000Y-91900000D02*
X153000000Y-91850000D01*
X153000000Y-91850000D02*
X153000000Y-78400000D01*
X153000000Y-78400000D02*
X153000000Y-62740000D01*
X153000000Y-62740000D02*
X159940000Y-55800000D01*
X159940000Y-55800000D02*
X163000000Y-52740000D01*
X157300000Y-89540000D02*
X157700000Y-89140000D01*
X157700000Y-89140000D02*
X162800000Y-84040000D01*
D37*
X88400000Y-67180000D02*
X88400000Y-76080000D01*
X93000000Y-79200000D02*
X91800000Y-79200000D01*
X89840000Y-81160000D02*
X88400000Y-81160000D01*
X91800000Y-79200000D02*
X89840000Y-81160000D01*
X96800000Y-79200000D02*
X93000000Y-79200000D01*
X84400000Y-76200000D02*
X84400000Y-77160000D01*
X84400000Y-77160000D02*
X88400000Y-81160000D01*
X104200000Y-71000000D02*
X104200000Y-73100000D01*
X104200000Y-71000000D02*
X101200000Y-71000000D01*
X101200000Y-71000000D02*
X100900000Y-71300000D01*
X111600000Y-58900000D02*
X111600000Y-63200000D01*
X111600000Y-63200000D02*
X111500000Y-63300000D01*
X109960000Y-45700000D02*
X109960000Y-45860000D01*
X109960000Y-45860000D02*
X116300000Y-52200000D01*
X116300000Y-54200000D02*
X111600000Y-58900000D01*
X116300000Y-52200000D02*
X116300000Y-54200000D01*
X108400000Y-72000000D02*
X108400000Y-66600000D01*
X108400000Y-66600000D02*
X108500000Y-66500000D01*
X108500000Y-67100000D02*
X108500000Y-66500000D01*
X108500000Y-66500000D02*
X108500000Y-64300000D01*
X108500000Y-64300000D02*
X107500000Y-63300000D01*
X107500000Y-63300000D02*
X106000000Y-63300000D01*
X104200000Y-65100000D02*
X104200000Y-67000000D01*
X106000000Y-63300000D02*
X104200000Y-65100000D01*
X107500000Y-63300000D02*
X107500000Y-59000000D01*
X107500000Y-59000000D02*
X107600000Y-58900000D01*
X107600000Y-58900000D02*
X107600000Y-53500000D01*
X107600000Y-53500000D02*
X107420000Y-53320000D01*
X125380000Y-69600000D02*
X126400000Y-69600000D01*
X127400000Y-68600000D02*
X127400000Y-61800000D01*
X126400000Y-69600000D02*
X127400000Y-68600000D01*
X125380000Y-38700000D02*
X124500000Y-38700000D01*
X122200000Y-36400000D02*
X122200000Y-35000000D01*
X124500000Y-38700000D02*
X122200000Y-36400000D01*
X125480000Y-101700000D02*
X124500000Y-101700000D01*
X124500000Y-101700000D02*
X122200000Y-99400000D01*
X115900000Y-68500000D02*
X115900000Y-62100000D01*
X115900000Y-62100000D02*
X115800000Y-62200000D01*
X115800000Y-62200000D02*
X115800000Y-62400000D01*
X115800000Y-62400000D02*
X115800000Y-62200000D01*
X97400000Y-83700000D02*
X97400000Y-83000000D01*
X110400000Y-74000000D02*
X115900000Y-68500000D01*
X115900000Y-68500000D02*
X116000000Y-68400000D01*
X106400000Y-74000000D02*
X110400000Y-74000000D01*
X97400000Y-83000000D02*
X106400000Y-74000000D01*
X98600000Y-83700000D02*
X101900000Y-83700000D01*
X101900000Y-83700000D02*
X105800000Y-87600000D01*
X94200000Y-106600000D02*
X114800000Y-106600000D01*
X119700000Y-101700000D02*
X125480000Y-101700000D01*
X114800000Y-106600000D02*
X119700000Y-101700000D01*
X91200000Y-86000000D02*
X91400000Y-86000000D01*
X93600000Y-88200000D02*
X93600000Y-91200000D01*
X91400000Y-86000000D02*
X93600000Y-88200000D01*
X88400000Y-83700000D02*
X89300000Y-83700000D01*
X87600000Y-97400000D02*
X87600000Y-107000000D01*
X91200000Y-93800000D02*
X87600000Y-97400000D01*
X91200000Y-85600000D02*
X91200000Y-86000000D01*
X91200000Y-86000000D02*
X91200000Y-93800000D01*
X89300000Y-83700000D02*
X91200000Y-85600000D01*
X115800000Y-62200000D02*
X117600000Y-60400000D01*
X119100000Y-38700000D02*
X125380000Y-38700000D01*
X117600000Y-40200000D02*
X119100000Y-38700000D01*
X117600000Y-60400000D02*
X117600000Y-40200000D01*
X88400000Y-83700000D02*
X97400000Y-83700000D01*
X97400000Y-83700000D02*
X98600000Y-83700000D01*
X124180000Y-68400000D02*
X125380000Y-69600000D01*
X116000000Y-68400000D02*
X124180000Y-68400000D01*
X95880000Y-108600000D02*
X95880000Y-108280000D01*
X95880000Y-108280000D02*
X94200000Y-106600000D01*
X94200000Y-106600000D02*
X87800000Y-106600000D01*
D38*
X174450000Y-89450000D02*
X174450000Y-90250000D01*
X174450000Y-90250000D02*
X168700000Y-96000000D01*
X174450000Y-30650000D02*
X174450000Y-89450000D01*
X170800000Y-26800000D02*
X170800000Y-27000000D01*
X170800000Y-27000000D02*
X174450000Y-30650000D01*
D37*
X141900000Y-107900000D02*
X138100000Y-107900000D01*
X136800000Y-109200000D02*
X133220000Y-109200000D01*
X138100000Y-107900000D02*
X136800000Y-109200000D01*
X133220000Y-109200000D02*
X133100000Y-109320000D01*
X130700000Y-75700000D02*
X130700000Y-106920000D01*
X130700000Y-106920000D02*
X133100000Y-109320000D01*
X141900000Y-75200000D02*
X138000000Y-75200000D01*
X135980000Y-77220000D02*
X133000000Y-77220000D01*
X138000000Y-75200000D02*
X135980000Y-77220000D01*
X133000000Y-77220000D02*
X132120000Y-77220000D01*
X130700000Y-48620000D02*
X133000000Y-46320000D01*
X130700000Y-75800000D02*
X130700000Y-75700000D01*
X130700000Y-75700000D02*
X130700000Y-48620000D01*
X132120000Y-77220000D02*
X130700000Y-75800000D01*
X163000000Y-63800000D02*
X160200000Y-63800000D01*
X157600000Y-66400000D02*
X157600000Y-69700000D01*
X160200000Y-63800000D02*
X157600000Y-66400000D01*
X143800000Y-46220000D02*
X142980000Y-46220000D01*
X142980000Y-46220000D02*
X140400000Y-48800000D01*
X143800000Y-46220000D02*
X133100000Y-46220000D01*
X133100000Y-46220000D02*
X133000000Y-46320000D01*
X157800000Y-38000000D02*
X152020000Y-38000000D01*
X152020000Y-38000000D02*
X143800000Y-46220000D01*
X163000000Y-32600000D02*
X162200000Y-32600000D01*
X162200000Y-32600000D02*
X157800000Y-37000000D01*
X157800000Y-37000000D02*
X157800000Y-38000000D01*
D39*
X163000000Y-63800000D02*
X162500000Y-63800000D01*
D38*
X159000000Y-23600000D02*
X148000000Y-23600000D01*
X167600000Y-23600000D02*
X159000000Y-23600000D01*
X159000000Y-23600000D02*
X159200000Y-23600000D01*
D39*
X140400000Y-48800000D02*
X141220000Y-48800000D01*
X157900000Y-37900000D02*
X157800000Y-38000000D01*
X163000000Y-32600000D02*
X162400000Y-32600000D01*
D38*
X168800000Y-96000000D02*
X168700000Y-96000000D01*
X168700000Y-96000000D02*
X162900000Y-96000000D01*
X170800000Y-26800000D02*
X170800000Y-59100000D01*
X170800000Y-61500000D02*
X168500000Y-63800000D01*
X168500000Y-63800000D02*
X163000000Y-63800000D01*
X170800000Y-59100000D02*
X170800000Y-61500000D01*
X167600000Y-23600000D02*
X170800000Y-26800000D01*
X170800000Y-26800000D02*
X170800000Y-26800000D01*
X165800000Y-32600000D02*
X163000000Y-32600000D01*
X167800000Y-30600000D02*
X165800000Y-32600000D01*
X167800000Y-23600000D02*
X167800000Y-30600000D01*
X117520000Y-23600000D02*
X108800000Y-23600000D01*
X108800000Y-23600000D02*
X108700000Y-23500000D01*
D37*
X120400000Y-77200000D02*
X125360000Y-77200000D01*
X125360000Y-77200000D02*
X125380000Y-77220000D01*
X125380000Y-74680000D02*
X120420000Y-74680000D01*
X120420000Y-74680000D02*
X120400000Y-74660000D01*
X125380000Y-72140000D02*
X120420000Y-72140000D01*
X120420000Y-72140000D02*
X120400000Y-72120000D01*
X89800000Y-110400000D02*
X89800000Y-115460000D01*
X89800000Y-115460000D02*
X87800000Y-117460000D01*
X89800000Y-109600000D02*
X89800000Y-110400000D01*
X89800000Y-110400000D02*
X89800000Y-110200000D01*
X89000000Y-111000000D02*
X87600000Y-111000000D01*
X89800000Y-110200000D02*
X89000000Y-111000000D01*
X89800000Y-109600000D02*
X89800000Y-109600000D01*
X89800000Y-109600000D02*
X90800000Y-108600000D01*
X90800000Y-108600000D02*
X90800000Y-109400000D01*
X90800000Y-109400000D02*
X93400000Y-112000000D01*
X93400000Y-112000000D02*
X102000000Y-112000000D01*
X90800000Y-100980000D02*
X90800000Y-104800000D01*
X90800000Y-104800000D02*
X90600000Y-105000000D01*
X90800000Y-100980000D02*
X90800000Y-100600000D01*
X90800000Y-100600000D02*
X90200000Y-100000000D01*
X91800000Y-95200000D02*
X93600000Y-95200000D01*
X90200000Y-96800000D02*
X91800000Y-95200000D01*
X90200000Y-100000000D02*
X90200000Y-96800000D01*
X93600000Y-95200000D02*
X93600000Y-95800000D01*
X92200000Y-98200000D02*
X92800000Y-98200000D01*
X92800000Y-98200000D02*
X93340000Y-98740000D01*
X93340000Y-98740000D02*
X93340000Y-100980000D01*
X125380000Y-46320000D02*
X120580000Y-46320000D01*
X120580000Y-46320000D02*
X120400000Y-46500000D01*
X125380000Y-43780000D02*
X120580000Y-43780000D01*
X120580000Y-43780000D02*
X120400000Y-43960000D01*
X120400000Y-41420000D02*
X125200000Y-41420000D01*
X125200000Y-41420000D02*
X125380000Y-41240000D01*
X125480000Y-109320000D02*
X120520000Y-109320000D01*
X120520000Y-109320000D02*
X120500000Y-109300000D01*
X125480000Y-106780000D02*
X120520000Y-106780000D01*
X120520000Y-106780000D02*
X120500000Y-106760000D01*
X125480000Y-104240000D02*
X120520000Y-104240000D01*
X120520000Y-104240000D02*
X120500000Y-104220000D01*
X106000000Y-112000000D02*
X106000000Y-108640000D01*
X106000000Y-108640000D02*
X106040000Y-108600000D01*
X108400000Y-76000000D02*
X108400000Y-81600000D01*
X108400000Y-81600000D02*
X105400000Y-84600000D01*
X88400000Y-62100000D02*
X88100000Y-62100000D01*
X88100000Y-62100000D02*
X84400000Y-65800000D01*
X84400000Y-65800000D02*
X84400000Y-72200000D01*
X88400000Y-62100000D02*
X88400000Y-54500000D01*
X88400000Y-49500000D02*
X88400000Y-54500000D01*
D40*
G36*
X129673000Y-25365000D02*
X117907864Y-25365000D01*
X118258174Y-25295319D01*
X118853491Y-24897541D01*
X119251269Y-24302224D01*
X119390950Y-23600000D01*
X119251269Y-22897776D01*
X118853491Y-22302459D01*
X118258174Y-21904681D01*
X117555950Y-21765000D01*
X117484050Y-21765000D01*
X116781826Y-21904681D01*
X116691552Y-21965000D01*
X110537637Y-21965000D01*
X110052758Y-21479274D01*
X109176487Y-21115415D01*
X108227675Y-21114587D01*
X107350771Y-21476916D01*
X106679274Y-22147242D01*
X106315415Y-23023513D01*
X106314587Y-23972325D01*
X106676916Y-24849229D01*
X107347242Y-25520726D01*
X108223513Y-25884585D01*
X109172325Y-25885413D01*
X110049229Y-25523084D01*
X110337816Y-25235000D01*
X116691552Y-25235000D01*
X116781826Y-25295319D01*
X117132136Y-25365000D01*
X112000005Y-25365000D01*
X112000000Y-25364999D01*
X111374313Y-25489457D01*
X110843880Y-25843880D01*
X110843878Y-25843883D01*
X104372732Y-32315028D01*
X104061914Y-32443455D01*
X103545270Y-32959199D01*
X103265319Y-33633395D01*
X103264682Y-34363403D01*
X103543455Y-35038086D01*
X104059199Y-35554730D01*
X104733395Y-35834681D01*
X105463403Y-35835318D01*
X106138086Y-35556545D01*
X106504979Y-35190291D01*
X106556120Y-35156120D01*
X106589993Y-35105425D01*
X106654730Y-35040801D01*
X106690118Y-34955577D01*
X106910543Y-34625687D01*
X106966160Y-34346079D01*
X110026489Y-31285750D01*
X120765000Y-31285750D01*
X120765000Y-32126309D01*
X120861673Y-32359698D01*
X121040301Y-32538327D01*
X121273690Y-32635000D01*
X121914250Y-32635000D01*
X122073000Y-32476250D01*
X122073000Y-31127000D01*
X122327000Y-31127000D01*
X122327000Y-32476250D01*
X122485750Y-32635000D01*
X123126310Y-32635000D01*
X123359699Y-32538327D01*
X123538327Y-32359698D01*
X123635000Y-32126309D01*
X123635000Y-31285750D01*
X123476250Y-31127000D01*
X122327000Y-31127000D01*
X122073000Y-31127000D01*
X120923750Y-31127000D01*
X120765000Y-31285750D01*
X110026489Y-31285750D01*
X111438548Y-29873691D01*
X120765000Y-29873691D01*
X120765000Y-30714250D01*
X120923750Y-30873000D01*
X122073000Y-30873000D01*
X122073000Y-29523750D01*
X122327000Y-29523750D01*
X122327000Y-30873000D01*
X123476250Y-30873000D01*
X123635000Y-30714250D01*
X123635000Y-29873691D01*
X123538327Y-29640302D01*
X123359699Y-29461673D01*
X123126310Y-29365000D01*
X122485750Y-29365000D01*
X122327000Y-29523750D01*
X122073000Y-29523750D01*
X121914250Y-29365000D01*
X121273690Y-29365000D01*
X121040301Y-29461673D01*
X120861673Y-29640302D01*
X120765000Y-29873691D01*
X111438548Y-29873691D01*
X112677239Y-28635000D01*
X129673000Y-28635000D01*
X129673000Y-48579777D01*
X129664999Y-48620000D01*
X129665000Y-48620005D01*
X129665000Y-75799995D01*
X129664999Y-75800000D01*
X129665000Y-75800005D01*
X129665000Y-106919995D01*
X129664999Y-106920000D01*
X129673000Y-106960223D01*
X129673000Y-123090000D01*
X80110000Y-123090000D01*
X80110000Y-91440000D01*
X86885907Y-91440000D01*
X86998946Y-92008285D01*
X87320853Y-92490054D01*
X87802622Y-92811961D01*
X88370907Y-92925000D01*
X88429093Y-92925000D01*
X88997378Y-92811961D01*
X89479147Y-92490054D01*
X89801054Y-92008285D01*
X89914093Y-91440000D01*
X89801054Y-90871715D01*
X89479147Y-90389946D01*
X89437548Y-90362150D01*
X89485317Y-90353162D01*
X89701441Y-90214090D01*
X89846431Y-90001890D01*
X89897440Y-89750000D01*
X89897440Y-88050000D01*
X89853162Y-87814683D01*
X89714090Y-87598559D01*
X89501890Y-87453569D01*
X89250000Y-87402560D01*
X87550000Y-87402560D01*
X87314683Y-87446838D01*
X87098559Y-87585910D01*
X86953569Y-87798110D01*
X86902560Y-88050000D01*
X86902560Y-89750000D01*
X86946838Y-89985317D01*
X87085910Y-90201441D01*
X87298110Y-90346431D01*
X87365541Y-90360086D01*
X87320853Y-90389946D01*
X86998946Y-90871715D01*
X86885907Y-91440000D01*
X80110000Y-91440000D01*
X80110000Y-71200000D01*
X82902560Y-71200000D01*
X82902560Y-73200000D01*
X82946838Y-73435317D01*
X83085910Y-73651441D01*
X83298110Y-73796431D01*
X83550000Y-73847440D01*
X85250000Y-73847440D01*
X85485317Y-73803162D01*
X85701441Y-73664090D01*
X85846431Y-73451890D01*
X85897440Y-73200000D01*
X85897440Y-71200000D01*
X85853162Y-70964683D01*
X85714090Y-70748559D01*
X85501890Y-70603569D01*
X85435000Y-70590023D01*
X85435000Y-66228712D01*
X86896709Y-64767002D01*
X87029002Y-64767002D01*
X86908954Y-65004742D01*
X87162034Y-65547576D01*
X87552582Y-65905499D01*
X87314591Y-66064519D01*
X86981845Y-66562509D01*
X86865000Y-67149928D01*
X86865000Y-67210072D01*
X86981845Y-67797491D01*
X87314591Y-68295481D01*
X87365000Y-68329163D01*
X87365000Y-75000448D01*
X87320853Y-75029946D01*
X86998946Y-75511715D01*
X86885907Y-76080000D01*
X86998946Y-76648285D01*
X87320853Y-77130054D01*
X87661553Y-77357702D01*
X87518642Y-77424817D01*
X87128355Y-77853076D01*
X86960954Y-78257243D01*
X85897440Y-77193728D01*
X85897440Y-75200000D01*
X85853162Y-74964683D01*
X85714090Y-74748559D01*
X85501890Y-74603569D01*
X85250000Y-74552560D01*
X83550000Y-74552560D01*
X83314683Y-74596838D01*
X83098559Y-74735910D01*
X82953569Y-74948110D01*
X82902560Y-75200000D01*
X82902560Y-77200000D01*
X82946838Y-77435317D01*
X83085910Y-77651441D01*
X83298110Y-77796431D01*
X83550000Y-77847440D01*
X83638466Y-77847440D01*
X83668144Y-77891856D01*
X86894266Y-81117977D01*
X86885907Y-81160000D01*
X86998946Y-81728285D01*
X87320853Y-82210054D01*
X87362452Y-82237850D01*
X87314683Y-82246838D01*
X87098559Y-82385910D01*
X86953569Y-82598110D01*
X86902560Y-82850000D01*
X86902560Y-84550000D01*
X86946838Y-84785317D01*
X87085910Y-85001441D01*
X87298110Y-85146431D01*
X87550000Y-85197440D01*
X89250000Y-85197440D01*
X89320469Y-85184180D01*
X90165000Y-86028711D01*
X90165000Y-93371289D01*
X86868144Y-96668144D01*
X86643785Y-97003923D01*
X86633871Y-97053761D01*
X86603569Y-97098110D01*
X86552560Y-97350000D01*
X86552560Y-99050000D01*
X86565000Y-99116113D01*
X86565000Y-105387370D01*
X86514683Y-105396838D01*
X86298559Y-105535910D01*
X86153569Y-105748110D01*
X86102560Y-106000000D01*
X86102560Y-108000000D01*
X86146838Y-108235317D01*
X86285910Y-108451441D01*
X86498110Y-108596431D01*
X86750000Y-108647440D01*
X88450000Y-108647440D01*
X88685317Y-108603162D01*
X88901441Y-108464090D01*
X89046431Y-108251890D01*
X89097440Y-108000000D01*
X89097440Y-107635000D01*
X89385973Y-107635000D01*
X89352560Y-107800000D01*
X89352560Y-108583728D01*
X89068144Y-108868144D01*
X88843785Y-109203923D01*
X88791846Y-109465033D01*
X88701890Y-109403569D01*
X88450000Y-109352560D01*
X86750000Y-109352560D01*
X86514683Y-109396838D01*
X86298559Y-109535910D01*
X86153569Y-109748110D01*
X86102560Y-110000000D01*
X86102560Y-112000000D01*
X86146838Y-112235317D01*
X86285910Y-112451441D01*
X86498110Y-112596431D01*
X86750000Y-112647440D01*
X88450000Y-112647440D01*
X88685317Y-112603162D01*
X88765000Y-112551887D01*
X88765000Y-113793676D01*
X88397378Y-113548039D01*
X87829093Y-113435000D01*
X87770907Y-113435000D01*
X87202622Y-113548039D01*
X86720853Y-113869946D01*
X86398946Y-114351715D01*
X86285907Y-114920000D01*
X86398946Y-115488285D01*
X86720853Y-115970054D01*
X87050026Y-116190000D01*
X86720853Y-116409946D01*
X86398946Y-116891715D01*
X86285907Y-117460000D01*
X86398946Y-118028285D01*
X86720853Y-118510054D01*
X86762452Y-118537850D01*
X86714683Y-118546838D01*
X86498559Y-118685910D01*
X86353569Y-118898110D01*
X86302560Y-119150000D01*
X86302560Y-120850000D01*
X86346838Y-121085317D01*
X86485910Y-121301441D01*
X86698110Y-121446431D01*
X86950000Y-121497440D01*
X88650000Y-121497440D01*
X88885317Y-121453162D01*
X89101441Y-121314090D01*
X89246431Y-121101890D01*
X89297440Y-120850000D01*
X89297440Y-119150000D01*
X89253162Y-118914683D01*
X89114090Y-118698559D01*
X88901890Y-118553569D01*
X88834459Y-118539914D01*
X88879147Y-118510054D01*
X89201054Y-118028285D01*
X89314093Y-117460000D01*
X89305734Y-117417977D01*
X90531853Y-116191858D01*
X90531856Y-116191856D01*
X90756215Y-115856077D01*
X90835001Y-115460000D01*
X90835000Y-115459995D01*
X90835000Y-114400000D01*
X124016887Y-114400000D01*
X124126120Y-114949151D01*
X124437189Y-115414698D01*
X124902736Y-115725767D01*
X125451887Y-115835000D01*
X125508113Y-115835000D01*
X126057264Y-115725767D01*
X126522811Y-115414698D01*
X126833880Y-114949151D01*
X126943113Y-114400000D01*
X126833880Y-113850849D01*
X126522811Y-113385302D01*
X126118297Y-113115014D01*
X126335134Y-113012389D01*
X126711041Y-112597423D01*
X126871904Y-112209039D01*
X126749915Y-111987000D01*
X125607000Y-111987000D01*
X125607000Y-112007000D01*
X125353000Y-112007000D01*
X125353000Y-111987000D01*
X124210085Y-111987000D01*
X124088096Y-112209039D01*
X124248959Y-112597423D01*
X124624866Y-113012389D01*
X124841703Y-113115014D01*
X124437189Y-113385302D01*
X124126120Y-113850849D01*
X124016887Y-114400000D01*
X90835000Y-114400000D01*
X90835000Y-110898712D01*
X92668142Y-112731853D01*
X92668144Y-112731856D01*
X92844960Y-112850000D01*
X93003922Y-112956215D01*
X93400000Y-113035000D01*
X100387370Y-113035000D01*
X100396838Y-113085317D01*
X100535910Y-113301441D01*
X100748110Y-113446431D01*
X101000000Y-113497440D01*
X103000000Y-113497440D01*
X103235317Y-113453162D01*
X103451441Y-113314090D01*
X103596431Y-113101890D01*
X103647440Y-112850000D01*
X103647440Y-111150000D01*
X103603162Y-110914683D01*
X103464090Y-110698559D01*
X103251890Y-110553569D01*
X103000000Y-110502560D01*
X101000000Y-110502560D01*
X100764683Y-110546838D01*
X100548559Y-110685910D01*
X100403569Y-110898110D01*
X100390023Y-110965000D01*
X93828711Y-110965000D01*
X92824232Y-109960520D01*
X93340000Y-110063113D01*
X93889151Y-109953880D01*
X94354698Y-109642811D01*
X94610000Y-109260725D01*
X94865302Y-109642811D01*
X95330849Y-109953880D01*
X95880000Y-110063113D01*
X96429151Y-109953880D01*
X96894698Y-109642811D01*
X97150000Y-109260725D01*
X97405302Y-109642811D01*
X97870849Y-109953880D01*
X98420000Y-110063113D01*
X98969151Y-109953880D01*
X99434698Y-109642811D01*
X99690000Y-109260725D01*
X99945302Y-109642811D01*
X100410849Y-109953880D01*
X100960000Y-110063113D01*
X101509151Y-109953880D01*
X101974698Y-109642811D01*
X102230000Y-109260725D01*
X102485302Y-109642811D01*
X102950849Y-109953880D01*
X103500000Y-110063113D01*
X104049151Y-109953880D01*
X104514698Y-109642811D01*
X104770000Y-109260725D01*
X104965000Y-109552563D01*
X104965000Y-110509146D01*
X104764683Y-110546838D01*
X104548559Y-110685910D01*
X104403569Y-110898110D01*
X104352560Y-111150000D01*
X104352560Y-112850000D01*
X104396838Y-113085317D01*
X104535910Y-113301441D01*
X104748110Y-113446431D01*
X105000000Y-113497440D01*
X107000000Y-113497440D01*
X107235317Y-113453162D01*
X107451441Y-113314090D01*
X107596431Y-113101890D01*
X107647440Y-112850000D01*
X107647440Y-111150000D01*
X107603162Y-110914683D01*
X107464090Y-110698559D01*
X107251890Y-110553569D01*
X107035000Y-110509648D01*
X107035000Y-109655973D01*
X107054698Y-109642811D01*
X107365767Y-109177264D01*
X107475000Y-108628113D01*
X107475000Y-108571887D01*
X107365767Y-108022736D01*
X107106690Y-107635000D01*
X114799995Y-107635000D01*
X114800000Y-107635001D01*
X115196077Y-107556215D01*
X115531856Y-107331856D01*
X119070875Y-103792836D01*
X118985907Y-104220000D01*
X119098946Y-104788285D01*
X119420853Y-105270054D01*
X119750026Y-105490000D01*
X119420853Y-105709946D01*
X119098946Y-106191715D01*
X118985907Y-106760000D01*
X119098946Y-107328285D01*
X119420853Y-107810054D01*
X119462452Y-107837850D01*
X119414683Y-107846838D01*
X119198559Y-107985910D01*
X119053569Y-108198110D01*
X119002560Y-108450000D01*
X119002560Y-110150000D01*
X119046838Y-110385317D01*
X119185910Y-110601441D01*
X119398110Y-110746431D01*
X119650000Y-110797440D01*
X121350000Y-110797440D01*
X121585317Y-110753162D01*
X121801441Y-110614090D01*
X121946431Y-110401890D01*
X121955926Y-110355000D01*
X124467573Y-110355000D01*
X124841703Y-110604986D01*
X124624866Y-110707611D01*
X124248959Y-111122577D01*
X124088096Y-111510961D01*
X124210085Y-111733000D01*
X125353000Y-111733000D01*
X125353000Y-111713000D01*
X125607000Y-111713000D01*
X125607000Y-111733000D01*
X126749915Y-111733000D01*
X126871904Y-111510961D01*
X126711041Y-111122577D01*
X126335134Y-110707611D01*
X126118297Y-110604986D01*
X126522811Y-110334698D01*
X126833880Y-109869151D01*
X126943113Y-109320000D01*
X126833880Y-108770849D01*
X126522811Y-108305302D01*
X126140725Y-108050000D01*
X126522811Y-107794698D01*
X126833880Y-107329151D01*
X126943113Y-106780000D01*
X126833880Y-106230849D01*
X126522811Y-105765302D01*
X126140725Y-105510000D01*
X126522811Y-105254698D01*
X126833880Y-104789151D01*
X126943113Y-104240000D01*
X126833880Y-103690849D01*
X126522811Y-103225302D01*
X126140725Y-102970000D01*
X126522811Y-102714698D01*
X126833880Y-102249151D01*
X126943113Y-101700000D01*
X126833880Y-101150849D01*
X126522811Y-100685302D01*
X126140725Y-100430000D01*
X126522811Y-100174698D01*
X126833880Y-99709151D01*
X126943113Y-99160000D01*
X126833880Y-98610849D01*
X126522811Y-98145302D01*
X126057264Y-97834233D01*
X125508113Y-97725000D01*
X125451887Y-97725000D01*
X124902736Y-97834233D01*
X124437189Y-98145302D01*
X124126120Y-98610849D01*
X124016887Y-99160000D01*
X124126120Y-99709151D01*
X124434732Y-100171020D01*
X123847440Y-99583728D01*
X123847440Y-98600000D01*
X123803162Y-98364683D01*
X123664090Y-98148559D01*
X123451890Y-98003569D01*
X123200000Y-97952560D01*
X121200000Y-97952560D01*
X120964683Y-97996838D01*
X120748559Y-98135910D01*
X120603569Y-98348110D01*
X120552560Y-98600000D01*
X120552560Y-100200000D01*
X120596838Y-100435317D01*
X120735910Y-100651441D01*
X120755754Y-100665000D01*
X119700000Y-100665000D01*
X119616395Y-100681630D01*
X119738327Y-100559699D01*
X119835000Y-100326310D01*
X119835000Y-99685750D01*
X119676250Y-99527000D01*
X118327000Y-99527000D01*
X118327000Y-100676250D01*
X118485750Y-100835000D01*
X119167409Y-100835000D01*
X118968144Y-100968144D01*
X118968142Y-100968147D01*
X114371288Y-105565000D01*
X94200005Y-105565000D01*
X94200000Y-105564999D01*
X94199995Y-105565000D01*
X91702629Y-105565000D01*
X91834785Y-105246734D01*
X91835214Y-104755421D01*
X91835000Y-104754903D01*
X91835000Y-101992427D01*
X92070000Y-101640725D01*
X92325302Y-102022811D01*
X92790849Y-102333880D01*
X93340000Y-102443113D01*
X93889151Y-102333880D01*
X94354698Y-102022811D01*
X94624986Y-101618297D01*
X94727611Y-101835134D01*
X95142577Y-102211041D01*
X95530961Y-102371904D01*
X95753000Y-102249915D01*
X95753000Y-101107000D01*
X95733000Y-101107000D01*
X95733000Y-100853000D01*
X95753000Y-100853000D01*
X95753000Y-99710085D01*
X95530961Y-99588096D01*
X95142577Y-99748959D01*
X94727611Y-100124866D01*
X94624986Y-100341703D01*
X94375000Y-99967573D01*
X94375000Y-98740000D01*
X94346372Y-98596077D01*
X94296215Y-98343922D01*
X94200049Y-98200000D01*
X94071856Y-98008144D01*
X94071853Y-98008142D01*
X93847440Y-97783729D01*
X93847440Y-97350000D01*
X93803162Y-97114683D01*
X93664090Y-96898559D01*
X93589275Y-96847440D01*
X94450000Y-96847440D01*
X94685317Y-96803162D01*
X94901441Y-96664090D01*
X95046431Y-96451890D01*
X95097440Y-96200000D01*
X95097440Y-94200000D01*
X95069216Y-94050000D01*
X96902560Y-94050000D01*
X96902560Y-95550000D01*
X96946838Y-95785317D01*
X97085910Y-96001441D01*
X97298110Y-96146431D01*
X97550000Y-96197440D01*
X98450000Y-96197440D01*
X98685317Y-96153162D01*
X98818529Y-96067442D01*
X98975999Y-96144408D01*
X99143000Y-96017502D01*
X99143000Y-94927000D01*
X99123000Y-94927000D01*
X99123000Y-94673000D01*
X99143000Y-94673000D01*
X99143000Y-93582498D01*
X98975999Y-93455592D01*
X98817925Y-93532853D01*
X98701890Y-93453569D01*
X98450000Y-93402560D01*
X97550000Y-93402560D01*
X97314683Y-93446838D01*
X97098559Y-93585910D01*
X96953569Y-93798110D01*
X96902560Y-94050000D01*
X95069216Y-94050000D01*
X95053162Y-93964683D01*
X94914090Y-93748559D01*
X94701890Y-93603569D01*
X94450000Y-93552560D01*
X92750000Y-93552560D01*
X92514683Y-93596838D01*
X92298559Y-93735910D01*
X92226883Y-93840811D01*
X92235001Y-93800000D01*
X92235000Y-93799995D01*
X92235000Y-92572325D01*
X92285910Y-92651441D01*
X92498110Y-92796431D01*
X92750000Y-92847440D01*
X94450000Y-92847440D01*
X94685317Y-92803162D01*
X94901441Y-92664090D01*
X95046431Y-92451890D01*
X95097440Y-92200000D01*
X95097440Y-90200000D01*
X95053162Y-89964683D01*
X94914090Y-89748559D01*
X94701890Y-89603569D01*
X94635000Y-89590023D01*
X94635000Y-89352532D01*
X95347073Y-89352532D01*
X95445736Y-89619387D01*
X96055461Y-89845908D01*
X96705460Y-89821856D01*
X97194264Y-89619387D01*
X97292927Y-89352532D01*
X96320000Y-88379605D01*
X95347073Y-89352532D01*
X94635000Y-89352532D01*
X94635000Y-88200005D01*
X94635001Y-88200000D01*
X94582380Y-87935461D01*
X94674092Y-87935461D01*
X94698144Y-88585460D01*
X94900613Y-89074264D01*
X95167468Y-89172927D01*
X96140395Y-88200000D01*
X95167468Y-87227073D01*
X94900613Y-87325736D01*
X94674092Y-87935461D01*
X94582380Y-87935461D01*
X94556215Y-87803923D01*
X94552331Y-87798110D01*
X94331856Y-87468144D01*
X94331853Y-87468142D01*
X93911180Y-87047468D01*
X95347073Y-87047468D01*
X96320000Y-88020395D01*
X97292927Y-87047468D01*
X97194264Y-86780613D01*
X96584539Y-86554092D01*
X95934540Y-86578144D01*
X95445736Y-86780613D01*
X95347073Y-87047468D01*
X93911180Y-87047468D01*
X92178210Y-85314498D01*
X92156215Y-85203923D01*
X92029373Y-85014090D01*
X91931856Y-84868144D01*
X91931853Y-84868142D01*
X91798711Y-84735000D01*
X101471288Y-84735000D01*
X104302560Y-87566271D01*
X104302560Y-88600000D01*
X104311564Y-88647852D01*
X103131856Y-87468144D01*
X102796077Y-87243785D01*
X102745667Y-87233758D01*
X102327363Y-86814722D01*
X101726648Y-86565284D01*
X101076205Y-86564716D01*
X100475057Y-86813106D01*
X100129801Y-87157759D01*
X99787363Y-86814722D01*
X99186648Y-86565284D01*
X98536205Y-86564716D01*
X97935057Y-86813106D01*
X97507438Y-87239978D01*
X97472532Y-87227073D01*
X96499605Y-88200000D01*
X97472532Y-89172927D01*
X97507938Y-89159836D01*
X97932637Y-89585278D01*
X98533352Y-89834716D01*
X99183795Y-89835284D01*
X99505000Y-89702564D01*
X99505000Y-93500428D01*
X99397000Y-93582498D01*
X99397000Y-94673000D01*
X99417000Y-94673000D01*
X99417000Y-94927000D01*
X99397000Y-94927000D01*
X99397000Y-96017502D01*
X99505000Y-96099572D01*
X99505000Y-100042403D01*
X99434698Y-99937189D01*
X98969151Y-99626120D01*
X98420000Y-99516887D01*
X97870849Y-99626120D01*
X97405302Y-99937189D01*
X97135014Y-100341703D01*
X97032389Y-100124866D01*
X96617423Y-99748959D01*
X96229039Y-99588096D01*
X96007000Y-99710085D01*
X96007000Y-100853000D01*
X96027000Y-100853000D01*
X96027000Y-101107000D01*
X96007000Y-101107000D01*
X96007000Y-102249915D01*
X96229039Y-102371904D01*
X96617423Y-102211041D01*
X97032389Y-101835134D01*
X97135014Y-101618297D01*
X97405302Y-102022811D01*
X97870849Y-102333880D01*
X98420000Y-102443113D01*
X98969151Y-102333880D01*
X99434698Y-102022811D01*
X99690000Y-101640725D01*
X99945302Y-102022811D01*
X100410849Y-102333880D01*
X100960000Y-102443113D01*
X101509151Y-102333880D01*
X101974698Y-102022811D01*
X102230000Y-101640725D01*
X102485302Y-102022811D01*
X102950849Y-102333880D01*
X103500000Y-102443113D01*
X104049151Y-102333880D01*
X104514698Y-102022811D01*
X104770000Y-101640725D01*
X105025302Y-102022811D01*
X105490849Y-102333880D01*
X106040000Y-102443113D01*
X106589151Y-102333880D01*
X107054698Y-102022811D01*
X107365767Y-101557264D01*
X107475000Y-101008113D01*
X107475000Y-100951887D01*
X107365767Y-100402736D01*
X107054698Y-99937189D01*
X106678394Y-99685750D01*
X116565000Y-99685750D01*
X116565000Y-100326310D01*
X116661673Y-100559699D01*
X116840302Y-100738327D01*
X117073691Y-100835000D01*
X117914250Y-100835000D01*
X118073000Y-100676250D01*
X118073000Y-99527000D01*
X116723750Y-99527000D01*
X116565000Y-99685750D01*
X106678394Y-99685750D01*
X106589151Y-99626120D01*
X106040000Y-99516887D01*
X105490849Y-99626120D01*
X105025302Y-99937189D01*
X104770000Y-100319275D01*
X104514698Y-99937189D01*
X104049151Y-99626120D01*
X103539056Y-99524656D01*
X104590021Y-98473690D01*
X116565000Y-98473690D01*
X116565000Y-99114250D01*
X116723750Y-99273000D01*
X118073000Y-99273000D01*
X118073000Y-98123750D01*
X118327000Y-98123750D01*
X118327000Y-99273000D01*
X119676250Y-99273000D01*
X119835000Y-99114250D01*
X119835000Y-98473690D01*
X119738327Y-98240301D01*
X119559698Y-98061673D01*
X119326309Y-97965000D01*
X118485750Y-97965000D01*
X118327000Y-98123750D01*
X118073000Y-98123750D01*
X117914250Y-97965000D01*
X117073691Y-97965000D01*
X116840302Y-98061673D01*
X116661673Y-98240301D01*
X116565000Y-98473690D01*
X104590021Y-98473690D01*
X106531853Y-96531858D01*
X106531856Y-96531856D01*
X106756215Y-96196077D01*
X106794931Y-96001441D01*
X106835001Y-95800000D01*
X106835000Y-95799995D01*
X106835000Y-93212630D01*
X106885317Y-93203162D01*
X107101441Y-93064090D01*
X107246431Y-92851890D01*
X107297440Y-92600000D01*
X107297440Y-90600000D01*
X107253162Y-90364683D01*
X107114090Y-90148559D01*
X106901890Y-90003569D01*
X106650000Y-89952560D01*
X105616271Y-89952560D01*
X104901287Y-89237575D01*
X104950000Y-89247440D01*
X106650000Y-89247440D01*
X106885317Y-89203162D01*
X107101441Y-89064090D01*
X107246431Y-88851890D01*
X107297440Y-88600000D01*
X107297440Y-86600000D01*
X107253162Y-86364683D01*
X107114090Y-86148559D01*
X106901890Y-86003569D01*
X106650000Y-85952560D01*
X105616271Y-85952560D01*
X105498798Y-85835087D01*
X105644579Y-85835214D01*
X106098657Y-85647592D01*
X106446371Y-85300485D01*
X106634785Y-84846734D01*
X106634801Y-84828911D01*
X109131853Y-82331858D01*
X109131856Y-82331856D01*
X109356215Y-81996077D01*
X109404383Y-81753923D01*
X109435001Y-81600000D01*
X109435000Y-81599995D01*
X109435000Y-77612630D01*
X109485317Y-77603162D01*
X109701441Y-77464090D01*
X109846431Y-77251890D01*
X109897440Y-77000000D01*
X109897440Y-75035000D01*
X110399995Y-75035000D01*
X110400000Y-75035001D01*
X110796077Y-74956215D01*
X111131856Y-74731856D01*
X116428711Y-69435000D01*
X116497371Y-69435000D01*
X116365215Y-69753266D01*
X116364786Y-70244579D01*
X116552408Y-70698657D01*
X116565000Y-70711271D01*
X116565000Y-82149995D01*
X116564999Y-82150000D01*
X116643785Y-82546077D01*
X116868144Y-82881856D01*
X125764800Y-91778511D01*
X125764786Y-91794579D01*
X125952408Y-92248657D01*
X126299515Y-92596371D01*
X126753266Y-92784785D01*
X127244579Y-92785214D01*
X127698657Y-92597592D01*
X128046371Y-92250485D01*
X128234785Y-91796734D01*
X128235214Y-91305421D01*
X128047592Y-90851343D01*
X127700485Y-90503629D01*
X127246734Y-90315215D01*
X127228910Y-90315199D01*
X119213712Y-82300000D01*
X123916887Y-82300000D01*
X124026120Y-82849151D01*
X124337189Y-83314698D01*
X124802736Y-83625767D01*
X125351887Y-83735000D01*
X125408113Y-83735000D01*
X125957264Y-83625767D01*
X126422811Y-83314698D01*
X126733880Y-82849151D01*
X126843113Y-82300000D01*
X126733880Y-81750849D01*
X126422811Y-81285302D01*
X126018297Y-81015014D01*
X126235134Y-80912389D01*
X126611041Y-80497423D01*
X126771904Y-80109039D01*
X126649915Y-79887000D01*
X125507000Y-79887000D01*
X125507000Y-79907000D01*
X125253000Y-79907000D01*
X125253000Y-79887000D01*
X124110085Y-79887000D01*
X123988096Y-80109039D01*
X124148959Y-80497423D01*
X124524866Y-80912389D01*
X124741703Y-81015014D01*
X124337189Y-81285302D01*
X124026120Y-81750849D01*
X123916887Y-82300000D01*
X119213712Y-82300000D01*
X118635000Y-81721288D01*
X118635000Y-70711836D01*
X118646371Y-70700485D01*
X118834785Y-70246734D01*
X118835214Y-69755421D01*
X118702818Y-69435000D01*
X123751288Y-69435000D01*
X123917036Y-69600747D01*
X124026120Y-70149151D01*
X124337189Y-70614698D01*
X124719275Y-70870000D01*
X124367573Y-71105000D01*
X121502569Y-71105000D01*
X121479147Y-71069946D01*
X120997378Y-70748039D01*
X120429093Y-70635000D01*
X120370907Y-70635000D01*
X119802622Y-70748039D01*
X119320853Y-71069946D01*
X118998946Y-71551715D01*
X118885907Y-72120000D01*
X118998946Y-72688285D01*
X119320853Y-73170054D01*
X119650026Y-73390000D01*
X119320853Y-73609946D01*
X118998946Y-74091715D01*
X118885907Y-74660000D01*
X118998946Y-75228285D01*
X119320853Y-75710054D01*
X119362452Y-75737850D01*
X119314683Y-75746838D01*
X119098559Y-75885910D01*
X118953569Y-76098110D01*
X118902560Y-76350000D01*
X118902560Y-78050000D01*
X118946838Y-78285317D01*
X119085910Y-78501441D01*
X119298110Y-78646431D01*
X119550000Y-78697440D01*
X121250000Y-78697440D01*
X121485317Y-78653162D01*
X121701441Y-78514090D01*
X121846431Y-78301890D01*
X121859977Y-78235000D01*
X124337641Y-78235000D01*
X124741703Y-78504986D01*
X124524866Y-78607611D01*
X124148959Y-79022577D01*
X123988096Y-79410961D01*
X124110085Y-79633000D01*
X125253000Y-79633000D01*
X125253000Y-79613000D01*
X125507000Y-79613000D01*
X125507000Y-79633000D01*
X126649915Y-79633000D01*
X126771904Y-79410961D01*
X126611041Y-79022577D01*
X126235134Y-78607611D01*
X126018297Y-78504986D01*
X126422811Y-78234698D01*
X126733880Y-77769151D01*
X126843113Y-77220000D01*
X126733880Y-76670849D01*
X126422811Y-76205302D01*
X126040725Y-75950000D01*
X126422811Y-75694698D01*
X126733880Y-75229151D01*
X126843113Y-74680000D01*
X126733880Y-74130849D01*
X126422811Y-73665302D01*
X126040725Y-73410000D01*
X126422811Y-73154698D01*
X126733880Y-72689151D01*
X126843113Y-72140000D01*
X126733880Y-71590849D01*
X126422811Y-71125302D01*
X126040725Y-70870000D01*
X126392427Y-70635000D01*
X126399995Y-70635000D01*
X126400000Y-70635001D01*
X126796077Y-70556215D01*
X127131856Y-70331856D01*
X128131853Y-69331858D01*
X128131856Y-69331856D01*
X128356215Y-68996077D01*
X128362397Y-68965000D01*
X128435001Y-68600000D01*
X128435000Y-68599995D01*
X128435000Y-63403222D01*
X128435317Y-63403162D01*
X128651441Y-63264090D01*
X128796431Y-63051890D01*
X128847440Y-62800000D01*
X128847440Y-60800000D01*
X128803162Y-60564683D01*
X128664090Y-60348559D01*
X128451890Y-60203569D01*
X128200000Y-60152560D01*
X126600000Y-60152560D01*
X126364683Y-60196838D01*
X126148559Y-60335910D01*
X126003569Y-60548110D01*
X125952560Y-60800000D01*
X125952560Y-62800000D01*
X125996838Y-63035317D01*
X126135910Y-63251441D01*
X126348110Y-63396431D01*
X126365000Y-63399851D01*
X126365000Y-66006674D01*
X125957264Y-65734233D01*
X125408113Y-65625000D01*
X125351887Y-65625000D01*
X124802736Y-65734233D01*
X124337189Y-66045302D01*
X124026120Y-66510849D01*
X123916887Y-67060000D01*
X123977555Y-67365000D01*
X116935000Y-67365000D01*
X116935000Y-62528712D01*
X118331853Y-61131858D01*
X118331856Y-61131856D01*
X118553594Y-60800000D01*
X118556215Y-60796078D01*
X118635000Y-60400000D01*
X118635000Y-58085750D01*
X125965000Y-58085750D01*
X125965000Y-58926309D01*
X126061673Y-59159698D01*
X126240301Y-59338327D01*
X126473690Y-59435000D01*
X127114250Y-59435000D01*
X127273000Y-59276250D01*
X127273000Y-57927000D01*
X127527000Y-57927000D01*
X127527000Y-59276250D01*
X127685750Y-59435000D01*
X128326310Y-59435000D01*
X128559699Y-59338327D01*
X128738327Y-59159698D01*
X128835000Y-58926309D01*
X128835000Y-58085750D01*
X128676250Y-57927000D01*
X127527000Y-57927000D01*
X127273000Y-57927000D01*
X126123750Y-57927000D01*
X125965000Y-58085750D01*
X118635000Y-58085750D01*
X118635000Y-56673691D01*
X125965000Y-56673691D01*
X125965000Y-57514250D01*
X126123750Y-57673000D01*
X127273000Y-57673000D01*
X127273000Y-56323750D01*
X127527000Y-56323750D01*
X127527000Y-57673000D01*
X128676250Y-57673000D01*
X128835000Y-57514250D01*
X128835000Y-56673691D01*
X128738327Y-56440302D01*
X128559699Y-56261673D01*
X128326310Y-56165000D01*
X127685750Y-56165000D01*
X127527000Y-56323750D01*
X127273000Y-56323750D01*
X127114250Y-56165000D01*
X126473690Y-56165000D01*
X126240301Y-56261673D01*
X126061673Y-56440302D01*
X125965000Y-56673691D01*
X118635000Y-56673691D01*
X118635000Y-51400000D01*
X123916887Y-51400000D01*
X124026120Y-51949151D01*
X124337189Y-52414698D01*
X124802736Y-52725767D01*
X125351887Y-52835000D01*
X125408113Y-52835000D01*
X125957264Y-52725767D01*
X126422811Y-52414698D01*
X126733880Y-51949151D01*
X126843113Y-51400000D01*
X126733880Y-50850849D01*
X126422811Y-50385302D01*
X126018297Y-50115014D01*
X126235134Y-50012389D01*
X126611041Y-49597423D01*
X126771904Y-49209039D01*
X126649915Y-48987000D01*
X125507000Y-48987000D01*
X125507000Y-49007000D01*
X125253000Y-49007000D01*
X125253000Y-48987000D01*
X124110085Y-48987000D01*
X123988096Y-49209039D01*
X124148959Y-49597423D01*
X124524866Y-50012389D01*
X124741703Y-50115014D01*
X124337189Y-50385302D01*
X124026120Y-50850849D01*
X123916887Y-51400000D01*
X118635000Y-51400000D01*
X118635000Y-40628712D01*
X119528711Y-39735000D01*
X124367573Y-39735000D01*
X124719275Y-39970000D01*
X124337189Y-40225302D01*
X124230482Y-40385000D01*
X121489206Y-40385000D01*
X121479147Y-40369946D01*
X120997378Y-40048039D01*
X120429093Y-39935000D01*
X120370907Y-39935000D01*
X119802622Y-40048039D01*
X119320853Y-40369946D01*
X118998946Y-40851715D01*
X118885907Y-41420000D01*
X118998946Y-41988285D01*
X119320853Y-42470054D01*
X119650026Y-42690000D01*
X119320853Y-42909946D01*
X118998946Y-43391715D01*
X118885907Y-43960000D01*
X118998946Y-44528285D01*
X119320853Y-45010054D01*
X119362452Y-45037850D01*
X119314683Y-45046838D01*
X119098559Y-45185910D01*
X118953569Y-45398110D01*
X118902560Y-45650000D01*
X118902560Y-47350000D01*
X118946838Y-47585317D01*
X119085910Y-47801441D01*
X119298110Y-47946431D01*
X119550000Y-47997440D01*
X121250000Y-47997440D01*
X121485317Y-47953162D01*
X121701441Y-47814090D01*
X121846431Y-47601890D01*
X121896427Y-47355000D01*
X124367573Y-47355000D01*
X124741703Y-47604986D01*
X124524866Y-47707611D01*
X124148959Y-48122577D01*
X123988096Y-48510961D01*
X124110085Y-48733000D01*
X125253000Y-48733000D01*
X125253000Y-48713000D01*
X125507000Y-48713000D01*
X125507000Y-48733000D01*
X126649915Y-48733000D01*
X126771904Y-48510961D01*
X126611041Y-48122577D01*
X126235134Y-47707611D01*
X126018297Y-47604986D01*
X126422811Y-47334698D01*
X126733880Y-46869151D01*
X126843113Y-46320000D01*
X126733880Y-45770849D01*
X126422811Y-45305302D01*
X126040725Y-45050000D01*
X126422811Y-44794698D01*
X126733880Y-44329151D01*
X126843113Y-43780000D01*
X126733880Y-43230849D01*
X126422811Y-42765302D01*
X126040725Y-42510000D01*
X126422811Y-42254698D01*
X126733880Y-41789151D01*
X126843113Y-41240000D01*
X126733880Y-40690849D01*
X126422811Y-40225302D01*
X126040725Y-39970000D01*
X126422811Y-39714698D01*
X126733880Y-39249151D01*
X126843113Y-38700000D01*
X126733880Y-38150849D01*
X126422811Y-37685302D01*
X126040725Y-37430000D01*
X126422811Y-37174698D01*
X126733880Y-36709151D01*
X126843113Y-36160000D01*
X126733880Y-35610849D01*
X126422811Y-35145302D01*
X125957264Y-34834233D01*
X125408113Y-34725000D01*
X125351887Y-34725000D01*
X124802736Y-34834233D01*
X124337189Y-35145302D01*
X124026120Y-35610849D01*
X123916887Y-36160000D01*
X124026120Y-36709151D01*
X124133364Y-36869652D01*
X123563621Y-36299909D01*
X123596431Y-36251890D01*
X123647440Y-36000000D01*
X123647440Y-34000000D01*
X123603162Y-33764683D01*
X123464090Y-33548559D01*
X123251890Y-33403569D01*
X123000000Y-33352560D01*
X121400000Y-33352560D01*
X121164683Y-33396838D01*
X120948559Y-33535910D01*
X120803569Y-33748110D01*
X120752560Y-34000000D01*
X120752560Y-36000000D01*
X120796838Y-36235317D01*
X120935910Y-36451441D01*
X121148110Y-36596431D01*
X121206421Y-36608239D01*
X121243785Y-36796077D01*
X121468144Y-37131856D01*
X122001288Y-37665000D01*
X119100000Y-37665000D01*
X118703922Y-37743785D01*
X118569429Y-37833651D01*
X118368144Y-37968144D01*
X118368142Y-37968147D01*
X116868144Y-39468144D01*
X116643785Y-39803923D01*
X116564999Y-40200000D01*
X116565000Y-40200005D01*
X116565000Y-51001288D01*
X112711152Y-47147440D01*
X113300000Y-47147440D01*
X113535317Y-47103162D01*
X113751441Y-46964090D01*
X113896431Y-46751890D01*
X113947440Y-46500000D01*
X113947440Y-44900000D01*
X113903162Y-44664683D01*
X113764090Y-44448559D01*
X113551890Y-44303569D01*
X113300000Y-44252560D01*
X111700000Y-44252560D01*
X111464683Y-44296838D01*
X111248559Y-44435910D01*
X111103569Y-44648110D01*
X111072185Y-44803089D01*
X110974698Y-44657189D01*
X110509151Y-44346120D01*
X109960000Y-44236887D01*
X109410849Y-44346120D01*
X108945302Y-44657189D01*
X108690000Y-45039275D01*
X108434698Y-44657189D01*
X107969151Y-44346120D01*
X107420000Y-44236887D01*
X106870849Y-44346120D01*
X106405302Y-44657189D01*
X106135014Y-45061703D01*
X106032389Y-44844866D01*
X105617423Y-44468959D01*
X105229039Y-44308096D01*
X105007000Y-44430085D01*
X105007000Y-45573000D01*
X105027000Y-45573000D01*
X105027000Y-45827000D01*
X105007000Y-45827000D01*
X105007000Y-46969915D01*
X105229039Y-47091904D01*
X105617423Y-46931041D01*
X106032389Y-46555134D01*
X106135014Y-46338297D01*
X106405302Y-46742811D01*
X106870849Y-47053880D01*
X107420000Y-47163113D01*
X107969151Y-47053880D01*
X108434698Y-46742811D01*
X108690000Y-46360725D01*
X108945302Y-46742811D01*
X109410849Y-47053880D01*
X109759524Y-47123236D01*
X115265000Y-52628712D01*
X115265000Y-53771289D01*
X111633728Y-57402560D01*
X110600000Y-57402560D01*
X110364683Y-57446838D01*
X110148559Y-57585910D01*
X110003569Y-57798110D01*
X109952560Y-58050000D01*
X109952560Y-59750000D01*
X109996838Y-59985317D01*
X110135910Y-60201441D01*
X110348110Y-60346431D01*
X110565000Y-60390352D01*
X110565000Y-61852560D01*
X110500000Y-61852560D01*
X110264683Y-61896838D01*
X110048559Y-62035910D01*
X109903569Y-62248110D01*
X109852560Y-62500000D01*
X109852560Y-64100000D01*
X109896838Y-64335317D01*
X110035910Y-64551441D01*
X110248110Y-64696431D01*
X110500000Y-64747440D01*
X112500000Y-64747440D01*
X112735317Y-64703162D01*
X112951441Y-64564090D01*
X113096431Y-64351890D01*
X113147440Y-64100000D01*
X113147440Y-62500000D01*
X113103162Y-62264683D01*
X112964090Y-62048559D01*
X112751890Y-61903569D01*
X112635000Y-61879898D01*
X112635000Y-60390854D01*
X112835317Y-60353162D01*
X113051441Y-60214090D01*
X113196431Y-60001890D01*
X113247440Y-59750000D01*
X113247440Y-58716272D01*
X116565000Y-55398711D01*
X116565000Y-59971289D01*
X115101288Y-61435000D01*
X115068144Y-61468144D01*
X114843785Y-61803923D01*
X114764999Y-62200000D01*
X114765000Y-62200005D01*
X114765000Y-62400000D01*
X114843785Y-62796077D01*
X114865000Y-62827828D01*
X114865000Y-68071289D01*
X109971288Y-72965000D01*
X109897440Y-72965000D01*
X109897440Y-71000000D01*
X109853162Y-70764683D01*
X109714090Y-70548559D01*
X109501890Y-70403569D01*
X109435000Y-70390023D01*
X109435000Y-67527828D01*
X109456215Y-67496077D01*
X109535000Y-67100000D01*
X109535000Y-64300005D01*
X109535001Y-64300000D01*
X109456215Y-63903923D01*
X109231856Y-63568144D01*
X109231853Y-63568142D01*
X109147440Y-63483729D01*
X109147440Y-62500000D01*
X109103162Y-62264683D01*
X108964090Y-62048559D01*
X108751890Y-61903569D01*
X108535000Y-61859648D01*
X108535000Y-60397440D01*
X108600000Y-60397440D01*
X108835317Y-60353162D01*
X109051441Y-60214090D01*
X109196431Y-60001890D01*
X109247440Y-59750000D01*
X109247440Y-58050000D01*
X109203162Y-57814683D01*
X109064090Y-57598559D01*
X108851890Y-57453569D01*
X108635000Y-57409648D01*
X108635000Y-54063038D01*
X108690000Y-53980725D01*
X108945302Y-54362811D01*
X109410849Y-54673880D01*
X109960000Y-54783113D01*
X110509151Y-54673880D01*
X110974698Y-54362811D01*
X111230000Y-53980725D01*
X111485302Y-54362811D01*
X111950849Y-54673880D01*
X112500000Y-54783113D01*
X113049151Y-54673880D01*
X113514698Y-54362811D01*
X113825767Y-53897264D01*
X113935000Y-53348113D01*
X113935000Y-53291887D01*
X113825767Y-52742736D01*
X113514698Y-52277189D01*
X113049151Y-51966120D01*
X112500000Y-51856887D01*
X111950849Y-51966120D01*
X111485302Y-52277189D01*
X111230000Y-52659275D01*
X110974698Y-52277189D01*
X110509151Y-51966120D01*
X109960000Y-51856887D01*
X109410849Y-51966120D01*
X108945302Y-52277189D01*
X108690000Y-52659275D01*
X108434698Y-52277189D01*
X107969151Y-51966120D01*
X107420000Y-51856887D01*
X106870849Y-51966120D01*
X106405302Y-52277189D01*
X106150000Y-52659275D01*
X105894698Y-52277189D01*
X105429151Y-51966120D01*
X104880000Y-51856887D01*
X104330849Y-51966120D01*
X103865302Y-52277189D01*
X103554233Y-52742736D01*
X103445000Y-53291887D01*
X103445000Y-53348113D01*
X103554233Y-53897264D01*
X103865302Y-54362811D01*
X104330849Y-54673880D01*
X104880000Y-54783113D01*
X105429151Y-54673880D01*
X105894698Y-54362811D01*
X106150000Y-53980725D01*
X106405302Y-54362811D01*
X106565000Y-54469518D01*
X106565000Y-57409146D01*
X106364683Y-57446838D01*
X106148559Y-57585910D01*
X106003569Y-57798110D01*
X105952560Y-58050000D01*
X105952560Y-59750000D01*
X105996838Y-59985317D01*
X106135910Y-60201441D01*
X106348110Y-60346431D01*
X106465000Y-60370102D01*
X106465000Y-61859146D01*
X106264683Y-61896838D01*
X106048559Y-62035910D01*
X105903569Y-62248110D01*
X105895958Y-62285695D01*
X105603922Y-62343785D01*
X105469429Y-62433651D01*
X105268144Y-62568144D01*
X105268142Y-62568147D01*
X103468144Y-64368144D01*
X103243785Y-64703923D01*
X103164999Y-65100000D01*
X103165000Y-65100005D01*
X103165000Y-65387370D01*
X103114683Y-65396838D01*
X102898559Y-65535910D01*
X102753569Y-65748110D01*
X102702560Y-66000000D01*
X102702560Y-68000000D01*
X102746838Y-68235317D01*
X102885910Y-68451441D01*
X103098110Y-68596431D01*
X103350000Y-68647440D01*
X105050000Y-68647440D01*
X105285317Y-68603162D01*
X105501441Y-68464090D01*
X105646431Y-68251890D01*
X105697440Y-68000000D01*
X105697440Y-66000000D01*
X105653162Y-65764683D01*
X105514090Y-65548559D01*
X105336497Y-65427215D01*
X106140682Y-64623029D01*
X106248110Y-64696431D01*
X106500000Y-64747440D01*
X107465000Y-64747440D01*
X107465000Y-66172172D01*
X107443785Y-66203923D01*
X107364999Y-66600000D01*
X107365000Y-66600005D01*
X107365000Y-70387370D01*
X107314683Y-70396838D01*
X107098559Y-70535910D01*
X106953569Y-70748110D01*
X106902560Y-71000000D01*
X106902560Y-72965000D01*
X106400005Y-72965000D01*
X106400000Y-72964999D01*
X106003923Y-73043785D01*
X105668144Y-73268144D01*
X105668142Y-73268147D01*
X105324884Y-73611405D01*
X105434785Y-73346734D01*
X105435214Y-72855421D01*
X105321391Y-72579949D01*
X105501441Y-72464090D01*
X105646431Y-72251890D01*
X105697440Y-72000000D01*
X105697440Y-70000000D01*
X105653162Y-69764683D01*
X105514090Y-69548559D01*
X105301890Y-69403569D01*
X105050000Y-69352560D01*
X103350000Y-69352560D01*
X103114683Y-69396838D01*
X102898559Y-69535910D01*
X102753569Y-69748110D01*
X102709648Y-69965000D01*
X102241797Y-69965000D01*
X102151890Y-69903569D01*
X101900000Y-69852560D01*
X99900000Y-69852560D01*
X99664683Y-69896838D01*
X99448559Y-70035910D01*
X99303569Y-70248110D01*
X99252560Y-70500000D01*
X99252560Y-72100000D01*
X99296838Y-72335317D01*
X99435910Y-72551441D01*
X99648110Y-72696431D01*
X99900000Y-72747440D01*
X101900000Y-72747440D01*
X102135317Y-72703162D01*
X102351441Y-72564090D01*
X102496431Y-72351890D01*
X102547440Y-72100000D01*
X102547440Y-72035000D01*
X102709146Y-72035000D01*
X102746838Y-72235317D01*
X102885910Y-72451441D01*
X103077663Y-72582460D01*
X102965215Y-72853266D01*
X102964786Y-73344579D01*
X103152408Y-73798657D01*
X103499515Y-74146371D01*
X103953266Y-74334785D01*
X104444579Y-74335214D01*
X104711270Y-74225019D01*
X96668144Y-82268144D01*
X96443785Y-82603923D01*
X96431636Y-82665000D01*
X89862630Y-82665000D01*
X89853162Y-82614683D01*
X89714090Y-82398559D01*
X89501890Y-82253569D01*
X89434459Y-82239914D01*
X89479147Y-82210054D01*
X89489206Y-82195000D01*
X89839995Y-82195000D01*
X89840000Y-82195001D01*
X90236077Y-82116215D01*
X90571856Y-81891856D01*
X91781274Y-80682437D01*
X91948110Y-80796431D01*
X92200000Y-80847440D01*
X93800000Y-80847440D01*
X94035317Y-80803162D01*
X94251441Y-80664090D01*
X94396431Y-80451890D01*
X94440352Y-80235000D01*
X95309146Y-80235000D01*
X95346838Y-80435317D01*
X95485910Y-80651441D01*
X95698110Y-80796431D01*
X95950000Y-80847440D01*
X97650000Y-80847440D01*
X97885317Y-80803162D01*
X98101441Y-80664090D01*
X98246431Y-80451890D01*
X98297440Y-80200000D01*
X98297440Y-78200000D01*
X98253162Y-77964683D01*
X98114090Y-77748559D01*
X97901890Y-77603569D01*
X97650000Y-77552560D01*
X95950000Y-77552560D01*
X95714683Y-77596838D01*
X95498559Y-77735910D01*
X95353569Y-77948110D01*
X95309648Y-78165000D01*
X94440854Y-78165000D01*
X94403162Y-77964683D01*
X94264090Y-77748559D01*
X94051890Y-77603569D01*
X93800000Y-77552560D01*
X92200000Y-77552560D01*
X91964683Y-77596838D01*
X91748559Y-77735910D01*
X91603569Y-77948110D01*
X91552560Y-78200000D01*
X91552560Y-78214219D01*
X91403923Y-78243785D01*
X91068144Y-78468144D01*
X91068142Y-78468147D01*
X89447493Y-80088795D01*
X89138447Y-79882298D01*
X89281358Y-79815183D01*
X89671645Y-79386924D01*
X89841476Y-78976890D01*
X89720155Y-78747000D01*
X88527000Y-78747000D01*
X88527000Y-78767000D01*
X88273000Y-78767000D01*
X88273000Y-78747000D01*
X88253000Y-78747000D01*
X88253000Y-78493000D01*
X88273000Y-78493000D01*
X88273000Y-78473000D01*
X88527000Y-78473000D01*
X88527000Y-78493000D01*
X89720155Y-78493000D01*
X89841476Y-78263110D01*
X89671645Y-77853076D01*
X89281358Y-77424817D01*
X89138447Y-77357702D01*
X89479147Y-77130054D01*
X89801054Y-76648285D01*
X89914093Y-76080000D01*
X89801054Y-75511715D01*
X89783705Y-75485750D01*
X91565000Y-75485750D01*
X91565000Y-76326309D01*
X91661673Y-76559698D01*
X91840301Y-76738327D01*
X92073690Y-76835000D01*
X92714250Y-76835000D01*
X92873000Y-76676250D01*
X92873000Y-75327000D01*
X93127000Y-75327000D01*
X93127000Y-76676250D01*
X93285750Y-76835000D01*
X93926310Y-76835000D01*
X94159699Y-76738327D01*
X94338327Y-76559698D01*
X94435000Y-76326309D01*
X94435000Y-75485750D01*
X95315000Y-75485750D01*
X95315000Y-76326309D01*
X95411673Y-76559698D01*
X95590301Y-76738327D01*
X95823690Y-76835000D01*
X96514250Y-76835000D01*
X96673000Y-76676250D01*
X96673000Y-75327000D01*
X96927000Y-75327000D01*
X96927000Y-76676250D01*
X97085750Y-76835000D01*
X97776310Y-76835000D01*
X98009699Y-76738327D01*
X98188327Y-76559698D01*
X98285000Y-76326309D01*
X98285000Y-75485750D01*
X98126250Y-75327000D01*
X96927000Y-75327000D01*
X96673000Y-75327000D01*
X95473750Y-75327000D01*
X95315000Y-75485750D01*
X94435000Y-75485750D01*
X94276250Y-75327000D01*
X93127000Y-75327000D01*
X92873000Y-75327000D01*
X91723750Y-75327000D01*
X91565000Y-75485750D01*
X89783705Y-75485750D01*
X89479147Y-75029946D01*
X89435000Y-75000448D01*
X89435000Y-74073691D01*
X91565000Y-74073691D01*
X91565000Y-74914250D01*
X91723750Y-75073000D01*
X92873000Y-75073000D01*
X92873000Y-73723750D01*
X93127000Y-73723750D01*
X93127000Y-75073000D01*
X94276250Y-75073000D01*
X94435000Y-74914250D01*
X94435000Y-74073691D01*
X95315000Y-74073691D01*
X95315000Y-74914250D01*
X95473750Y-75073000D01*
X96673000Y-75073000D01*
X96673000Y-73723750D01*
X96927000Y-73723750D01*
X96927000Y-75073000D01*
X98126250Y-75073000D01*
X98285000Y-74914250D01*
X98285000Y-74073691D01*
X98188327Y-73840302D01*
X98009699Y-73661673D01*
X97776310Y-73565000D01*
X97085750Y-73565000D01*
X96927000Y-73723750D01*
X96673000Y-73723750D01*
X96514250Y-73565000D01*
X95823690Y-73565000D01*
X95590301Y-73661673D01*
X95411673Y-73840302D01*
X95315000Y-74073691D01*
X94435000Y-74073691D01*
X94338327Y-73840302D01*
X94159699Y-73661673D01*
X93926310Y-73565000D01*
X93285750Y-73565000D01*
X93127000Y-73723750D01*
X92873000Y-73723750D01*
X92714250Y-73565000D01*
X92073690Y-73565000D01*
X91840301Y-73661673D01*
X91661673Y-73840302D01*
X91565000Y-74073691D01*
X89435000Y-74073691D01*
X89435000Y-71585750D01*
X95265000Y-71585750D01*
X95265000Y-72226310D01*
X95361673Y-72459699D01*
X95540302Y-72638327D01*
X95773691Y-72735000D01*
X96614250Y-72735000D01*
X96773000Y-72576250D01*
X96773000Y-71427000D01*
X97027000Y-71427000D01*
X97027000Y-72576250D01*
X97185750Y-72735000D01*
X98026309Y-72735000D01*
X98259698Y-72638327D01*
X98438327Y-72459699D01*
X98535000Y-72226310D01*
X98535000Y-71585750D01*
X98376250Y-71427000D01*
X97027000Y-71427000D01*
X96773000Y-71427000D01*
X95423750Y-71427000D01*
X95265000Y-71585750D01*
X89435000Y-71585750D01*
X89435000Y-70373690D01*
X95265000Y-70373690D01*
X95265000Y-71014250D01*
X95423750Y-71173000D01*
X96773000Y-71173000D01*
X96773000Y-70023750D01*
X97027000Y-70023750D01*
X97027000Y-71173000D01*
X98376250Y-71173000D01*
X98535000Y-71014250D01*
X98535000Y-70373690D01*
X98438327Y-70140301D01*
X98259698Y-69961673D01*
X98026309Y-69865000D01*
X97185750Y-69865000D01*
X97027000Y-70023750D01*
X96773000Y-70023750D01*
X96614250Y-69865000D01*
X95773691Y-69865000D01*
X95540302Y-69961673D01*
X95361673Y-70140301D01*
X95265000Y-70373690D01*
X89435000Y-70373690D01*
X89435000Y-68329163D01*
X89485409Y-68295481D01*
X89818155Y-67797491D01*
X89935000Y-67210072D01*
X89935000Y-67149928D01*
X89825613Y-66600000D01*
X93052560Y-66600000D01*
X93052560Y-67800000D01*
X93096838Y-68035317D01*
X93235910Y-68251441D01*
X93448110Y-68396431D01*
X93700000Y-68447440D01*
X94900000Y-68447440D01*
X95135317Y-68403162D01*
X95351441Y-68264090D01*
X95446993Y-68124245D01*
X95501178Y-68178430D01*
X95616871Y-68062737D01*
X95666383Y-68288164D01*
X96131036Y-68447807D01*
X96621413Y-68417482D01*
X96933617Y-68288164D01*
X96983130Y-68062735D01*
X96300000Y-67379605D01*
X96285858Y-67393748D01*
X96106253Y-67214143D01*
X96120395Y-67200000D01*
X96479605Y-67200000D01*
X97162735Y-67883130D01*
X97388164Y-67833617D01*
X97547807Y-67368964D01*
X97517482Y-66878587D01*
X97388164Y-66566383D01*
X97162735Y-66516870D01*
X96479605Y-67200000D01*
X96120395Y-67200000D01*
X96106253Y-67185858D01*
X96285858Y-67006253D01*
X96300000Y-67020395D01*
X96983130Y-66337265D01*
X96933617Y-66111836D01*
X96468964Y-65952193D01*
X95978587Y-65982518D01*
X95666383Y-66111836D01*
X95616871Y-66337263D01*
X95501178Y-66221570D01*
X95446351Y-66276397D01*
X95364090Y-66148559D01*
X95151890Y-66003569D01*
X94900000Y-65952560D01*
X93700000Y-65952560D01*
X93464683Y-65996838D01*
X93248559Y-66135910D01*
X93103569Y-66348110D01*
X93052560Y-66600000D01*
X89825613Y-66600000D01*
X89818155Y-66562509D01*
X89485409Y-66064519D01*
X89247418Y-65905499D01*
X89637966Y-65547576D01*
X89891046Y-65004742D01*
X89770997Y-64767000D01*
X88527000Y-64767000D01*
X88527000Y-64787000D01*
X88273000Y-64787000D01*
X88273000Y-64767000D01*
X88253000Y-64767000D01*
X88253000Y-64513000D01*
X88273000Y-64513000D01*
X88273000Y-64493000D01*
X88527000Y-64493000D01*
X88527000Y-64513000D01*
X89770997Y-64513000D01*
X89891046Y-64275258D01*
X89637966Y-63732424D01*
X89503462Y-63609156D01*
X89535317Y-63603162D01*
X89751441Y-63464090D01*
X89896431Y-63251890D01*
X89947440Y-63000000D01*
X89947440Y-61200000D01*
X89903162Y-60964683D01*
X89764090Y-60748559D01*
X89551890Y-60603569D01*
X89435000Y-60579898D01*
X89435000Y-56024300D01*
X89933549Y-55526621D01*
X90209685Y-54861611D01*
X90210314Y-54141548D01*
X89935338Y-53476057D01*
X89435000Y-52974845D01*
X89435000Y-51024300D01*
X89933549Y-50526621D01*
X90209685Y-49861611D01*
X90210314Y-49141548D01*
X89935338Y-48476057D01*
X89426621Y-47966451D01*
X88761611Y-47690315D01*
X88041548Y-47689686D01*
X87376057Y-47964662D01*
X86866451Y-48473379D01*
X86590315Y-49138389D01*
X86589686Y-49858452D01*
X86864662Y-50523943D01*
X87365000Y-51025155D01*
X87365000Y-52975700D01*
X86866451Y-53473379D01*
X86590315Y-54138389D01*
X86589686Y-54858452D01*
X86864662Y-55523943D01*
X87365000Y-56025155D01*
X87365000Y-60577962D01*
X87264683Y-60596838D01*
X87048559Y-60735910D01*
X86903569Y-60948110D01*
X86852560Y-61200000D01*
X86852560Y-61883729D01*
X83668144Y-65068144D01*
X83443785Y-65403923D01*
X83364999Y-65800000D01*
X83365000Y-65800005D01*
X83365000Y-70587370D01*
X83314683Y-70596838D01*
X83098559Y-70735910D01*
X82953569Y-70948110D01*
X82902560Y-71200000D01*
X80110000Y-71200000D01*
X80110000Y-46049041D01*
X103488086Y-46049041D01*
X103727611Y-46555134D01*
X104142577Y-46931041D01*
X104530961Y-47091904D01*
X104753000Y-46969915D01*
X104753000Y-45827000D01*
X103609371Y-45827000D01*
X103488086Y-46049041D01*
X80110000Y-46049041D01*
X80110000Y-45350959D01*
X103488086Y-45350959D01*
X103609371Y-45573000D01*
X104753000Y-45573000D01*
X104753000Y-44430085D01*
X104530961Y-44308096D01*
X104142577Y-44468959D01*
X103727611Y-44844866D01*
X103488086Y-45350959D01*
X80110000Y-45350959D01*
X80110000Y-24319823D01*
X84764630Y-24319823D01*
X85316820Y-25656225D01*
X86338397Y-26679586D01*
X86765000Y-26856727D01*
X86765000Y-33717700D01*
X86590315Y-34138389D01*
X86589686Y-34858452D01*
X86765000Y-35282743D01*
X86765000Y-38717700D01*
X86590315Y-39138389D01*
X86589686Y-39858452D01*
X86864662Y-40523943D01*
X87373379Y-41033549D01*
X88038389Y-41309685D01*
X88758452Y-41310314D01*
X89423943Y-41035338D01*
X89933549Y-40526621D01*
X90209685Y-39861611D01*
X90210314Y-39141548D01*
X90035000Y-38717257D01*
X90035000Y-35282300D01*
X90209685Y-34861611D01*
X90210314Y-34141548D01*
X90035000Y-33717257D01*
X90035000Y-27547240D01*
X95752560Y-33264799D01*
X95752560Y-35200000D01*
X95796838Y-35435317D01*
X95935910Y-35651441D01*
X96148110Y-35796431D01*
X96400000Y-35847440D01*
X98800000Y-35847440D01*
X99035317Y-35803162D01*
X99251441Y-35664090D01*
X99396431Y-35451890D01*
X99447440Y-35200000D01*
X99447440Y-32800000D01*
X99403162Y-32564683D01*
X99264090Y-32348559D01*
X99126503Y-32254550D01*
X99110543Y-32174312D01*
X98933332Y-31909097D01*
X98756120Y-31643880D01*
X98756117Y-31643878D01*
X92247240Y-25135000D01*
X97762189Y-25135000D01*
X98147242Y-25520726D01*
X99023513Y-25884585D01*
X99972325Y-25885413D01*
X100849229Y-25523084D01*
X101520726Y-24852758D01*
X101884585Y-23976487D01*
X101885413Y-23027675D01*
X101734900Y-22663403D01*
X102264682Y-22663403D01*
X102543455Y-23338086D01*
X103059199Y-23854730D01*
X103733395Y-24134681D01*
X104463403Y-24135318D01*
X105138086Y-23856545D01*
X105654730Y-23340801D01*
X105934681Y-22666605D01*
X105935318Y-21936597D01*
X105656545Y-21261914D01*
X105140801Y-20745270D01*
X104466605Y-20465319D01*
X103736597Y-20464682D01*
X103061914Y-20743455D01*
X102545270Y-21259199D01*
X102265319Y-21933395D01*
X102264682Y-22663403D01*
X101734900Y-22663403D01*
X101523084Y-22150771D01*
X100852758Y-21479274D01*
X99976487Y-21115415D01*
X99027675Y-21114587D01*
X98150771Y-21476916D01*
X97762009Y-21865000D01*
X91615907Y-21865000D01*
X91483180Y-21543775D01*
X90461603Y-20520414D01*
X89126166Y-19965892D01*
X87680177Y-19964630D01*
X86343775Y-20516820D01*
X85320414Y-21538397D01*
X84765892Y-22873834D01*
X84764630Y-24319823D01*
X80110000Y-24319823D01*
X80110000Y-16310000D01*
X129673000Y-16310000D01*
X129673000Y-25365000D01*
X129673000Y-25365000D01*
G37*
X129673000Y-25365000D02*
X117907864Y-25365000D01*
X118258174Y-25295319D01*
X118853491Y-24897541D01*
X119251269Y-24302224D01*
X119390950Y-23600000D01*
X119251269Y-22897776D01*
X118853491Y-22302459D01*
X118258174Y-21904681D01*
X117555950Y-21765000D01*
X117484050Y-21765000D01*
X116781826Y-21904681D01*
X116691552Y-21965000D01*
X110537637Y-21965000D01*
X110052758Y-21479274D01*
X109176487Y-21115415D01*
X108227675Y-21114587D01*
X107350771Y-21476916D01*
X106679274Y-22147242D01*
X106315415Y-23023513D01*
X106314587Y-23972325D01*
X106676916Y-24849229D01*
X107347242Y-25520726D01*
X108223513Y-25884585D01*
X109172325Y-25885413D01*
X110049229Y-25523084D01*
X110337816Y-25235000D01*
X116691552Y-25235000D01*
X116781826Y-25295319D01*
X117132136Y-25365000D01*
X112000005Y-25365000D01*
X112000000Y-25364999D01*
X111374313Y-25489457D01*
X110843880Y-25843880D01*
X110843878Y-25843883D01*
X104372732Y-32315028D01*
X104061914Y-32443455D01*
X103545270Y-32959199D01*
X103265319Y-33633395D01*
X103264682Y-34363403D01*
X103543455Y-35038086D01*
X104059199Y-35554730D01*
X104733395Y-35834681D01*
X105463403Y-35835318D01*
X106138086Y-35556545D01*
X106504979Y-35190291D01*
X106556120Y-35156120D01*
X106589993Y-35105425D01*
X106654730Y-35040801D01*
X106690118Y-34955577D01*
X106910543Y-34625687D01*
X106966160Y-34346079D01*
X110026489Y-31285750D01*
X120765000Y-31285750D01*
X120765000Y-32126309D01*
X120861673Y-32359698D01*
X121040301Y-32538327D01*
X121273690Y-32635000D01*
X121914250Y-32635000D01*
X122073000Y-32476250D01*
X122073000Y-31127000D01*
X122327000Y-31127000D01*
X122327000Y-32476250D01*
X122485750Y-32635000D01*
X123126310Y-32635000D01*
X123359699Y-32538327D01*
X123538327Y-32359698D01*
X123635000Y-32126309D01*
X123635000Y-31285750D01*
X123476250Y-31127000D01*
X122327000Y-31127000D01*
X122073000Y-31127000D01*
X120923750Y-31127000D01*
X120765000Y-31285750D01*
X110026489Y-31285750D01*
X111438548Y-29873691D01*
X120765000Y-29873691D01*
X120765000Y-30714250D01*
X120923750Y-30873000D01*
X122073000Y-30873000D01*
X122073000Y-29523750D01*
X122327000Y-29523750D01*
X122327000Y-30873000D01*
X123476250Y-30873000D01*
X123635000Y-30714250D01*
X123635000Y-29873691D01*
X123538327Y-29640302D01*
X123359699Y-29461673D01*
X123126310Y-29365000D01*
X122485750Y-29365000D01*
X122327000Y-29523750D01*
X122073000Y-29523750D01*
X121914250Y-29365000D01*
X121273690Y-29365000D01*
X121040301Y-29461673D01*
X120861673Y-29640302D01*
X120765000Y-29873691D01*
X111438548Y-29873691D01*
X112677239Y-28635000D01*
X129673000Y-28635000D01*
X129673000Y-48579777D01*
X129664999Y-48620000D01*
X129665000Y-48620005D01*
X129665000Y-75799995D01*
X129664999Y-75800000D01*
X129665000Y-75800005D01*
X129665000Y-106919995D01*
X129664999Y-106920000D01*
X129673000Y-106960223D01*
X129673000Y-123090000D01*
X80110000Y-123090000D01*
X80110000Y-91440000D01*
X86885907Y-91440000D01*
X86998946Y-92008285D01*
X87320853Y-92490054D01*
X87802622Y-92811961D01*
X88370907Y-92925000D01*
X88429093Y-92925000D01*
X88997378Y-92811961D01*
X89479147Y-92490054D01*
X89801054Y-92008285D01*
X89914093Y-91440000D01*
X89801054Y-90871715D01*
X89479147Y-90389946D01*
X89437548Y-90362150D01*
X89485317Y-90353162D01*
X89701441Y-90214090D01*
X89846431Y-90001890D01*
X89897440Y-89750000D01*
X89897440Y-88050000D01*
X89853162Y-87814683D01*
X89714090Y-87598559D01*
X89501890Y-87453569D01*
X89250000Y-87402560D01*
X87550000Y-87402560D01*
X87314683Y-87446838D01*
X87098559Y-87585910D01*
X86953569Y-87798110D01*
X86902560Y-88050000D01*
X86902560Y-89750000D01*
X86946838Y-89985317D01*
X87085910Y-90201441D01*
X87298110Y-90346431D01*
X87365541Y-90360086D01*
X87320853Y-90389946D01*
X86998946Y-90871715D01*
X86885907Y-91440000D01*
X80110000Y-91440000D01*
X80110000Y-71200000D01*
X82902560Y-71200000D01*
X82902560Y-73200000D01*
X82946838Y-73435317D01*
X83085910Y-73651441D01*
X83298110Y-73796431D01*
X83550000Y-73847440D01*
X85250000Y-73847440D01*
X85485317Y-73803162D01*
X85701441Y-73664090D01*
X85846431Y-73451890D01*
X85897440Y-73200000D01*
X85897440Y-71200000D01*
X85853162Y-70964683D01*
X85714090Y-70748559D01*
X85501890Y-70603569D01*
X85435000Y-70590023D01*
X85435000Y-66228712D01*
X86896709Y-64767002D01*
X87029002Y-64767002D01*
X86908954Y-65004742D01*
X87162034Y-65547576D01*
X87552582Y-65905499D01*
X87314591Y-66064519D01*
X86981845Y-66562509D01*
X86865000Y-67149928D01*
X86865000Y-67210072D01*
X86981845Y-67797491D01*
X87314591Y-68295481D01*
X87365000Y-68329163D01*
X87365000Y-75000448D01*
X87320853Y-75029946D01*
X86998946Y-75511715D01*
X86885907Y-76080000D01*
X86998946Y-76648285D01*
X87320853Y-77130054D01*
X87661553Y-77357702D01*
X87518642Y-77424817D01*
X87128355Y-77853076D01*
X86960954Y-78257243D01*
X85897440Y-77193728D01*
X85897440Y-75200000D01*
X85853162Y-74964683D01*
X85714090Y-74748559D01*
X85501890Y-74603569D01*
X85250000Y-74552560D01*
X83550000Y-74552560D01*
X83314683Y-74596838D01*
X83098559Y-74735910D01*
X82953569Y-74948110D01*
X82902560Y-75200000D01*
X82902560Y-77200000D01*
X82946838Y-77435317D01*
X83085910Y-77651441D01*
X83298110Y-77796431D01*
X83550000Y-77847440D01*
X83638466Y-77847440D01*
X83668144Y-77891856D01*
X86894266Y-81117977D01*
X86885907Y-81160000D01*
X86998946Y-81728285D01*
X87320853Y-82210054D01*
X87362452Y-82237850D01*
X87314683Y-82246838D01*
X87098559Y-82385910D01*
X86953569Y-82598110D01*
X86902560Y-82850000D01*
X86902560Y-84550000D01*
X86946838Y-84785317D01*
X87085910Y-85001441D01*
X87298110Y-85146431D01*
X87550000Y-85197440D01*
X89250000Y-85197440D01*
X89320469Y-85184180D01*
X90165000Y-86028711D01*
X90165000Y-93371289D01*
X86868144Y-96668144D01*
X86643785Y-97003923D01*
X86633871Y-97053761D01*
X86603569Y-97098110D01*
X86552560Y-97350000D01*
X86552560Y-99050000D01*
X86565000Y-99116113D01*
X86565000Y-105387370D01*
X86514683Y-105396838D01*
X86298559Y-105535910D01*
X86153569Y-105748110D01*
X86102560Y-106000000D01*
X86102560Y-108000000D01*
X86146838Y-108235317D01*
X86285910Y-108451441D01*
X86498110Y-108596431D01*
X86750000Y-108647440D01*
X88450000Y-108647440D01*
X88685317Y-108603162D01*
X88901441Y-108464090D01*
X89046431Y-108251890D01*
X89097440Y-108000000D01*
X89097440Y-107635000D01*
X89385973Y-107635000D01*
X89352560Y-107800000D01*
X89352560Y-108583728D01*
X89068144Y-108868144D01*
X88843785Y-109203923D01*
X88791846Y-109465033D01*
X88701890Y-109403569D01*
X88450000Y-109352560D01*
X86750000Y-109352560D01*
X86514683Y-109396838D01*
X86298559Y-109535910D01*
X86153569Y-109748110D01*
X86102560Y-110000000D01*
X86102560Y-112000000D01*
X86146838Y-112235317D01*
X86285910Y-112451441D01*
X86498110Y-112596431D01*
X86750000Y-112647440D01*
X88450000Y-112647440D01*
X88685317Y-112603162D01*
X88765000Y-112551887D01*
X88765000Y-113793676D01*
X88397378Y-113548039D01*
X87829093Y-113435000D01*
X87770907Y-113435000D01*
X87202622Y-113548039D01*
X86720853Y-113869946D01*
X86398946Y-114351715D01*
X86285907Y-114920000D01*
X86398946Y-115488285D01*
X86720853Y-115970054D01*
X87050026Y-116190000D01*
X86720853Y-116409946D01*
X86398946Y-116891715D01*
X86285907Y-117460000D01*
X86398946Y-118028285D01*
X86720853Y-118510054D01*
X86762452Y-118537850D01*
X86714683Y-118546838D01*
X86498559Y-118685910D01*
X86353569Y-118898110D01*
X86302560Y-119150000D01*
X86302560Y-120850000D01*
X86346838Y-121085317D01*
X86485910Y-121301441D01*
X86698110Y-121446431D01*
X86950000Y-121497440D01*
X88650000Y-121497440D01*
X88885317Y-121453162D01*
X89101441Y-121314090D01*
X89246431Y-121101890D01*
X89297440Y-120850000D01*
X89297440Y-119150000D01*
X89253162Y-118914683D01*
X89114090Y-118698559D01*
X88901890Y-118553569D01*
X88834459Y-118539914D01*
X88879147Y-118510054D01*
X89201054Y-118028285D01*
X89314093Y-117460000D01*
X89305734Y-117417977D01*
X90531853Y-116191858D01*
X90531856Y-116191856D01*
X90756215Y-115856077D01*
X90835001Y-115460000D01*
X90835000Y-115459995D01*
X90835000Y-114400000D01*
X124016887Y-114400000D01*
X124126120Y-114949151D01*
X124437189Y-115414698D01*
X124902736Y-115725767D01*
X125451887Y-115835000D01*
X125508113Y-115835000D01*
X126057264Y-115725767D01*
X126522811Y-115414698D01*
X126833880Y-114949151D01*
X126943113Y-114400000D01*
X126833880Y-113850849D01*
X126522811Y-113385302D01*
X126118297Y-113115014D01*
X126335134Y-113012389D01*
X126711041Y-112597423D01*
X126871904Y-112209039D01*
X126749915Y-111987000D01*
X125607000Y-111987000D01*
X125607000Y-112007000D01*
X125353000Y-112007000D01*
X125353000Y-111987000D01*
X124210085Y-111987000D01*
X124088096Y-112209039D01*
X124248959Y-112597423D01*
X124624866Y-113012389D01*
X124841703Y-113115014D01*
X124437189Y-113385302D01*
X124126120Y-113850849D01*
X124016887Y-114400000D01*
X90835000Y-114400000D01*
X90835000Y-110898712D01*
X92668142Y-112731853D01*
X92668144Y-112731856D01*
X92844960Y-112850000D01*
X93003922Y-112956215D01*
X93400000Y-113035000D01*
X100387370Y-113035000D01*
X100396838Y-113085317D01*
X100535910Y-113301441D01*
X100748110Y-113446431D01*
X101000000Y-113497440D01*
X103000000Y-113497440D01*
X103235317Y-113453162D01*
X103451441Y-113314090D01*
X103596431Y-113101890D01*
X103647440Y-112850000D01*
X103647440Y-111150000D01*
X103603162Y-110914683D01*
X103464090Y-110698559D01*
X103251890Y-110553569D01*
X103000000Y-110502560D01*
X101000000Y-110502560D01*
X100764683Y-110546838D01*
X100548559Y-110685910D01*
X100403569Y-110898110D01*
X100390023Y-110965000D01*
X93828711Y-110965000D01*
X92824232Y-109960520D01*
X93340000Y-110063113D01*
X93889151Y-109953880D01*
X94354698Y-109642811D01*
X94610000Y-109260725D01*
X94865302Y-109642811D01*
X95330849Y-109953880D01*
X95880000Y-110063113D01*
X96429151Y-109953880D01*
X96894698Y-109642811D01*
X97150000Y-109260725D01*
X97405302Y-109642811D01*
X97870849Y-109953880D01*
X98420000Y-110063113D01*
X98969151Y-109953880D01*
X99434698Y-109642811D01*
X99690000Y-109260725D01*
X99945302Y-109642811D01*
X100410849Y-109953880D01*
X100960000Y-110063113D01*
X101509151Y-109953880D01*
X101974698Y-109642811D01*
X102230000Y-109260725D01*
X102485302Y-109642811D01*
X102950849Y-109953880D01*
X103500000Y-110063113D01*
X104049151Y-109953880D01*
X104514698Y-109642811D01*
X104770000Y-109260725D01*
X104965000Y-109552563D01*
X104965000Y-110509146D01*
X104764683Y-110546838D01*
X104548559Y-110685910D01*
X104403569Y-110898110D01*
X104352560Y-111150000D01*
X104352560Y-112850000D01*
X104396838Y-113085317D01*
X104535910Y-113301441D01*
X104748110Y-113446431D01*
X105000000Y-113497440D01*
X107000000Y-113497440D01*
X107235317Y-113453162D01*
X107451441Y-113314090D01*
X107596431Y-113101890D01*
X107647440Y-112850000D01*
X107647440Y-111150000D01*
X107603162Y-110914683D01*
X107464090Y-110698559D01*
X107251890Y-110553569D01*
X107035000Y-110509648D01*
X107035000Y-109655973D01*
X107054698Y-109642811D01*
X107365767Y-109177264D01*
X107475000Y-108628113D01*
X107475000Y-108571887D01*
X107365767Y-108022736D01*
X107106690Y-107635000D01*
X114799995Y-107635000D01*
X114800000Y-107635001D01*
X115196077Y-107556215D01*
X115531856Y-107331856D01*
X119070875Y-103792836D01*
X118985907Y-104220000D01*
X119098946Y-104788285D01*
X119420853Y-105270054D01*
X119750026Y-105490000D01*
X119420853Y-105709946D01*
X119098946Y-106191715D01*
X118985907Y-106760000D01*
X119098946Y-107328285D01*
X119420853Y-107810054D01*
X119462452Y-107837850D01*
X119414683Y-107846838D01*
X119198559Y-107985910D01*
X119053569Y-108198110D01*
X119002560Y-108450000D01*
X119002560Y-110150000D01*
X119046838Y-110385317D01*
X119185910Y-110601441D01*
X119398110Y-110746431D01*
X119650000Y-110797440D01*
X121350000Y-110797440D01*
X121585317Y-110753162D01*
X121801441Y-110614090D01*
X121946431Y-110401890D01*
X121955926Y-110355000D01*
X124467573Y-110355000D01*
X124841703Y-110604986D01*
X124624866Y-110707611D01*
X124248959Y-111122577D01*
X124088096Y-111510961D01*
X124210085Y-111733000D01*
X125353000Y-111733000D01*
X125353000Y-111713000D01*
X125607000Y-111713000D01*
X125607000Y-111733000D01*
X126749915Y-111733000D01*
X126871904Y-111510961D01*
X126711041Y-111122577D01*
X126335134Y-110707611D01*
X126118297Y-110604986D01*
X126522811Y-110334698D01*
X126833880Y-109869151D01*
X126943113Y-109320000D01*
X126833880Y-108770849D01*
X126522811Y-108305302D01*
X126140725Y-108050000D01*
X126522811Y-107794698D01*
X126833880Y-107329151D01*
X126943113Y-106780000D01*
X126833880Y-106230849D01*
X126522811Y-105765302D01*
X126140725Y-105510000D01*
X126522811Y-105254698D01*
X126833880Y-104789151D01*
X126943113Y-104240000D01*
X126833880Y-103690849D01*
X126522811Y-103225302D01*
X126140725Y-102970000D01*
X126522811Y-102714698D01*
X126833880Y-102249151D01*
X126943113Y-101700000D01*
X126833880Y-101150849D01*
X126522811Y-100685302D01*
X126140725Y-100430000D01*
X126522811Y-100174698D01*
X126833880Y-99709151D01*
X126943113Y-99160000D01*
X126833880Y-98610849D01*
X126522811Y-98145302D01*
X126057264Y-97834233D01*
X125508113Y-97725000D01*
X125451887Y-97725000D01*
X124902736Y-97834233D01*
X124437189Y-98145302D01*
X124126120Y-98610849D01*
X124016887Y-99160000D01*
X124126120Y-99709151D01*
X124434732Y-100171020D01*
X123847440Y-99583728D01*
X123847440Y-98600000D01*
X123803162Y-98364683D01*
X123664090Y-98148559D01*
X123451890Y-98003569D01*
X123200000Y-97952560D01*
X121200000Y-97952560D01*
X120964683Y-97996838D01*
X120748559Y-98135910D01*
X120603569Y-98348110D01*
X120552560Y-98600000D01*
X120552560Y-100200000D01*
X120596838Y-100435317D01*
X120735910Y-100651441D01*
X120755754Y-100665000D01*
X119700000Y-100665000D01*
X119616395Y-100681630D01*
X119738327Y-100559699D01*
X119835000Y-100326310D01*
X119835000Y-99685750D01*
X119676250Y-99527000D01*
X118327000Y-99527000D01*
X118327000Y-100676250D01*
X118485750Y-100835000D01*
X119167409Y-100835000D01*
X118968144Y-100968144D01*
X118968142Y-100968147D01*
X114371288Y-105565000D01*
X94200005Y-105565000D01*
X94200000Y-105564999D01*
X94199995Y-105565000D01*
X91702629Y-105565000D01*
X91834785Y-105246734D01*
X91835214Y-104755421D01*
X91835000Y-104754903D01*
X91835000Y-101992427D01*
X92070000Y-101640725D01*
X92325302Y-102022811D01*
X92790849Y-102333880D01*
X93340000Y-102443113D01*
X93889151Y-102333880D01*
X94354698Y-102022811D01*
X94624986Y-101618297D01*
X94727611Y-101835134D01*
X95142577Y-102211041D01*
X95530961Y-102371904D01*
X95753000Y-102249915D01*
X95753000Y-101107000D01*
X95733000Y-101107000D01*
X95733000Y-100853000D01*
X95753000Y-100853000D01*
X95753000Y-99710085D01*
X95530961Y-99588096D01*
X95142577Y-99748959D01*
X94727611Y-100124866D01*
X94624986Y-100341703D01*
X94375000Y-99967573D01*
X94375000Y-98740000D01*
X94346372Y-98596077D01*
X94296215Y-98343922D01*
X94200049Y-98200000D01*
X94071856Y-98008144D01*
X94071853Y-98008142D01*
X93847440Y-97783729D01*
X93847440Y-97350000D01*
X93803162Y-97114683D01*
X93664090Y-96898559D01*
X93589275Y-96847440D01*
X94450000Y-96847440D01*
X94685317Y-96803162D01*
X94901441Y-96664090D01*
X95046431Y-96451890D01*
X95097440Y-96200000D01*
X95097440Y-94200000D01*
X95069216Y-94050000D01*
X96902560Y-94050000D01*
X96902560Y-95550000D01*
X96946838Y-95785317D01*
X97085910Y-96001441D01*
X97298110Y-96146431D01*
X97550000Y-96197440D01*
X98450000Y-96197440D01*
X98685317Y-96153162D01*
X98818529Y-96067442D01*
X98975999Y-96144408D01*
X99143000Y-96017502D01*
X99143000Y-94927000D01*
X99123000Y-94927000D01*
X99123000Y-94673000D01*
X99143000Y-94673000D01*
X99143000Y-93582498D01*
X98975999Y-93455592D01*
X98817925Y-93532853D01*
X98701890Y-93453569D01*
X98450000Y-93402560D01*
X97550000Y-93402560D01*
X97314683Y-93446838D01*
X97098559Y-93585910D01*
X96953569Y-93798110D01*
X96902560Y-94050000D01*
X95069216Y-94050000D01*
X95053162Y-93964683D01*
X94914090Y-93748559D01*
X94701890Y-93603569D01*
X94450000Y-93552560D01*
X92750000Y-93552560D01*
X92514683Y-93596838D01*
X92298559Y-93735910D01*
X92226883Y-93840811D01*
X92235001Y-93800000D01*
X92235000Y-93799995D01*
X92235000Y-92572325D01*
X92285910Y-92651441D01*
X92498110Y-92796431D01*
X92750000Y-92847440D01*
X94450000Y-92847440D01*
X94685317Y-92803162D01*
X94901441Y-92664090D01*
X95046431Y-92451890D01*
X95097440Y-92200000D01*
X95097440Y-90200000D01*
X95053162Y-89964683D01*
X94914090Y-89748559D01*
X94701890Y-89603569D01*
X94635000Y-89590023D01*
X94635000Y-89352532D01*
X95347073Y-89352532D01*
X95445736Y-89619387D01*
X96055461Y-89845908D01*
X96705460Y-89821856D01*
X97194264Y-89619387D01*
X97292927Y-89352532D01*
X96320000Y-88379605D01*
X95347073Y-89352532D01*
X94635000Y-89352532D01*
X94635000Y-88200005D01*
X94635001Y-88200000D01*
X94582380Y-87935461D01*
X94674092Y-87935461D01*
X94698144Y-88585460D01*
X94900613Y-89074264D01*
X95167468Y-89172927D01*
X96140395Y-88200000D01*
X95167468Y-87227073D01*
X94900613Y-87325736D01*
X94674092Y-87935461D01*
X94582380Y-87935461D01*
X94556215Y-87803923D01*
X94552331Y-87798110D01*
X94331856Y-87468144D01*
X94331853Y-87468142D01*
X93911180Y-87047468D01*
X95347073Y-87047468D01*
X96320000Y-88020395D01*
X97292927Y-87047468D01*
X97194264Y-86780613D01*
X96584539Y-86554092D01*
X95934540Y-86578144D01*
X95445736Y-86780613D01*
X95347073Y-87047468D01*
X93911180Y-87047468D01*
X92178210Y-85314498D01*
X92156215Y-85203923D01*
X92029373Y-85014090D01*
X91931856Y-84868144D01*
X91931853Y-84868142D01*
X91798711Y-84735000D01*
X101471288Y-84735000D01*
X104302560Y-87566271D01*
X104302560Y-88600000D01*
X104311564Y-88647852D01*
X103131856Y-87468144D01*
X102796077Y-87243785D01*
X102745667Y-87233758D01*
X102327363Y-86814722D01*
X101726648Y-86565284D01*
X101076205Y-86564716D01*
X100475057Y-86813106D01*
X100129801Y-87157759D01*
X99787363Y-86814722D01*
X99186648Y-86565284D01*
X98536205Y-86564716D01*
X97935057Y-86813106D01*
X97507438Y-87239978D01*
X97472532Y-87227073D01*
X96499605Y-88200000D01*
X97472532Y-89172927D01*
X97507938Y-89159836D01*
X97932637Y-89585278D01*
X98533352Y-89834716D01*
X99183795Y-89835284D01*
X99505000Y-89702564D01*
X99505000Y-93500428D01*
X99397000Y-93582498D01*
X99397000Y-94673000D01*
X99417000Y-94673000D01*
X99417000Y-94927000D01*
X99397000Y-94927000D01*
X99397000Y-96017502D01*
X99505000Y-96099572D01*
X99505000Y-100042403D01*
X99434698Y-99937189D01*
X98969151Y-99626120D01*
X98420000Y-99516887D01*
X97870849Y-99626120D01*
X97405302Y-99937189D01*
X97135014Y-100341703D01*
X97032389Y-100124866D01*
X96617423Y-99748959D01*
X96229039Y-99588096D01*
X96007000Y-99710085D01*
X96007000Y-100853000D01*
X96027000Y-100853000D01*
X96027000Y-101107000D01*
X96007000Y-101107000D01*
X96007000Y-102249915D01*
X96229039Y-102371904D01*
X96617423Y-102211041D01*
X97032389Y-101835134D01*
X97135014Y-101618297D01*
X97405302Y-102022811D01*
X97870849Y-102333880D01*
X98420000Y-102443113D01*
X98969151Y-102333880D01*
X99434698Y-102022811D01*
X99690000Y-101640725D01*
X99945302Y-102022811D01*
X100410849Y-102333880D01*
X100960000Y-102443113D01*
X101509151Y-102333880D01*
X101974698Y-102022811D01*
X102230000Y-101640725D01*
X102485302Y-102022811D01*
X102950849Y-102333880D01*
X103500000Y-102443113D01*
X104049151Y-102333880D01*
X104514698Y-102022811D01*
X104770000Y-101640725D01*
X105025302Y-102022811D01*
X105490849Y-102333880D01*
X106040000Y-102443113D01*
X106589151Y-102333880D01*
X107054698Y-102022811D01*
X107365767Y-101557264D01*
X107475000Y-101008113D01*
X107475000Y-100951887D01*
X107365767Y-100402736D01*
X107054698Y-99937189D01*
X106678394Y-99685750D01*
X116565000Y-99685750D01*
X116565000Y-100326310D01*
X116661673Y-100559699D01*
X116840302Y-100738327D01*
X117073691Y-100835000D01*
X117914250Y-100835000D01*
X118073000Y-100676250D01*
X118073000Y-99527000D01*
X116723750Y-99527000D01*
X116565000Y-99685750D01*
X106678394Y-99685750D01*
X106589151Y-99626120D01*
X106040000Y-99516887D01*
X105490849Y-99626120D01*
X105025302Y-99937189D01*
X104770000Y-100319275D01*
X104514698Y-99937189D01*
X104049151Y-99626120D01*
X103539056Y-99524656D01*
X104590021Y-98473690D01*
X116565000Y-98473690D01*
X116565000Y-99114250D01*
X116723750Y-99273000D01*
X118073000Y-99273000D01*
X118073000Y-98123750D01*
X118327000Y-98123750D01*
X118327000Y-99273000D01*
X119676250Y-99273000D01*
X119835000Y-99114250D01*
X119835000Y-98473690D01*
X119738327Y-98240301D01*
X119559698Y-98061673D01*
X119326309Y-97965000D01*
X118485750Y-97965000D01*
X118327000Y-98123750D01*
X118073000Y-98123750D01*
X117914250Y-97965000D01*
X117073691Y-97965000D01*
X116840302Y-98061673D01*
X116661673Y-98240301D01*
X116565000Y-98473690D01*
X104590021Y-98473690D01*
X106531853Y-96531858D01*
X106531856Y-96531856D01*
X106756215Y-96196077D01*
X106794931Y-96001441D01*
X106835001Y-95800000D01*
X106835000Y-95799995D01*
X106835000Y-93212630D01*
X106885317Y-93203162D01*
X107101441Y-93064090D01*
X107246431Y-92851890D01*
X107297440Y-92600000D01*
X107297440Y-90600000D01*
X107253162Y-90364683D01*
X107114090Y-90148559D01*
X106901890Y-90003569D01*
X106650000Y-89952560D01*
X105616271Y-89952560D01*
X104901287Y-89237575D01*
X104950000Y-89247440D01*
X106650000Y-89247440D01*
X106885317Y-89203162D01*
X107101441Y-89064090D01*
X107246431Y-88851890D01*
X107297440Y-88600000D01*
X107297440Y-86600000D01*
X107253162Y-86364683D01*
X107114090Y-86148559D01*
X106901890Y-86003569D01*
X106650000Y-85952560D01*
X105616271Y-85952560D01*
X105498798Y-85835087D01*
X105644579Y-85835214D01*
X106098657Y-85647592D01*
X106446371Y-85300485D01*
X106634785Y-84846734D01*
X106634801Y-84828911D01*
X109131853Y-82331858D01*
X109131856Y-82331856D01*
X109356215Y-81996077D01*
X109404383Y-81753923D01*
X109435001Y-81600000D01*
X109435000Y-81599995D01*
X109435000Y-77612630D01*
X109485317Y-77603162D01*
X109701441Y-77464090D01*
X109846431Y-77251890D01*
X109897440Y-77000000D01*
X109897440Y-75035000D01*
X110399995Y-75035000D01*
X110400000Y-75035001D01*
X110796077Y-74956215D01*
X111131856Y-74731856D01*
X116428711Y-69435000D01*
X116497371Y-69435000D01*
X116365215Y-69753266D01*
X116364786Y-70244579D01*
X116552408Y-70698657D01*
X116565000Y-70711271D01*
X116565000Y-82149995D01*
X116564999Y-82150000D01*
X116643785Y-82546077D01*
X116868144Y-82881856D01*
X125764800Y-91778511D01*
X125764786Y-91794579D01*
X125952408Y-92248657D01*
X126299515Y-92596371D01*
X126753266Y-92784785D01*
X127244579Y-92785214D01*
X127698657Y-92597592D01*
X128046371Y-92250485D01*
X128234785Y-91796734D01*
X128235214Y-91305421D01*
X128047592Y-90851343D01*
X127700485Y-90503629D01*
X127246734Y-90315215D01*
X127228910Y-90315199D01*
X119213712Y-82300000D01*
X123916887Y-82300000D01*
X124026120Y-82849151D01*
X124337189Y-83314698D01*
X124802736Y-83625767D01*
X125351887Y-83735000D01*
X125408113Y-83735000D01*
X125957264Y-83625767D01*
X126422811Y-83314698D01*
X126733880Y-82849151D01*
X126843113Y-82300000D01*
X126733880Y-81750849D01*
X126422811Y-81285302D01*
X126018297Y-81015014D01*
X126235134Y-80912389D01*
X126611041Y-80497423D01*
X126771904Y-80109039D01*
X126649915Y-79887000D01*
X125507000Y-79887000D01*
X125507000Y-79907000D01*
X125253000Y-79907000D01*
X125253000Y-79887000D01*
X124110085Y-79887000D01*
X123988096Y-80109039D01*
X124148959Y-80497423D01*
X124524866Y-80912389D01*
X124741703Y-81015014D01*
X124337189Y-81285302D01*
X124026120Y-81750849D01*
X123916887Y-82300000D01*
X119213712Y-82300000D01*
X118635000Y-81721288D01*
X118635000Y-70711836D01*
X118646371Y-70700485D01*
X118834785Y-70246734D01*
X118835214Y-69755421D01*
X118702818Y-69435000D01*
X123751288Y-69435000D01*
X123917036Y-69600747D01*
X124026120Y-70149151D01*
X124337189Y-70614698D01*
X124719275Y-70870000D01*
X124367573Y-71105000D01*
X121502569Y-71105000D01*
X121479147Y-71069946D01*
X120997378Y-70748039D01*
X120429093Y-70635000D01*
X120370907Y-70635000D01*
X119802622Y-70748039D01*
X119320853Y-71069946D01*
X118998946Y-71551715D01*
X118885907Y-72120000D01*
X118998946Y-72688285D01*
X119320853Y-73170054D01*
X119650026Y-73390000D01*
X119320853Y-73609946D01*
X118998946Y-74091715D01*
X118885907Y-74660000D01*
X118998946Y-75228285D01*
X119320853Y-75710054D01*
X119362452Y-75737850D01*
X119314683Y-75746838D01*
X119098559Y-75885910D01*
X118953569Y-76098110D01*
X118902560Y-76350000D01*
X118902560Y-78050000D01*
X118946838Y-78285317D01*
X119085910Y-78501441D01*
X119298110Y-78646431D01*
X119550000Y-78697440D01*
X121250000Y-78697440D01*
X121485317Y-78653162D01*
X121701441Y-78514090D01*
X121846431Y-78301890D01*
X121859977Y-78235000D01*
X124337641Y-78235000D01*
X124741703Y-78504986D01*
X124524866Y-78607611D01*
X124148959Y-79022577D01*
X123988096Y-79410961D01*
X124110085Y-79633000D01*
X125253000Y-79633000D01*
X125253000Y-79613000D01*
X125507000Y-79613000D01*
X125507000Y-79633000D01*
X126649915Y-79633000D01*
X126771904Y-79410961D01*
X126611041Y-79022577D01*
X126235134Y-78607611D01*
X126018297Y-78504986D01*
X126422811Y-78234698D01*
X126733880Y-77769151D01*
X126843113Y-77220000D01*
X126733880Y-76670849D01*
X126422811Y-76205302D01*
X126040725Y-75950000D01*
X126422811Y-75694698D01*
X126733880Y-75229151D01*
X126843113Y-74680000D01*
X126733880Y-74130849D01*
X126422811Y-73665302D01*
X126040725Y-73410000D01*
X126422811Y-73154698D01*
X126733880Y-72689151D01*
X126843113Y-72140000D01*
X126733880Y-71590849D01*
X126422811Y-71125302D01*
X126040725Y-70870000D01*
X126392427Y-70635000D01*
X126399995Y-70635000D01*
X126400000Y-70635001D01*
X126796077Y-70556215D01*
X127131856Y-70331856D01*
X128131853Y-69331858D01*
X128131856Y-69331856D01*
X128356215Y-68996077D01*
X128362397Y-68965000D01*
X128435001Y-68600000D01*
X128435000Y-68599995D01*
X128435000Y-63403222D01*
X128435317Y-63403162D01*
X128651441Y-63264090D01*
X128796431Y-63051890D01*
X128847440Y-62800000D01*
X128847440Y-60800000D01*
X128803162Y-60564683D01*
X128664090Y-60348559D01*
X128451890Y-60203569D01*
X128200000Y-60152560D01*
X126600000Y-60152560D01*
X126364683Y-60196838D01*
X126148559Y-60335910D01*
X126003569Y-60548110D01*
X125952560Y-60800000D01*
X125952560Y-62800000D01*
X125996838Y-63035317D01*
X126135910Y-63251441D01*
X126348110Y-63396431D01*
X126365000Y-63399851D01*
X126365000Y-66006674D01*
X125957264Y-65734233D01*
X125408113Y-65625000D01*
X125351887Y-65625000D01*
X124802736Y-65734233D01*
X124337189Y-66045302D01*
X124026120Y-66510849D01*
X123916887Y-67060000D01*
X123977555Y-67365000D01*
X116935000Y-67365000D01*
X116935000Y-62528712D01*
X118331853Y-61131858D01*
X118331856Y-61131856D01*
X118553594Y-60800000D01*
X118556215Y-60796078D01*
X118635000Y-60400000D01*
X118635000Y-58085750D01*
X125965000Y-58085750D01*
X125965000Y-58926309D01*
X126061673Y-59159698D01*
X126240301Y-59338327D01*
X126473690Y-59435000D01*
X127114250Y-59435000D01*
X127273000Y-59276250D01*
X127273000Y-57927000D01*
X127527000Y-57927000D01*
X127527000Y-59276250D01*
X127685750Y-59435000D01*
X128326310Y-59435000D01*
X128559699Y-59338327D01*
X128738327Y-59159698D01*
X128835000Y-58926309D01*
X128835000Y-58085750D01*
X128676250Y-57927000D01*
X127527000Y-57927000D01*
X127273000Y-57927000D01*
X126123750Y-57927000D01*
X125965000Y-58085750D01*
X118635000Y-58085750D01*
X118635000Y-56673691D01*
X125965000Y-56673691D01*
X125965000Y-57514250D01*
X126123750Y-57673000D01*
X127273000Y-57673000D01*
X127273000Y-56323750D01*
X127527000Y-56323750D01*
X127527000Y-57673000D01*
X128676250Y-57673000D01*
X128835000Y-57514250D01*
X128835000Y-56673691D01*
X128738327Y-56440302D01*
X128559699Y-56261673D01*
X128326310Y-56165000D01*
X127685750Y-56165000D01*
X127527000Y-56323750D01*
X127273000Y-56323750D01*
X127114250Y-56165000D01*
X126473690Y-56165000D01*
X126240301Y-56261673D01*
X126061673Y-56440302D01*
X125965000Y-56673691D01*
X118635000Y-56673691D01*
X118635000Y-51400000D01*
X123916887Y-51400000D01*
X124026120Y-51949151D01*
X124337189Y-52414698D01*
X124802736Y-52725767D01*
X125351887Y-52835000D01*
X125408113Y-52835000D01*
X125957264Y-52725767D01*
X126422811Y-52414698D01*
X126733880Y-51949151D01*
X126843113Y-51400000D01*
X126733880Y-50850849D01*
X126422811Y-50385302D01*
X126018297Y-50115014D01*
X126235134Y-50012389D01*
X126611041Y-49597423D01*
X126771904Y-49209039D01*
X126649915Y-48987000D01*
X125507000Y-48987000D01*
X125507000Y-49007000D01*
X125253000Y-49007000D01*
X125253000Y-48987000D01*
X124110085Y-48987000D01*
X123988096Y-49209039D01*
X124148959Y-49597423D01*
X124524866Y-50012389D01*
X124741703Y-50115014D01*
X124337189Y-50385302D01*
X124026120Y-50850849D01*
X123916887Y-51400000D01*
X118635000Y-51400000D01*
X118635000Y-40628712D01*
X119528711Y-39735000D01*
X124367573Y-39735000D01*
X124719275Y-39970000D01*
X124337189Y-40225302D01*
X124230482Y-40385000D01*
X121489206Y-40385000D01*
X121479147Y-40369946D01*
X120997378Y-40048039D01*
X120429093Y-39935000D01*
X120370907Y-39935000D01*
X119802622Y-40048039D01*
X119320853Y-40369946D01*
X118998946Y-40851715D01*
X118885907Y-41420000D01*
X118998946Y-41988285D01*
X119320853Y-42470054D01*
X119650026Y-42690000D01*
X119320853Y-42909946D01*
X118998946Y-43391715D01*
X118885907Y-43960000D01*
X118998946Y-44528285D01*
X119320853Y-45010054D01*
X119362452Y-45037850D01*
X119314683Y-45046838D01*
X119098559Y-45185910D01*
X118953569Y-45398110D01*
X118902560Y-45650000D01*
X118902560Y-47350000D01*
X118946838Y-47585317D01*
X119085910Y-47801441D01*
X119298110Y-47946431D01*
X119550000Y-47997440D01*
X121250000Y-47997440D01*
X121485317Y-47953162D01*
X121701441Y-47814090D01*
X121846431Y-47601890D01*
X121896427Y-47355000D01*
X124367573Y-47355000D01*
X124741703Y-47604986D01*
X124524866Y-47707611D01*
X124148959Y-48122577D01*
X123988096Y-48510961D01*
X124110085Y-48733000D01*
X125253000Y-48733000D01*
X125253000Y-48713000D01*
X125507000Y-48713000D01*
X125507000Y-48733000D01*
X126649915Y-48733000D01*
X126771904Y-48510961D01*
X126611041Y-48122577D01*
X126235134Y-47707611D01*
X126018297Y-47604986D01*
X126422811Y-47334698D01*
X126733880Y-46869151D01*
X126843113Y-46320000D01*
X126733880Y-45770849D01*
X126422811Y-45305302D01*
X126040725Y-45050000D01*
X126422811Y-44794698D01*
X126733880Y-44329151D01*
X126843113Y-43780000D01*
X126733880Y-43230849D01*
X126422811Y-42765302D01*
X126040725Y-42510000D01*
X126422811Y-42254698D01*
X126733880Y-41789151D01*
X126843113Y-41240000D01*
X126733880Y-40690849D01*
X126422811Y-40225302D01*
X126040725Y-39970000D01*
X126422811Y-39714698D01*
X126733880Y-39249151D01*
X126843113Y-38700000D01*
X126733880Y-38150849D01*
X126422811Y-37685302D01*
X126040725Y-37430000D01*
X126422811Y-37174698D01*
X126733880Y-36709151D01*
X126843113Y-36160000D01*
X126733880Y-35610849D01*
X126422811Y-35145302D01*
X125957264Y-34834233D01*
X125408113Y-34725000D01*
X125351887Y-34725000D01*
X124802736Y-34834233D01*
X124337189Y-35145302D01*
X124026120Y-35610849D01*
X123916887Y-36160000D01*
X124026120Y-36709151D01*
X124133364Y-36869652D01*
X123563621Y-36299909D01*
X123596431Y-36251890D01*
X123647440Y-36000000D01*
X123647440Y-34000000D01*
X123603162Y-33764683D01*
X123464090Y-33548559D01*
X123251890Y-33403569D01*
X123000000Y-33352560D01*
X121400000Y-33352560D01*
X121164683Y-33396838D01*
X120948559Y-33535910D01*
X120803569Y-33748110D01*
X120752560Y-34000000D01*
X120752560Y-36000000D01*
X120796838Y-36235317D01*
X120935910Y-36451441D01*
X121148110Y-36596431D01*
X121206421Y-36608239D01*
X121243785Y-36796077D01*
X121468144Y-37131856D01*
X122001288Y-37665000D01*
X119100000Y-37665000D01*
X118703922Y-37743785D01*
X118569429Y-37833651D01*
X118368144Y-37968144D01*
X118368142Y-37968147D01*
X116868144Y-39468144D01*
X116643785Y-39803923D01*
X116564999Y-40200000D01*
X116565000Y-40200005D01*
X116565000Y-51001288D01*
X112711152Y-47147440D01*
X113300000Y-47147440D01*
X113535317Y-47103162D01*
X113751441Y-46964090D01*
X113896431Y-46751890D01*
X113947440Y-46500000D01*
X113947440Y-44900000D01*
X113903162Y-44664683D01*
X113764090Y-44448559D01*
X113551890Y-44303569D01*
X113300000Y-44252560D01*
X111700000Y-44252560D01*
X111464683Y-44296838D01*
X111248559Y-44435910D01*
X111103569Y-44648110D01*
X111072185Y-44803089D01*
X110974698Y-44657189D01*
X110509151Y-44346120D01*
X109960000Y-44236887D01*
X109410849Y-44346120D01*
X108945302Y-44657189D01*
X108690000Y-45039275D01*
X108434698Y-44657189D01*
X107969151Y-44346120D01*
X107420000Y-44236887D01*
X106870849Y-44346120D01*
X106405302Y-44657189D01*
X106135014Y-45061703D01*
X106032389Y-44844866D01*
X105617423Y-44468959D01*
X105229039Y-44308096D01*
X105007000Y-44430085D01*
X105007000Y-45573000D01*
X105027000Y-45573000D01*
X105027000Y-45827000D01*
X105007000Y-45827000D01*
X105007000Y-46969915D01*
X105229039Y-47091904D01*
X105617423Y-46931041D01*
X106032389Y-46555134D01*
X106135014Y-46338297D01*
X106405302Y-46742811D01*
X106870849Y-47053880D01*
X107420000Y-47163113D01*
X107969151Y-47053880D01*
X108434698Y-46742811D01*
X108690000Y-46360725D01*
X108945302Y-46742811D01*
X109410849Y-47053880D01*
X109759524Y-47123236D01*
X115265000Y-52628712D01*
X115265000Y-53771289D01*
X111633728Y-57402560D01*
X110600000Y-57402560D01*
X110364683Y-57446838D01*
X110148559Y-57585910D01*
X110003569Y-57798110D01*
X109952560Y-58050000D01*
X109952560Y-59750000D01*
X109996838Y-59985317D01*
X110135910Y-60201441D01*
X110348110Y-60346431D01*
X110565000Y-60390352D01*
X110565000Y-61852560D01*
X110500000Y-61852560D01*
X110264683Y-61896838D01*
X110048559Y-62035910D01*
X109903569Y-62248110D01*
X109852560Y-62500000D01*
X109852560Y-64100000D01*
X109896838Y-64335317D01*
X110035910Y-64551441D01*
X110248110Y-64696431D01*
X110500000Y-64747440D01*
X112500000Y-64747440D01*
X112735317Y-64703162D01*
X112951441Y-64564090D01*
X113096431Y-64351890D01*
X113147440Y-64100000D01*
X113147440Y-62500000D01*
X113103162Y-62264683D01*
X112964090Y-62048559D01*
X112751890Y-61903569D01*
X112635000Y-61879898D01*
X112635000Y-60390854D01*
X112835317Y-60353162D01*
X113051441Y-60214090D01*
X113196431Y-60001890D01*
X113247440Y-59750000D01*
X113247440Y-58716272D01*
X116565000Y-55398711D01*
X116565000Y-59971289D01*
X115101288Y-61435000D01*
X115068144Y-61468144D01*
X114843785Y-61803923D01*
X114764999Y-62200000D01*
X114765000Y-62200005D01*
X114765000Y-62400000D01*
X114843785Y-62796077D01*
X114865000Y-62827828D01*
X114865000Y-68071289D01*
X109971288Y-72965000D01*
X109897440Y-72965000D01*
X109897440Y-71000000D01*
X109853162Y-70764683D01*
X109714090Y-70548559D01*
X109501890Y-70403569D01*
X109435000Y-70390023D01*
X109435000Y-67527828D01*
X109456215Y-67496077D01*
X109535000Y-67100000D01*
X109535000Y-64300005D01*
X109535001Y-64300000D01*
X109456215Y-63903923D01*
X109231856Y-63568144D01*
X109231853Y-63568142D01*
X109147440Y-63483729D01*
X109147440Y-62500000D01*
X109103162Y-62264683D01*
X108964090Y-62048559D01*
X108751890Y-61903569D01*
X108535000Y-61859648D01*
X108535000Y-60397440D01*
X108600000Y-60397440D01*
X108835317Y-60353162D01*
X109051441Y-60214090D01*
X109196431Y-60001890D01*
X109247440Y-59750000D01*
X109247440Y-58050000D01*
X109203162Y-57814683D01*
X109064090Y-57598559D01*
X108851890Y-57453569D01*
X108635000Y-57409648D01*
X108635000Y-54063038D01*
X108690000Y-53980725D01*
X108945302Y-54362811D01*
X109410849Y-54673880D01*
X109960000Y-54783113D01*
X110509151Y-54673880D01*
X110974698Y-54362811D01*
X111230000Y-53980725D01*
X111485302Y-54362811D01*
X111950849Y-54673880D01*
X112500000Y-54783113D01*
X113049151Y-54673880D01*
X113514698Y-54362811D01*
X113825767Y-53897264D01*
X113935000Y-53348113D01*
X113935000Y-53291887D01*
X113825767Y-52742736D01*
X113514698Y-52277189D01*
X113049151Y-51966120D01*
X112500000Y-51856887D01*
X111950849Y-51966120D01*
X111485302Y-52277189D01*
X111230000Y-52659275D01*
X110974698Y-52277189D01*
X110509151Y-51966120D01*
X109960000Y-51856887D01*
X109410849Y-51966120D01*
X108945302Y-52277189D01*
X108690000Y-52659275D01*
X108434698Y-52277189D01*
X107969151Y-51966120D01*
X107420000Y-51856887D01*
X106870849Y-51966120D01*
X106405302Y-52277189D01*
X106150000Y-52659275D01*
X105894698Y-52277189D01*
X105429151Y-51966120D01*
X104880000Y-51856887D01*
X104330849Y-51966120D01*
X103865302Y-52277189D01*
X103554233Y-52742736D01*
X103445000Y-53291887D01*
X103445000Y-53348113D01*
X103554233Y-53897264D01*
X103865302Y-54362811D01*
X104330849Y-54673880D01*
X104880000Y-54783113D01*
X105429151Y-54673880D01*
X105894698Y-54362811D01*
X106150000Y-53980725D01*
X106405302Y-54362811D01*
X106565000Y-54469518D01*
X106565000Y-57409146D01*
X106364683Y-57446838D01*
X106148559Y-57585910D01*
X106003569Y-57798110D01*
X105952560Y-58050000D01*
X105952560Y-59750000D01*
X105996838Y-59985317D01*
X106135910Y-60201441D01*
X106348110Y-60346431D01*
X106465000Y-60370102D01*
X106465000Y-61859146D01*
X106264683Y-61896838D01*
X106048559Y-62035910D01*
X105903569Y-62248110D01*
X105895958Y-62285695D01*
X105603922Y-62343785D01*
X105469429Y-62433651D01*
X105268144Y-62568144D01*
X105268142Y-62568147D01*
X103468144Y-64368144D01*
X103243785Y-64703923D01*
X103164999Y-65100000D01*
X103165000Y-65100005D01*
X103165000Y-65387370D01*
X103114683Y-65396838D01*
X102898559Y-65535910D01*
X102753569Y-65748110D01*
X102702560Y-66000000D01*
X102702560Y-68000000D01*
X102746838Y-68235317D01*
X102885910Y-68451441D01*
X103098110Y-68596431D01*
X103350000Y-68647440D01*
X105050000Y-68647440D01*
X105285317Y-68603162D01*
X105501441Y-68464090D01*
X105646431Y-68251890D01*
X105697440Y-68000000D01*
X105697440Y-66000000D01*
X105653162Y-65764683D01*
X105514090Y-65548559D01*
X105336497Y-65427215D01*
X106140682Y-64623029D01*
X106248110Y-64696431D01*
X106500000Y-64747440D01*
X107465000Y-64747440D01*
X107465000Y-66172172D01*
X107443785Y-66203923D01*
X107364999Y-66600000D01*
X107365000Y-66600005D01*
X107365000Y-70387370D01*
X107314683Y-70396838D01*
X107098559Y-70535910D01*
X106953569Y-70748110D01*
X106902560Y-71000000D01*
X106902560Y-72965000D01*
X106400005Y-72965000D01*
X106400000Y-72964999D01*
X106003923Y-73043785D01*
X105668144Y-73268144D01*
X105668142Y-73268147D01*
X105324884Y-73611405D01*
X105434785Y-73346734D01*
X105435214Y-72855421D01*
X105321391Y-72579949D01*
X105501441Y-72464090D01*
X105646431Y-72251890D01*
X105697440Y-72000000D01*
X105697440Y-70000000D01*
X105653162Y-69764683D01*
X105514090Y-69548559D01*
X105301890Y-69403569D01*
X105050000Y-69352560D01*
X103350000Y-69352560D01*
X103114683Y-69396838D01*
X102898559Y-69535910D01*
X102753569Y-69748110D01*
X102709648Y-69965000D01*
X102241797Y-69965000D01*
X102151890Y-69903569D01*
X101900000Y-69852560D01*
X99900000Y-69852560D01*
X99664683Y-69896838D01*
X99448559Y-70035910D01*
X99303569Y-70248110D01*
X99252560Y-70500000D01*
X99252560Y-72100000D01*
X99296838Y-72335317D01*
X99435910Y-72551441D01*
X99648110Y-72696431D01*
X99900000Y-72747440D01*
X101900000Y-72747440D01*
X102135317Y-72703162D01*
X102351441Y-72564090D01*
X102496431Y-72351890D01*
X102547440Y-72100000D01*
X102547440Y-72035000D01*
X102709146Y-72035000D01*
X102746838Y-72235317D01*
X102885910Y-72451441D01*
X103077663Y-72582460D01*
X102965215Y-72853266D01*
X102964786Y-73344579D01*
X103152408Y-73798657D01*
X103499515Y-74146371D01*
X103953266Y-74334785D01*
X104444579Y-74335214D01*
X104711270Y-74225019D01*
X96668144Y-82268144D01*
X96443785Y-82603923D01*
X96431636Y-82665000D01*
X89862630Y-82665000D01*
X89853162Y-82614683D01*
X89714090Y-82398559D01*
X89501890Y-82253569D01*
X89434459Y-82239914D01*
X89479147Y-82210054D01*
X89489206Y-82195000D01*
X89839995Y-82195000D01*
X89840000Y-82195001D01*
X90236077Y-82116215D01*
X90571856Y-81891856D01*
X91781274Y-80682437D01*
X91948110Y-80796431D01*
X92200000Y-80847440D01*
X93800000Y-80847440D01*
X94035317Y-80803162D01*
X94251441Y-80664090D01*
X94396431Y-80451890D01*
X94440352Y-80235000D01*
X95309146Y-80235000D01*
X95346838Y-80435317D01*
X95485910Y-80651441D01*
X95698110Y-80796431D01*
X95950000Y-80847440D01*
X97650000Y-80847440D01*
X97885317Y-80803162D01*
X98101441Y-80664090D01*
X98246431Y-80451890D01*
X98297440Y-80200000D01*
X98297440Y-78200000D01*
X98253162Y-77964683D01*
X98114090Y-77748559D01*
X97901890Y-77603569D01*
X97650000Y-77552560D01*
X95950000Y-77552560D01*
X95714683Y-77596838D01*
X95498559Y-77735910D01*
X95353569Y-77948110D01*
X95309648Y-78165000D01*
X94440854Y-78165000D01*
X94403162Y-77964683D01*
X94264090Y-77748559D01*
X94051890Y-77603569D01*
X93800000Y-77552560D01*
X92200000Y-77552560D01*
X91964683Y-77596838D01*
X91748559Y-77735910D01*
X91603569Y-77948110D01*
X91552560Y-78200000D01*
X91552560Y-78214219D01*
X91403923Y-78243785D01*
X91068144Y-78468144D01*
X91068142Y-78468147D01*
X89447493Y-80088795D01*
X89138447Y-79882298D01*
X89281358Y-79815183D01*
X89671645Y-79386924D01*
X89841476Y-78976890D01*
X89720155Y-78747000D01*
X88527000Y-78747000D01*
X88527000Y-78767000D01*
X88273000Y-78767000D01*
X88273000Y-78747000D01*
X88253000Y-78747000D01*
X88253000Y-78493000D01*
X88273000Y-78493000D01*
X88273000Y-78473000D01*
X88527000Y-78473000D01*
X88527000Y-78493000D01*
X89720155Y-78493000D01*
X89841476Y-78263110D01*
X89671645Y-77853076D01*
X89281358Y-77424817D01*
X89138447Y-77357702D01*
X89479147Y-77130054D01*
X89801054Y-76648285D01*
X89914093Y-76080000D01*
X89801054Y-75511715D01*
X89783705Y-75485750D01*
X91565000Y-75485750D01*
X91565000Y-76326309D01*
X91661673Y-76559698D01*
X91840301Y-76738327D01*
X92073690Y-76835000D01*
X92714250Y-76835000D01*
X92873000Y-76676250D01*
X92873000Y-75327000D01*
X93127000Y-75327000D01*
X93127000Y-76676250D01*
X93285750Y-76835000D01*
X93926310Y-76835000D01*
X94159699Y-76738327D01*
X94338327Y-76559698D01*
X94435000Y-76326309D01*
X94435000Y-75485750D01*
X95315000Y-75485750D01*
X95315000Y-76326309D01*
X95411673Y-76559698D01*
X95590301Y-76738327D01*
X95823690Y-76835000D01*
X96514250Y-76835000D01*
X96673000Y-76676250D01*
X96673000Y-75327000D01*
X96927000Y-75327000D01*
X96927000Y-76676250D01*
X97085750Y-76835000D01*
X97776310Y-76835000D01*
X98009699Y-76738327D01*
X98188327Y-76559698D01*
X98285000Y-76326309D01*
X98285000Y-75485750D01*
X98126250Y-75327000D01*
X96927000Y-75327000D01*
X96673000Y-75327000D01*
X95473750Y-75327000D01*
X95315000Y-75485750D01*
X94435000Y-75485750D01*
X94276250Y-75327000D01*
X93127000Y-75327000D01*
X92873000Y-75327000D01*
X91723750Y-75327000D01*
X91565000Y-75485750D01*
X89783705Y-75485750D01*
X89479147Y-75029946D01*
X89435000Y-75000448D01*
X89435000Y-74073691D01*
X91565000Y-74073691D01*
X91565000Y-74914250D01*
X91723750Y-75073000D01*
X92873000Y-75073000D01*
X92873000Y-73723750D01*
X93127000Y-73723750D01*
X93127000Y-75073000D01*
X94276250Y-75073000D01*
X94435000Y-74914250D01*
X94435000Y-74073691D01*
X95315000Y-74073691D01*
X95315000Y-74914250D01*
X95473750Y-75073000D01*
X96673000Y-75073000D01*
X96673000Y-73723750D01*
X96927000Y-73723750D01*
X96927000Y-75073000D01*
X98126250Y-75073000D01*
X98285000Y-74914250D01*
X98285000Y-74073691D01*
X98188327Y-73840302D01*
X98009699Y-73661673D01*
X97776310Y-73565000D01*
X97085750Y-73565000D01*
X96927000Y-73723750D01*
X96673000Y-73723750D01*
X96514250Y-73565000D01*
X95823690Y-73565000D01*
X95590301Y-73661673D01*
X95411673Y-73840302D01*
X95315000Y-74073691D01*
X94435000Y-74073691D01*
X94338327Y-73840302D01*
X94159699Y-73661673D01*
X93926310Y-73565000D01*
X93285750Y-73565000D01*
X93127000Y-73723750D01*
X92873000Y-73723750D01*
X92714250Y-73565000D01*
X92073690Y-73565000D01*
X91840301Y-73661673D01*
X91661673Y-73840302D01*
X91565000Y-74073691D01*
X89435000Y-74073691D01*
X89435000Y-71585750D01*
X95265000Y-71585750D01*
X95265000Y-72226310D01*
X95361673Y-72459699D01*
X95540302Y-72638327D01*
X95773691Y-72735000D01*
X96614250Y-72735000D01*
X96773000Y-72576250D01*
X96773000Y-71427000D01*
X97027000Y-71427000D01*
X97027000Y-72576250D01*
X97185750Y-72735000D01*
X98026309Y-72735000D01*
X98259698Y-72638327D01*
X98438327Y-72459699D01*
X98535000Y-72226310D01*
X98535000Y-71585750D01*
X98376250Y-71427000D01*
X97027000Y-71427000D01*
X96773000Y-71427000D01*
X95423750Y-71427000D01*
X95265000Y-71585750D01*
X89435000Y-71585750D01*
X89435000Y-70373690D01*
X95265000Y-70373690D01*
X95265000Y-71014250D01*
X95423750Y-71173000D01*
X96773000Y-71173000D01*
X96773000Y-70023750D01*
X97027000Y-70023750D01*
X97027000Y-71173000D01*
X98376250Y-71173000D01*
X98535000Y-71014250D01*
X98535000Y-70373690D01*
X98438327Y-70140301D01*
X98259698Y-69961673D01*
X98026309Y-69865000D01*
X97185750Y-69865000D01*
X97027000Y-70023750D01*
X96773000Y-70023750D01*
X96614250Y-69865000D01*
X95773691Y-69865000D01*
X95540302Y-69961673D01*
X95361673Y-70140301D01*
X95265000Y-70373690D01*
X89435000Y-70373690D01*
X89435000Y-68329163D01*
X89485409Y-68295481D01*
X89818155Y-67797491D01*
X89935000Y-67210072D01*
X89935000Y-67149928D01*
X89825613Y-66600000D01*
X93052560Y-66600000D01*
X93052560Y-67800000D01*
X93096838Y-68035317D01*
X93235910Y-68251441D01*
X93448110Y-68396431D01*
X93700000Y-68447440D01*
X94900000Y-68447440D01*
X95135317Y-68403162D01*
X95351441Y-68264090D01*
X95446993Y-68124245D01*
X95501178Y-68178430D01*
X95616871Y-68062737D01*
X95666383Y-68288164D01*
X96131036Y-68447807D01*
X96621413Y-68417482D01*
X96933617Y-68288164D01*
X96983130Y-68062735D01*
X96300000Y-67379605D01*
X96285858Y-67393748D01*
X96106253Y-67214143D01*
X96120395Y-67200000D01*
X96479605Y-67200000D01*
X97162735Y-67883130D01*
X97388164Y-67833617D01*
X97547807Y-67368964D01*
X97517482Y-66878587D01*
X97388164Y-66566383D01*
X97162735Y-66516870D01*
X96479605Y-67200000D01*
X96120395Y-67200000D01*
X96106253Y-67185858D01*
X96285858Y-67006253D01*
X96300000Y-67020395D01*
X96983130Y-66337265D01*
X96933617Y-66111836D01*
X96468964Y-65952193D01*
X95978587Y-65982518D01*
X95666383Y-66111836D01*
X95616871Y-66337263D01*
X95501178Y-66221570D01*
X95446351Y-66276397D01*
X95364090Y-66148559D01*
X95151890Y-66003569D01*
X94900000Y-65952560D01*
X93700000Y-65952560D01*
X93464683Y-65996838D01*
X93248559Y-66135910D01*
X93103569Y-66348110D01*
X93052560Y-66600000D01*
X89825613Y-66600000D01*
X89818155Y-66562509D01*
X89485409Y-66064519D01*
X89247418Y-65905499D01*
X89637966Y-65547576D01*
X89891046Y-65004742D01*
X89770997Y-64767000D01*
X88527000Y-64767000D01*
X88527000Y-64787000D01*
X88273000Y-64787000D01*
X88273000Y-64767000D01*
X88253000Y-64767000D01*
X88253000Y-64513000D01*
X88273000Y-64513000D01*
X88273000Y-64493000D01*
X88527000Y-64493000D01*
X88527000Y-64513000D01*
X89770997Y-64513000D01*
X89891046Y-64275258D01*
X89637966Y-63732424D01*
X89503462Y-63609156D01*
X89535317Y-63603162D01*
X89751441Y-63464090D01*
X89896431Y-63251890D01*
X89947440Y-63000000D01*
X89947440Y-61200000D01*
X89903162Y-60964683D01*
X89764090Y-60748559D01*
X89551890Y-60603569D01*
X89435000Y-60579898D01*
X89435000Y-56024300D01*
X89933549Y-55526621D01*
X90209685Y-54861611D01*
X90210314Y-54141548D01*
X89935338Y-53476057D01*
X89435000Y-52974845D01*
X89435000Y-51024300D01*
X89933549Y-50526621D01*
X90209685Y-49861611D01*
X90210314Y-49141548D01*
X89935338Y-48476057D01*
X89426621Y-47966451D01*
X88761611Y-47690315D01*
X88041548Y-47689686D01*
X87376057Y-47964662D01*
X86866451Y-48473379D01*
X86590315Y-49138389D01*
X86589686Y-49858452D01*
X86864662Y-50523943D01*
X87365000Y-51025155D01*
X87365000Y-52975700D01*
X86866451Y-53473379D01*
X86590315Y-54138389D01*
X86589686Y-54858452D01*
X86864662Y-55523943D01*
X87365000Y-56025155D01*
X87365000Y-60577962D01*
X87264683Y-60596838D01*
X87048559Y-60735910D01*
X86903569Y-60948110D01*
X86852560Y-61200000D01*
X86852560Y-61883729D01*
X83668144Y-65068144D01*
X83443785Y-65403923D01*
X83364999Y-65800000D01*
X83365000Y-65800005D01*
X83365000Y-70587370D01*
X83314683Y-70596838D01*
X83098559Y-70735910D01*
X82953569Y-70948110D01*
X82902560Y-71200000D01*
X80110000Y-71200000D01*
X80110000Y-46049041D01*
X103488086Y-46049041D01*
X103727611Y-46555134D01*
X104142577Y-46931041D01*
X104530961Y-47091904D01*
X104753000Y-46969915D01*
X104753000Y-45827000D01*
X103609371Y-45827000D01*
X103488086Y-46049041D01*
X80110000Y-46049041D01*
X80110000Y-45350959D01*
X103488086Y-45350959D01*
X103609371Y-45573000D01*
X104753000Y-45573000D01*
X104753000Y-44430085D01*
X104530961Y-44308096D01*
X104142577Y-44468959D01*
X103727611Y-44844866D01*
X103488086Y-45350959D01*
X80110000Y-45350959D01*
X80110000Y-24319823D01*
X84764630Y-24319823D01*
X85316820Y-25656225D01*
X86338397Y-26679586D01*
X86765000Y-26856727D01*
X86765000Y-33717700D01*
X86590315Y-34138389D01*
X86589686Y-34858452D01*
X86765000Y-35282743D01*
X86765000Y-38717700D01*
X86590315Y-39138389D01*
X86589686Y-39858452D01*
X86864662Y-40523943D01*
X87373379Y-41033549D01*
X88038389Y-41309685D01*
X88758452Y-41310314D01*
X89423943Y-41035338D01*
X89933549Y-40526621D01*
X90209685Y-39861611D01*
X90210314Y-39141548D01*
X90035000Y-38717257D01*
X90035000Y-35282300D01*
X90209685Y-34861611D01*
X90210314Y-34141548D01*
X90035000Y-33717257D01*
X90035000Y-27547240D01*
X95752560Y-33264799D01*
X95752560Y-35200000D01*
X95796838Y-35435317D01*
X95935910Y-35651441D01*
X96148110Y-35796431D01*
X96400000Y-35847440D01*
X98800000Y-35847440D01*
X99035317Y-35803162D01*
X99251441Y-35664090D01*
X99396431Y-35451890D01*
X99447440Y-35200000D01*
X99447440Y-32800000D01*
X99403162Y-32564683D01*
X99264090Y-32348559D01*
X99126503Y-32254550D01*
X99110543Y-32174312D01*
X98933332Y-31909097D01*
X98756120Y-31643880D01*
X98756117Y-31643878D01*
X92247240Y-25135000D01*
X97762189Y-25135000D01*
X98147242Y-25520726D01*
X99023513Y-25884585D01*
X99972325Y-25885413D01*
X100849229Y-25523084D01*
X101520726Y-24852758D01*
X101884585Y-23976487D01*
X101885413Y-23027675D01*
X101734900Y-22663403D01*
X102264682Y-22663403D01*
X102543455Y-23338086D01*
X103059199Y-23854730D01*
X103733395Y-24134681D01*
X104463403Y-24135318D01*
X105138086Y-23856545D01*
X105654730Y-23340801D01*
X105934681Y-22666605D01*
X105935318Y-21936597D01*
X105656545Y-21261914D01*
X105140801Y-20745270D01*
X104466605Y-20465319D01*
X103736597Y-20464682D01*
X103061914Y-20743455D01*
X102545270Y-21259199D01*
X102265319Y-21933395D01*
X102264682Y-22663403D01*
X101734900Y-22663403D01*
X101523084Y-22150771D01*
X100852758Y-21479274D01*
X99976487Y-21115415D01*
X99027675Y-21114587D01*
X98150771Y-21476916D01*
X97762009Y-21865000D01*
X91615907Y-21865000D01*
X91483180Y-21543775D01*
X90461603Y-20520414D01*
X89126166Y-19965892D01*
X87680177Y-19964630D01*
X86343775Y-20516820D01*
X85320414Y-21538397D01*
X84765892Y-22873834D01*
X84764630Y-24319823D01*
X80110000Y-24319823D01*
X80110000Y-16310000D01*
X129673000Y-16310000D01*
X129673000Y-25365000D01*
G36*
X189490000Y-123090000D02*
X130527000Y-123090000D01*
X130527000Y-121596443D01*
X143883162Y-121596443D01*
X144225723Y-122071063D01*
X145558863Y-122631084D01*
X147004834Y-122638305D01*
X148343501Y-122091627D01*
X148374277Y-122071063D01*
X148716838Y-121596443D01*
X146300000Y-119179605D01*
X143883162Y-121596443D01*
X130527000Y-121596443D01*
X130527000Y-119904817D01*
X130603923Y-119956215D01*
X131000000Y-120035001D01*
X131000005Y-120035000D01*
X131728808Y-120035000D01*
X131835910Y-120201441D01*
X132048110Y-120346431D01*
X132300000Y-120397440D01*
X135500000Y-120397440D01*
X135735317Y-120353162D01*
X135899493Y-120247518D01*
X135940302Y-120288327D01*
X136173691Y-120385000D01*
X137614250Y-120385000D01*
X137773000Y-120226250D01*
X137773000Y-119127000D01*
X138027000Y-119127000D01*
X138027000Y-120226250D01*
X138185750Y-120385000D01*
X139626309Y-120385000D01*
X139859698Y-120288327D01*
X140038327Y-120109699D01*
X140135000Y-119876310D01*
X140135000Y-119704834D01*
X142661695Y-119704834D01*
X143208373Y-121043501D01*
X143228937Y-121074277D01*
X143703557Y-121416838D01*
X146120395Y-119000000D01*
X146479605Y-119000000D01*
X148896443Y-121416838D01*
X149371063Y-121074277D01*
X149931084Y-119741137D01*
X149935571Y-118842619D01*
X180564613Y-118842619D01*
X180904155Y-119664372D01*
X181532321Y-120293636D01*
X182353481Y-120634611D01*
X183242619Y-120635387D01*
X184064372Y-120295845D01*
X184693636Y-119667679D01*
X185034611Y-118846519D01*
X185035387Y-117957381D01*
X184695845Y-117135628D01*
X184067679Y-116506364D01*
X183246519Y-116165389D01*
X182357381Y-116164613D01*
X181535628Y-116504155D01*
X180906364Y-117132321D01*
X180565389Y-117953481D01*
X180564613Y-118842619D01*
X149935571Y-118842619D01*
X149938305Y-118295166D01*
X149391627Y-116956499D01*
X149371063Y-116925723D01*
X148896443Y-116583162D01*
X146479605Y-119000000D01*
X146120395Y-119000000D01*
X143703557Y-116583162D01*
X143228937Y-116925723D01*
X142668916Y-118258863D01*
X142661695Y-119704834D01*
X140135000Y-119704834D01*
X140135000Y-119285750D01*
X139976250Y-119127000D01*
X138027000Y-119127000D01*
X137773000Y-119127000D01*
X137753000Y-119127000D01*
X137753000Y-118873000D01*
X137773000Y-118873000D01*
X137773000Y-117773750D01*
X138027000Y-117773750D01*
X138027000Y-118873000D01*
X139976250Y-118873000D01*
X140135000Y-118714250D01*
X140135000Y-118123690D01*
X140038327Y-117890301D01*
X139859698Y-117711673D01*
X139626309Y-117615000D01*
X138185750Y-117615000D01*
X138027000Y-117773750D01*
X137773000Y-117773750D01*
X137614250Y-117615000D01*
X136173691Y-117615000D01*
X135940302Y-117711673D01*
X135898340Y-117753634D01*
X135751890Y-117653569D01*
X135500000Y-117602560D01*
X132300000Y-117602560D01*
X132064683Y-117646838D01*
X131848559Y-117785910D01*
X131726192Y-117965000D01*
X131428711Y-117965000D01*
X130527000Y-117063288D01*
X130527000Y-116403557D01*
X143883162Y-116403557D01*
X146300000Y-118820395D01*
X148716838Y-116403557D01*
X148514304Y-116122944D01*
X161040025Y-116122944D01*
X161072074Y-116254477D01*
X161388764Y-116817630D01*
X161896857Y-117216724D01*
X162519000Y-117391000D01*
X162773000Y-117391000D01*
X162773000Y-115867000D01*
X163027000Y-115867000D01*
X163027000Y-117391000D01*
X163281000Y-117391000D01*
X163903143Y-117216724D01*
X164411236Y-116817630D01*
X164727926Y-116254477D01*
X164759975Y-116122944D01*
X164640836Y-115867000D01*
X163027000Y-115867000D01*
X162773000Y-115867000D01*
X161159164Y-115867000D01*
X161040025Y-116122944D01*
X148514304Y-116122944D01*
X148374277Y-115928937D01*
X147041137Y-115368916D01*
X145595166Y-115361695D01*
X144256499Y-115908373D01*
X144225723Y-115928937D01*
X143883162Y-116403557D01*
X130527000Y-116403557D01*
X130527000Y-113600000D01*
X131652560Y-113600000D01*
X131652560Y-115200000D01*
X131696838Y-115435317D01*
X131835910Y-115651441D01*
X132048110Y-115796431D01*
X132300000Y-115847440D01*
X133900000Y-115847440D01*
X134135317Y-115803162D01*
X134351441Y-115664090D01*
X134496431Y-115451890D01*
X134547440Y-115200000D01*
X134547440Y-113600000D01*
X134503162Y-113364683D01*
X134364090Y-113148559D01*
X134151890Y-113003569D01*
X133992384Y-112971268D01*
X134331041Y-112597423D01*
X134491904Y-112209039D01*
X134479109Y-112185750D01*
X140465000Y-112185750D01*
X140465000Y-113026309D01*
X140561673Y-113259698D01*
X140740301Y-113438327D01*
X140973690Y-113535000D01*
X141614250Y-113535000D01*
X141773000Y-113376250D01*
X141773000Y-112027000D01*
X142027000Y-112027000D01*
X142027000Y-113376250D01*
X142185750Y-113535000D01*
X142826310Y-113535000D01*
X143059699Y-113438327D01*
X143238327Y-113259698D01*
X143335000Y-113026309D01*
X143335000Y-112185750D01*
X143176250Y-112027000D01*
X142027000Y-112027000D01*
X141773000Y-112027000D01*
X140623750Y-112027000D01*
X140465000Y-112185750D01*
X134479109Y-112185750D01*
X134369915Y-111987000D01*
X133227000Y-111987000D01*
X133227000Y-112007000D01*
X132973000Y-112007000D01*
X132973000Y-111987000D01*
X131830085Y-111987000D01*
X131708096Y-112209039D01*
X131868959Y-112597423D01*
X132206590Y-112970136D01*
X132064683Y-112996838D01*
X131848559Y-113135910D01*
X131703569Y-113348110D01*
X131652560Y-113600000D01*
X130527000Y-113600000D01*
X130527000Y-108210712D01*
X131637036Y-109320747D01*
X131746120Y-109869151D01*
X132057189Y-110334698D01*
X132461703Y-110604986D01*
X132244866Y-110707611D01*
X131868959Y-111122577D01*
X131708096Y-111510961D01*
X131830085Y-111733000D01*
X132973000Y-111733000D01*
X132973000Y-111713000D01*
X133227000Y-111713000D01*
X133227000Y-111733000D01*
X134369915Y-111733000D01*
X134491904Y-111510961D01*
X134331041Y-111122577D01*
X134014995Y-110773691D01*
X140465000Y-110773691D01*
X140465000Y-111614250D01*
X140623750Y-111773000D01*
X141773000Y-111773000D01*
X141773000Y-110423750D01*
X142027000Y-110423750D01*
X142027000Y-111773000D01*
X143176250Y-111773000D01*
X143335000Y-111614250D01*
X143335000Y-110773691D01*
X143287908Y-110660000D01*
X160957679Y-110660000D01*
X161083354Y-111291810D01*
X161441246Y-111827433D01*
X161594748Y-111930000D01*
X161441246Y-112032567D01*
X161083354Y-112568190D01*
X160957679Y-113200000D01*
X161083354Y-113831810D01*
X161441246Y-114367433D01*
X161615781Y-114484054D01*
X161388764Y-114662370D01*
X161072074Y-115225523D01*
X161040025Y-115357056D01*
X161159164Y-115613000D01*
X162773000Y-115613000D01*
X162773000Y-115593000D01*
X163027000Y-115593000D01*
X163027000Y-115613000D01*
X164640836Y-115613000D01*
X164759975Y-115357056D01*
X164727926Y-115225523D01*
X164411236Y-114662370D01*
X164184219Y-114484054D01*
X164358754Y-114367433D01*
X164716646Y-113831810D01*
X164842321Y-113200000D01*
X164716646Y-112568190D01*
X164358754Y-112032567D01*
X164205252Y-111930000D01*
X164358754Y-111827433D01*
X164716646Y-111291810D01*
X164842321Y-110660000D01*
X164716646Y-110028190D01*
X164358754Y-109492567D01*
X163823131Y-109134675D01*
X163191321Y-109009000D01*
X162608679Y-109009000D01*
X161976869Y-109134675D01*
X161441246Y-109492567D01*
X161083354Y-110028190D01*
X160957679Y-110660000D01*
X143287908Y-110660000D01*
X143238327Y-110540302D01*
X143059699Y-110361673D01*
X142826310Y-110265000D01*
X142185750Y-110265000D01*
X142027000Y-110423750D01*
X141773000Y-110423750D01*
X141614250Y-110265000D01*
X140973690Y-110265000D01*
X140740301Y-110361673D01*
X140561673Y-110540302D01*
X140465000Y-110773691D01*
X134014995Y-110773691D01*
X133955134Y-110707611D01*
X133738297Y-110604986D01*
X134142811Y-110334698D01*
X134209427Y-110235000D01*
X136799995Y-110235000D01*
X136800000Y-110235001D01*
X137196077Y-110156215D01*
X137531856Y-109931856D01*
X138528711Y-108935000D01*
X140459146Y-108935000D01*
X140496838Y-109135317D01*
X140635910Y-109351441D01*
X140848110Y-109496431D01*
X141100000Y-109547440D01*
X142700000Y-109547440D01*
X142935317Y-109503162D01*
X143151441Y-109364090D01*
X143296431Y-109151890D01*
X143347440Y-108900000D01*
X143347440Y-106900000D01*
X143303162Y-106664683D01*
X143164090Y-106448559D01*
X142951890Y-106303569D01*
X142700000Y-106252560D01*
X141100000Y-106252560D01*
X140864683Y-106296838D01*
X140648559Y-106435910D01*
X140503569Y-106648110D01*
X140459648Y-106865000D01*
X138100005Y-106865000D01*
X138100000Y-106864999D01*
X137703923Y-106943785D01*
X137368144Y-107168144D01*
X137368142Y-107168147D01*
X136371288Y-108165000D01*
X133932835Y-108165000D01*
X133760725Y-108050000D01*
X134142811Y-107794698D01*
X134453880Y-107329151D01*
X134563113Y-106780000D01*
X134453880Y-106230849D01*
X134142811Y-105765302D01*
X133760725Y-105510000D01*
X134142811Y-105254698D01*
X134328145Y-104977325D01*
X175464146Y-104977325D01*
X176213871Y-106791801D01*
X177600897Y-108181250D01*
X179414061Y-108934141D01*
X181377325Y-108935854D01*
X183191801Y-108186129D01*
X184581250Y-106799103D01*
X185334141Y-104985939D01*
X185335854Y-103022675D01*
X184586129Y-101208199D01*
X183199103Y-99818750D01*
X181385939Y-99065859D01*
X179422675Y-99064146D01*
X177608199Y-99813871D01*
X176218750Y-101200897D01*
X175465859Y-103014061D01*
X175464146Y-104977325D01*
X134328145Y-104977325D01*
X134453880Y-104789151D01*
X134563113Y-104240000D01*
X134453880Y-103690849D01*
X134142811Y-103225302D01*
X133760725Y-102970000D01*
X134142811Y-102714698D01*
X134453880Y-102249151D01*
X134501898Y-102007745D01*
X149671861Y-102007745D01*
X149745995Y-102253864D01*
X150283223Y-102446965D01*
X150853454Y-102419778D01*
X151254005Y-102253864D01*
X151328139Y-102007745D01*
X150500000Y-101179605D01*
X149671861Y-102007745D01*
X134501898Y-102007745D01*
X134563113Y-101700000D01*
X134453880Y-101150849D01*
X134208240Y-100783223D01*
X149053035Y-100783223D01*
X149080222Y-101353454D01*
X149246136Y-101754005D01*
X149492255Y-101828139D01*
X150320395Y-101000000D01*
X150679605Y-101000000D01*
X151507745Y-101828139D01*
X151753864Y-101754005D01*
X151946965Y-101216777D01*
X151919778Y-100646546D01*
X151753864Y-100245995D01*
X151507745Y-100171861D01*
X150679605Y-101000000D01*
X150320395Y-101000000D01*
X149492255Y-100171861D01*
X149246136Y-100245995D01*
X149053035Y-100783223D01*
X134208240Y-100783223D01*
X134142811Y-100685302D01*
X133760725Y-100430000D01*
X134142811Y-100174698D01*
X134264715Y-99992255D01*
X149671861Y-99992255D01*
X150500000Y-100820395D01*
X151328139Y-99992255D01*
X151254005Y-99746136D01*
X150716777Y-99553035D01*
X150146546Y-99580222D01*
X149745995Y-99746136D01*
X149671861Y-99992255D01*
X134264715Y-99992255D01*
X134453880Y-99709151D01*
X134563113Y-99160000D01*
X134453880Y-98610849D01*
X134142811Y-98145302D01*
X133677264Y-97834233D01*
X133128113Y-97725000D01*
X133071887Y-97725000D01*
X132522736Y-97834233D01*
X132057189Y-98145302D01*
X131746120Y-98610849D01*
X131735000Y-98666753D01*
X131735000Y-95200000D01*
X138152560Y-95200000D01*
X138152560Y-96800000D01*
X138196838Y-97035317D01*
X138335910Y-97251441D01*
X138548110Y-97396431D01*
X138800000Y-97447440D01*
X140400000Y-97447440D01*
X140635317Y-97403162D01*
X140851441Y-97264090D01*
X140996431Y-97051890D01*
X141047440Y-96800000D01*
X141047440Y-96000000D01*
X145756887Y-96000000D01*
X145866120Y-96549151D01*
X146177189Y-97014698D01*
X146642736Y-97325767D01*
X147191887Y-97435000D01*
X147248113Y-97435000D01*
X147797264Y-97325767D01*
X148262811Y-97014698D01*
X148573880Y-96549151D01*
X148626584Y-96284187D01*
X149064752Y-96284187D01*
X149282757Y-96811800D01*
X149686077Y-97215824D01*
X150213309Y-97434750D01*
X150784187Y-97435248D01*
X151311800Y-97217243D01*
X151715824Y-96813923D01*
X151934750Y-96286691D01*
X151935248Y-95715813D01*
X151717243Y-95188200D01*
X151313923Y-94784176D01*
X150786691Y-94565250D01*
X150215813Y-94564752D01*
X149688200Y-94782757D01*
X149284176Y-95186077D01*
X149065250Y-95713309D01*
X149064752Y-96284187D01*
X148626584Y-96284187D01*
X148683113Y-96000000D01*
X148573880Y-95450849D01*
X148262811Y-94985302D01*
X147797264Y-94674233D01*
X147248113Y-94565000D01*
X147191887Y-94565000D01*
X146642736Y-94674233D01*
X146177189Y-94985302D01*
X145866120Y-95450849D01*
X145756887Y-96000000D01*
X141047440Y-96000000D01*
X141047440Y-95200000D01*
X141003162Y-94964683D01*
X140864090Y-94748559D01*
X140651890Y-94603569D01*
X140400000Y-94552560D01*
X138800000Y-94552560D01*
X138564683Y-94596838D01*
X138348559Y-94735910D01*
X138203569Y-94948110D01*
X138152560Y-95200000D01*
X131735000Y-95200000D01*
X131735000Y-84422944D01*
X160940025Y-84422944D01*
X160972074Y-84554477D01*
X161288764Y-85117630D01*
X161796857Y-85516724D01*
X162419000Y-85691000D01*
X162673000Y-85691000D01*
X162673000Y-84167000D01*
X162927000Y-84167000D01*
X162927000Y-85691000D01*
X163181000Y-85691000D01*
X163803143Y-85516724D01*
X164311236Y-85117630D01*
X164627926Y-84554477D01*
X164659975Y-84422944D01*
X164540836Y-84167000D01*
X162927000Y-84167000D01*
X162673000Y-84167000D01*
X161059164Y-84167000D01*
X160940025Y-84422944D01*
X131735000Y-84422944D01*
X131735000Y-83550027D01*
X131735910Y-83551441D01*
X131948110Y-83696431D01*
X132200000Y-83747440D01*
X133800000Y-83747440D01*
X134035317Y-83703162D01*
X134251441Y-83564090D01*
X134396431Y-83351890D01*
X134447440Y-83100000D01*
X134447440Y-81500000D01*
X134403162Y-81264683D01*
X134264090Y-81048559D01*
X134051890Y-80903569D01*
X133892384Y-80871268D01*
X134231041Y-80497423D01*
X134391904Y-80109039D01*
X134269915Y-79887000D01*
X133127000Y-79887000D01*
X133127000Y-79907000D01*
X132873000Y-79907000D01*
X132873000Y-79887000D01*
X132853000Y-79887000D01*
X132853000Y-79633000D01*
X132873000Y-79633000D01*
X132873000Y-79613000D01*
X133127000Y-79613000D01*
X133127000Y-79633000D01*
X134269915Y-79633000D01*
X134350814Y-79485750D01*
X140465000Y-79485750D01*
X140465000Y-80326309D01*
X140561673Y-80559698D01*
X140740301Y-80738327D01*
X140973690Y-80835000D01*
X141614250Y-80835000D01*
X141773000Y-80676250D01*
X141773000Y-79327000D01*
X142027000Y-79327000D01*
X142027000Y-80676250D01*
X142185750Y-80835000D01*
X142826310Y-80835000D01*
X143059699Y-80738327D01*
X143238327Y-80559698D01*
X143335000Y-80326309D01*
X143335000Y-79485750D01*
X143176250Y-79327000D01*
X142027000Y-79327000D01*
X141773000Y-79327000D01*
X140623750Y-79327000D01*
X140465000Y-79485750D01*
X134350814Y-79485750D01*
X134391904Y-79410961D01*
X134231041Y-79022577D01*
X133855134Y-78607611D01*
X133638297Y-78504986D01*
X134012427Y-78255000D01*
X135979995Y-78255000D01*
X135980000Y-78255001D01*
X136376077Y-78176215D01*
X136529515Y-78073691D01*
X140465000Y-78073691D01*
X140465000Y-78914250D01*
X140623750Y-79073000D01*
X141773000Y-79073000D01*
X141773000Y-77723750D01*
X142027000Y-77723750D01*
X142027000Y-79073000D01*
X143176250Y-79073000D01*
X143289250Y-78960000D01*
X160857679Y-78960000D01*
X160983354Y-79591810D01*
X161341246Y-80127433D01*
X161494748Y-80230000D01*
X161341246Y-80332567D01*
X160983354Y-80868190D01*
X160857679Y-81500000D01*
X160983354Y-82131810D01*
X161341246Y-82667433D01*
X161515781Y-82784054D01*
X161288764Y-82962370D01*
X160972074Y-83525523D01*
X160940025Y-83657056D01*
X161059164Y-83913000D01*
X162673000Y-83913000D01*
X162673000Y-83893000D01*
X162927000Y-83893000D01*
X162927000Y-83913000D01*
X164540836Y-83913000D01*
X164659975Y-83657056D01*
X164627926Y-83525523D01*
X164311236Y-82962370D01*
X164084219Y-82784054D01*
X164258754Y-82667433D01*
X164616646Y-82131810D01*
X164742321Y-81500000D01*
X164616646Y-80868190D01*
X164258754Y-80332567D01*
X164105252Y-80230000D01*
X164258754Y-80127433D01*
X164616646Y-79591810D01*
X164742321Y-78960000D01*
X164616646Y-78328190D01*
X164258754Y-77792567D01*
X163723131Y-77434675D01*
X163091321Y-77309000D01*
X162508679Y-77309000D01*
X161876869Y-77434675D01*
X161341246Y-77792567D01*
X160983354Y-78328190D01*
X160857679Y-78960000D01*
X143289250Y-78960000D01*
X143335000Y-78914250D01*
X143335000Y-78073691D01*
X143238327Y-77840302D01*
X143059699Y-77661673D01*
X142826310Y-77565000D01*
X142185750Y-77565000D01*
X142027000Y-77723750D01*
X141773000Y-77723750D01*
X141614250Y-77565000D01*
X140973690Y-77565000D01*
X140740301Y-77661673D01*
X140561673Y-77840302D01*
X140465000Y-78073691D01*
X136529515Y-78073691D01*
X136711856Y-77951856D01*
X138428711Y-76235000D01*
X140459146Y-76235000D01*
X140496838Y-76435317D01*
X140635910Y-76651441D01*
X140848110Y-76796431D01*
X141100000Y-76847440D01*
X142700000Y-76847440D01*
X142935317Y-76803162D01*
X143151441Y-76664090D01*
X143296431Y-76451890D01*
X143347440Y-76200000D01*
X143347440Y-75707745D01*
X156771861Y-75707745D01*
X156845995Y-75953864D01*
X157383223Y-76146965D01*
X157953454Y-76119778D01*
X158354005Y-75953864D01*
X158428139Y-75707745D01*
X157600000Y-74879605D01*
X156771861Y-75707745D01*
X143347440Y-75707745D01*
X143347440Y-74483223D01*
X156153035Y-74483223D01*
X156180222Y-75053454D01*
X156346136Y-75454005D01*
X156592255Y-75528139D01*
X157420395Y-74700000D01*
X157779605Y-74700000D01*
X158607745Y-75528139D01*
X158853864Y-75454005D01*
X159046965Y-74916777D01*
X159019778Y-74346546D01*
X158853864Y-73945995D01*
X158607745Y-73871861D01*
X157779605Y-74700000D01*
X157420395Y-74700000D01*
X156592255Y-73871861D01*
X156346136Y-73945995D01*
X156153035Y-74483223D01*
X143347440Y-74483223D01*
X143347440Y-74200000D01*
X143303162Y-73964683D01*
X143164090Y-73748559D01*
X143081687Y-73692255D01*
X156771861Y-73692255D01*
X157600000Y-74520395D01*
X158428139Y-73692255D01*
X158354005Y-73446136D01*
X157816777Y-73253035D01*
X157246546Y-73280222D01*
X156845995Y-73446136D01*
X156771861Y-73692255D01*
X143081687Y-73692255D01*
X142951890Y-73603569D01*
X142700000Y-73552560D01*
X141100000Y-73552560D01*
X140864683Y-73596838D01*
X140648559Y-73735910D01*
X140503569Y-73948110D01*
X140459648Y-74165000D01*
X138000000Y-74165000D01*
X137603922Y-74243785D01*
X137469429Y-74333651D01*
X137268144Y-74468144D01*
X137268142Y-74468147D01*
X135551288Y-76185000D01*
X134012427Y-76185000D01*
X133660725Y-75950000D01*
X134042811Y-75694698D01*
X134353880Y-75229151D01*
X134463113Y-74680000D01*
X134353880Y-74130849D01*
X134042811Y-73665302D01*
X133660725Y-73410000D01*
X134042811Y-73154698D01*
X134353880Y-72689151D01*
X134463113Y-72140000D01*
X134353880Y-71590849D01*
X134042811Y-71125302D01*
X133660725Y-70870000D01*
X134042811Y-70614698D01*
X134353880Y-70149151D01*
X134463113Y-69600000D01*
X134353880Y-69050849D01*
X134042811Y-68585302D01*
X133660725Y-68330000D01*
X134042811Y-68074698D01*
X134353880Y-67609151D01*
X134463113Y-67060000D01*
X134353880Y-66510849D01*
X134042811Y-66045302D01*
X133675692Y-65800000D01*
X148652560Y-65800000D01*
X148652560Y-67400000D01*
X148696838Y-67635317D01*
X148835910Y-67851441D01*
X149048110Y-67996431D01*
X149300000Y-68047440D01*
X150900000Y-68047440D01*
X151135317Y-68003162D01*
X151351441Y-67864090D01*
X151496431Y-67651890D01*
X151547440Y-67400000D01*
X151547440Y-65800000D01*
X151503162Y-65564683D01*
X151364090Y-65348559D01*
X151151890Y-65203569D01*
X150900000Y-65152560D01*
X149300000Y-65152560D01*
X149064683Y-65196838D01*
X148848559Y-65335910D01*
X148703569Y-65548110D01*
X148652560Y-65800000D01*
X133675692Y-65800000D01*
X133577264Y-65734233D01*
X133028113Y-65625000D01*
X132971887Y-65625000D01*
X132422736Y-65734233D01*
X131957189Y-66045302D01*
X131735000Y-66377831D01*
X131735000Y-53715000D01*
X134450714Y-53715000D01*
X134450714Y-64585000D01*
X151149286Y-64585000D01*
X151149286Y-53715000D01*
X134450714Y-53715000D01*
X131735000Y-53715000D01*
X131735000Y-53122944D01*
X161140025Y-53122944D01*
X161172074Y-53254477D01*
X161488764Y-53817630D01*
X161996857Y-54216724D01*
X162619000Y-54391000D01*
X162873000Y-54391000D01*
X162873000Y-52867000D01*
X163127000Y-52867000D01*
X163127000Y-54391000D01*
X163381000Y-54391000D01*
X164003143Y-54216724D01*
X164511236Y-53817630D01*
X164827926Y-53254477D01*
X164859975Y-53122944D01*
X164740836Y-52867000D01*
X163127000Y-52867000D01*
X162873000Y-52867000D01*
X161259164Y-52867000D01*
X161140025Y-53122944D01*
X131735000Y-53122944D01*
X131735000Y-52650027D01*
X131735910Y-52651441D01*
X131948110Y-52796431D01*
X132200000Y-52847440D01*
X133800000Y-52847440D01*
X134035317Y-52803162D01*
X134251441Y-52664090D01*
X134396431Y-52451890D01*
X134447440Y-52200000D01*
X134447440Y-50600000D01*
X134403162Y-50364683D01*
X134264090Y-50148559D01*
X134051890Y-50003569D01*
X133892384Y-49971268D01*
X134231041Y-49597423D01*
X134391904Y-49209039D01*
X134324169Y-49085750D01*
X134765000Y-49085750D01*
X134765000Y-49726310D01*
X134861673Y-49959699D01*
X135040302Y-50138327D01*
X135273691Y-50235000D01*
X136114250Y-50235000D01*
X136273000Y-50076250D01*
X136273000Y-48927000D01*
X136527000Y-48927000D01*
X136527000Y-50076250D01*
X136685750Y-50235000D01*
X137526309Y-50235000D01*
X137759698Y-50138327D01*
X137938327Y-49959699D01*
X138035000Y-49726310D01*
X138035000Y-49085750D01*
X137876250Y-48927000D01*
X136527000Y-48927000D01*
X136273000Y-48927000D01*
X134923750Y-48927000D01*
X134765000Y-49085750D01*
X134324169Y-49085750D01*
X134269915Y-48987000D01*
X133127000Y-48987000D01*
X133127000Y-49007000D01*
X132873000Y-49007000D01*
X132873000Y-48987000D01*
X132853000Y-48987000D01*
X132853000Y-48733000D01*
X132873000Y-48733000D01*
X132873000Y-48713000D01*
X133127000Y-48713000D01*
X133127000Y-48733000D01*
X134269915Y-48733000D01*
X134391904Y-48510961D01*
X134231041Y-48122577D01*
X134005581Y-47873690D01*
X134765000Y-47873690D01*
X134765000Y-48514250D01*
X134923750Y-48673000D01*
X136273000Y-48673000D01*
X136273000Y-47523750D01*
X136527000Y-47523750D01*
X136527000Y-48673000D01*
X137876250Y-48673000D01*
X138035000Y-48514250D01*
X138035000Y-47873690D01*
X137938327Y-47640301D01*
X137759698Y-47461673D01*
X137526309Y-47365000D01*
X136685750Y-47365000D01*
X136527000Y-47523750D01*
X136273000Y-47523750D01*
X136114250Y-47365000D01*
X135273691Y-47365000D01*
X135040302Y-47461673D01*
X134861673Y-47640301D01*
X134765000Y-47873690D01*
X134005581Y-47873690D01*
X133855134Y-47707611D01*
X133638297Y-47604986D01*
X134042811Y-47334698D01*
X134096064Y-47255000D01*
X140481288Y-47255000D01*
X140383728Y-47352560D01*
X139400000Y-47352560D01*
X139164683Y-47396838D01*
X138948559Y-47535910D01*
X138803569Y-47748110D01*
X138752560Y-48000000D01*
X138752560Y-49600000D01*
X138796838Y-49835317D01*
X138935910Y-50051441D01*
X139148110Y-50196431D01*
X139400000Y-50247440D01*
X141400000Y-50247440D01*
X141635317Y-50203162D01*
X141851441Y-50064090D01*
X141996431Y-49851890D01*
X142047440Y-49600000D01*
X142047440Y-49212266D01*
X142083827Y-49157809D01*
X142155000Y-48800000D01*
X142106672Y-48557040D01*
X143154326Y-47509386D01*
X143250849Y-47573880D01*
X143800000Y-47683113D01*
X143916196Y-47660000D01*
X161057679Y-47660000D01*
X161183354Y-48291810D01*
X161541246Y-48827433D01*
X161694748Y-48930000D01*
X161541246Y-49032567D01*
X161183354Y-49568190D01*
X161057679Y-50200000D01*
X161183354Y-50831810D01*
X161541246Y-51367433D01*
X161715781Y-51484054D01*
X161488764Y-51662370D01*
X161172074Y-52225523D01*
X161140025Y-52357056D01*
X161259164Y-52613000D01*
X162873000Y-52613000D01*
X162873000Y-52593000D01*
X163127000Y-52593000D01*
X163127000Y-52613000D01*
X164740836Y-52613000D01*
X164859975Y-52357056D01*
X164827926Y-52225523D01*
X164511236Y-51662370D01*
X164284219Y-51484054D01*
X164458754Y-51367433D01*
X164816646Y-50831810D01*
X164942321Y-50200000D01*
X164816646Y-49568190D01*
X164458754Y-49032567D01*
X164305252Y-48930000D01*
X164458754Y-48827433D01*
X164816646Y-48291810D01*
X164942321Y-47660000D01*
X164816646Y-47028190D01*
X164458754Y-46492567D01*
X163923131Y-46134675D01*
X163291321Y-46009000D01*
X162708679Y-46009000D01*
X162076869Y-46134675D01*
X161541246Y-46492567D01*
X161183354Y-47028190D01*
X161057679Y-47660000D01*
X143916196Y-47660000D01*
X144349151Y-47573880D01*
X144814698Y-47262811D01*
X145125767Y-46797264D01*
X145234851Y-46248861D01*
X147475966Y-44007745D01*
X156971861Y-44007745D01*
X157045995Y-44253864D01*
X157583223Y-44446965D01*
X158153454Y-44419778D01*
X158554005Y-44253864D01*
X158628139Y-44007745D01*
X157800000Y-43179605D01*
X156971861Y-44007745D01*
X147475966Y-44007745D01*
X148700488Y-42783223D01*
X156353035Y-42783223D01*
X156380222Y-43353454D01*
X156546136Y-43754005D01*
X156792255Y-43828139D01*
X157620395Y-43000000D01*
X157979605Y-43000000D01*
X158807745Y-43828139D01*
X159053864Y-43754005D01*
X159246965Y-43216777D01*
X159219778Y-42646546D01*
X159053864Y-42245995D01*
X158807745Y-42171861D01*
X157979605Y-43000000D01*
X157620395Y-43000000D01*
X156792255Y-42171861D01*
X156546136Y-42245995D01*
X156353035Y-42783223D01*
X148700488Y-42783223D01*
X149491456Y-41992255D01*
X156971861Y-41992255D01*
X157800000Y-42820395D01*
X158628139Y-41992255D01*
X158554005Y-41746136D01*
X158016777Y-41553035D01*
X157446546Y-41580222D01*
X157045995Y-41746136D01*
X156971861Y-41992255D01*
X149491456Y-41992255D01*
X152448711Y-39035000D01*
X156805568Y-39035000D01*
X156986077Y-39215824D01*
X157513309Y-39434750D01*
X158084187Y-39435248D01*
X158611800Y-39217243D01*
X159015824Y-38813923D01*
X159234750Y-38286691D01*
X159235248Y-37715813D01*
X159034280Y-37229432D01*
X161068634Y-35195077D01*
X161183354Y-35771810D01*
X161541246Y-36307433D01*
X162076869Y-36665325D01*
X162708679Y-36791000D01*
X163291321Y-36791000D01*
X163923131Y-36665325D01*
X164458754Y-36307433D01*
X164816646Y-35771810D01*
X164942321Y-35140000D01*
X164816646Y-34508190D01*
X164634106Y-34235000D01*
X165799995Y-34235000D01*
X165800000Y-34235001D01*
X166425688Y-34110543D01*
X166956120Y-33756120D01*
X168956117Y-31756122D01*
X168956120Y-31756120D01*
X169165000Y-31443508D01*
X169165000Y-60822761D01*
X167822760Y-62165000D01*
X164634106Y-62165000D01*
X164816646Y-61891810D01*
X164942321Y-61260000D01*
X164816646Y-60628190D01*
X164458754Y-60092567D01*
X163923131Y-59734675D01*
X163291321Y-59609000D01*
X162708679Y-59609000D01*
X162076869Y-59734675D01*
X161541246Y-60092567D01*
X161183354Y-60628190D01*
X161057679Y-61260000D01*
X161183354Y-61891810D01*
X161541246Y-62427433D01*
X161694748Y-62530000D01*
X161541246Y-62632567D01*
X161452757Y-62765000D01*
X160200000Y-62765000D01*
X159803922Y-62843785D01*
X159772172Y-62865000D01*
X159468144Y-63068144D01*
X159468142Y-63068147D01*
X157291682Y-65244606D01*
X157142736Y-65274233D01*
X156677189Y-65585302D01*
X156366120Y-66050849D01*
X156256887Y-66600000D01*
X156366120Y-67149151D01*
X156565000Y-67446796D01*
X156565000Y-68705568D01*
X156384176Y-68886077D01*
X156165250Y-69413309D01*
X156164752Y-69984187D01*
X156382757Y-70511800D01*
X156786077Y-70915824D01*
X157313309Y-71134750D01*
X157884187Y-71135248D01*
X158411800Y-70917243D01*
X158815824Y-70513923D01*
X159034750Y-69986691D01*
X159035248Y-69415813D01*
X158817243Y-68888200D01*
X158635000Y-68705639D01*
X158635000Y-67700099D01*
X158762811Y-67614698D01*
X159073880Y-67149151D01*
X159183113Y-66600000D01*
X159130121Y-66333591D01*
X160628711Y-64835000D01*
X161452757Y-64835000D01*
X161541246Y-64967433D01*
X161694748Y-65070000D01*
X161541246Y-65172567D01*
X161183354Y-65708190D01*
X161057679Y-66340000D01*
X161183354Y-66971810D01*
X161541246Y-67507433D01*
X162076869Y-67865325D01*
X162708679Y-67991000D01*
X163291321Y-67991000D01*
X163923131Y-67865325D01*
X164458754Y-67507433D01*
X164816646Y-66971810D01*
X164942321Y-66340000D01*
X164816646Y-65708190D01*
X164634106Y-65435000D01*
X168499995Y-65435000D01*
X168500000Y-65435001D01*
X169125688Y-65310543D01*
X169656120Y-64956120D01*
X171956117Y-62656122D01*
X171956120Y-62656120D01*
X172210993Y-62274675D01*
X172310543Y-62125688D01*
X172435000Y-61500000D01*
X172435000Y-30947239D01*
X172815000Y-31327239D01*
X172815000Y-89572760D01*
X168022760Y-94365000D01*
X164534106Y-94365000D01*
X164716646Y-94091810D01*
X164842321Y-93460000D01*
X164716646Y-92828190D01*
X164358754Y-92292567D01*
X163823131Y-91934675D01*
X163191321Y-91809000D01*
X162608679Y-91809000D01*
X161976869Y-91934675D01*
X161441246Y-92292567D01*
X161083354Y-92828190D01*
X160957679Y-93460000D01*
X161083354Y-94091810D01*
X161441246Y-94627433D01*
X161594748Y-94730000D01*
X161441246Y-94832567D01*
X161083354Y-95368190D01*
X160957679Y-96000000D01*
X161083354Y-96631810D01*
X161441246Y-97167433D01*
X161594748Y-97270000D01*
X161441246Y-97372567D01*
X161083354Y-97908190D01*
X160957679Y-98540000D01*
X161083354Y-99171810D01*
X161441246Y-99707433D01*
X161976869Y-100065325D01*
X162608679Y-100191000D01*
X163191321Y-100191000D01*
X163823131Y-100065325D01*
X164358754Y-99707433D01*
X164716646Y-99171810D01*
X164842321Y-98540000D01*
X164716646Y-97908190D01*
X164534106Y-97635000D01*
X168699995Y-97635000D01*
X168700000Y-97635001D01*
X168700005Y-97635000D01*
X168800000Y-97635000D01*
X169425687Y-97510543D01*
X169956120Y-97156120D01*
X170157485Y-96854755D01*
X175606120Y-91406120D01*
X175960543Y-90875688D01*
X176085001Y-90250000D01*
X176085000Y-90249995D01*
X176085000Y-75595871D01*
X176413871Y-76391801D01*
X177800897Y-77781250D01*
X179614061Y-78534141D01*
X181577325Y-78535854D01*
X183391801Y-77786129D01*
X184781250Y-76399103D01*
X185534141Y-74585939D01*
X185535854Y-72622675D01*
X184786129Y-70808199D01*
X183399103Y-69418750D01*
X181585939Y-68665859D01*
X179622675Y-68664146D01*
X177808199Y-69413871D01*
X176418750Y-70800897D01*
X176085000Y-71604657D01*
X176085000Y-56842619D01*
X180564613Y-56842619D01*
X180904155Y-57664372D01*
X181532321Y-58293636D01*
X182353481Y-58634611D01*
X183242619Y-58635387D01*
X184064372Y-58295845D01*
X184693636Y-57667679D01*
X185034611Y-56846519D01*
X185035387Y-55957381D01*
X184695845Y-55135628D01*
X184067679Y-54506364D01*
X183246519Y-54165389D01*
X182357381Y-54164613D01*
X181535628Y-54504155D01*
X180906364Y-55132321D01*
X180565389Y-55953481D01*
X180564613Y-56842619D01*
X176085000Y-56842619D01*
X176085000Y-42595871D01*
X176413871Y-43391801D01*
X177800897Y-44781250D01*
X179614061Y-45534141D01*
X181577325Y-45535854D01*
X183391801Y-44786129D01*
X184781250Y-43399103D01*
X185534141Y-41585939D01*
X185535854Y-39622675D01*
X184786129Y-37808199D01*
X183399103Y-36418750D01*
X181585939Y-35665859D01*
X179622675Y-35664146D01*
X177808199Y-36413871D01*
X176418750Y-37800897D01*
X176085000Y-38604657D01*
X176085000Y-30650005D01*
X176085001Y-30650000D01*
X175960543Y-30024313D01*
X175927133Y-29974312D01*
X175606120Y-29493880D01*
X175606117Y-29493878D01*
X172316500Y-26204260D01*
X172310543Y-26174313D01*
X171956120Y-25643880D01*
X171956117Y-25643878D01*
X169354859Y-23042619D01*
X180564613Y-23042619D01*
X180904155Y-23864372D01*
X181532321Y-24493636D01*
X182353481Y-24834611D01*
X183242619Y-24835387D01*
X184064372Y-24495845D01*
X184693636Y-23867679D01*
X185034611Y-23046519D01*
X185035387Y-22157381D01*
X184695845Y-21335628D01*
X184067679Y-20706364D01*
X183246519Y-20365389D01*
X182357381Y-20364613D01*
X181535628Y-20704155D01*
X180906364Y-21332321D01*
X180565389Y-22153481D01*
X180564613Y-23042619D01*
X169354859Y-23042619D01*
X169316500Y-23004260D01*
X169310543Y-22974313D01*
X168956120Y-22443880D01*
X168425687Y-22089457D01*
X167800000Y-21965000D01*
X167700002Y-21984891D01*
X167600000Y-21964999D01*
X167599995Y-21965000D01*
X148847490Y-21965000D01*
X148366605Y-21765319D01*
X147636597Y-21764682D01*
X146961914Y-22043455D01*
X146445270Y-22559199D01*
X146165319Y-23233395D01*
X146164682Y-23963403D01*
X146443455Y-24638086D01*
X146959199Y-25154730D01*
X147633395Y-25434681D01*
X148363403Y-25435318D01*
X148848210Y-25235000D01*
X166165000Y-25235000D01*
X166165000Y-29922761D01*
X165122760Y-30965000D01*
X164634106Y-30965000D01*
X164816646Y-30691810D01*
X164942321Y-30060000D01*
X164816646Y-29428190D01*
X164458754Y-28892567D01*
X163923131Y-28534675D01*
X163291321Y-28409000D01*
X162708679Y-28409000D01*
X162076869Y-28534675D01*
X161541246Y-28892567D01*
X161183354Y-29428190D01*
X161057679Y-30060000D01*
X161183354Y-30691810D01*
X161541246Y-31227433D01*
X161694748Y-31330000D01*
X161541246Y-31432567D01*
X161183354Y-31968190D01*
X161137481Y-32198808D01*
X157068144Y-36268144D01*
X156843785Y-36603923D01*
X156771961Y-36965000D01*
X152020000Y-36965000D01*
X151623922Y-37043785D01*
X151489429Y-37133651D01*
X151288144Y-37268144D01*
X151288142Y-37268147D01*
X143799252Y-44757036D01*
X143250849Y-44866120D01*
X142785302Y-45177189D01*
X142780083Y-45185000D01*
X133862767Y-45185000D01*
X133660725Y-45050000D01*
X134042811Y-44794698D01*
X134353880Y-44329151D01*
X134463113Y-43780000D01*
X134353880Y-43230849D01*
X134042811Y-42765302D01*
X133660725Y-42510000D01*
X134042811Y-42254698D01*
X134353880Y-41789151D01*
X134463113Y-41240000D01*
X134353880Y-40690849D01*
X134042811Y-40225302D01*
X133660725Y-39970000D01*
X134042811Y-39714698D01*
X134353880Y-39249151D01*
X134463113Y-38700000D01*
X134353880Y-38150849D01*
X134119450Y-37800000D01*
X142352560Y-37800000D01*
X142352560Y-39400000D01*
X142396838Y-39635317D01*
X142535910Y-39851441D01*
X142748110Y-39996431D01*
X143000000Y-40047440D01*
X144600000Y-40047440D01*
X144835317Y-40003162D01*
X145051441Y-39864090D01*
X145196431Y-39651890D01*
X145247440Y-39400000D01*
X145247440Y-37800000D01*
X145203162Y-37564683D01*
X145064090Y-37348559D01*
X144851890Y-37203569D01*
X144600000Y-37152560D01*
X143000000Y-37152560D01*
X142764683Y-37196838D01*
X142548559Y-37335910D01*
X142403569Y-37548110D01*
X142352560Y-37800000D01*
X134119450Y-37800000D01*
X134042811Y-37685302D01*
X133660725Y-37430000D01*
X134042811Y-37174698D01*
X134353880Y-36709151D01*
X134463113Y-36160000D01*
X134353880Y-35610849D01*
X134042811Y-35145302D01*
X133577264Y-34834233D01*
X133028113Y-34725000D01*
X132971887Y-34725000D01*
X132422736Y-34834233D01*
X131957189Y-35145302D01*
X131646120Y-35610849D01*
X131536887Y-36160000D01*
X131646120Y-36709151D01*
X131957189Y-37174698D01*
X132339275Y-37430000D01*
X131957189Y-37685302D01*
X131646120Y-38150849D01*
X131536887Y-38700000D01*
X131646120Y-39249151D01*
X131957189Y-39714698D01*
X132339275Y-39970000D01*
X131957189Y-40225302D01*
X131646120Y-40690849D01*
X131536887Y-41240000D01*
X131646120Y-41789151D01*
X131957189Y-42254698D01*
X132339275Y-42510000D01*
X131957189Y-42765302D01*
X131646120Y-43230849D01*
X131536887Y-43780000D01*
X131646120Y-44329151D01*
X131957189Y-44794698D01*
X132339275Y-45050000D01*
X131957189Y-45305302D01*
X131646120Y-45770849D01*
X131537036Y-46319253D01*
X130527000Y-47329288D01*
X130527000Y-16310000D01*
X189490000Y-16310000D01*
X189490000Y-123090000D01*
X189490000Y-123090000D01*
G37*
X189490000Y-123090000D02*
X130527000Y-123090000D01*
X130527000Y-121596443D01*
X143883162Y-121596443D01*
X144225723Y-122071063D01*
X145558863Y-122631084D01*
X147004834Y-122638305D01*
X148343501Y-122091627D01*
X148374277Y-122071063D01*
X148716838Y-121596443D01*
X146300000Y-119179605D01*
X143883162Y-121596443D01*
X130527000Y-121596443D01*
X130527000Y-119904817D01*
X130603923Y-119956215D01*
X131000000Y-120035001D01*
X131000005Y-120035000D01*
X131728808Y-120035000D01*
X131835910Y-120201441D01*
X132048110Y-120346431D01*
X132300000Y-120397440D01*
X135500000Y-120397440D01*
X135735317Y-120353162D01*
X135899493Y-120247518D01*
X135940302Y-120288327D01*
X136173691Y-120385000D01*
X137614250Y-120385000D01*
X137773000Y-120226250D01*
X137773000Y-119127000D01*
X138027000Y-119127000D01*
X138027000Y-120226250D01*
X138185750Y-120385000D01*
X139626309Y-120385000D01*
X139859698Y-120288327D01*
X140038327Y-120109699D01*
X140135000Y-119876310D01*
X140135000Y-119704834D01*
X142661695Y-119704834D01*
X143208373Y-121043501D01*
X143228937Y-121074277D01*
X143703557Y-121416838D01*
X146120395Y-119000000D01*
X146479605Y-119000000D01*
X148896443Y-121416838D01*
X149371063Y-121074277D01*
X149931084Y-119741137D01*
X149935571Y-118842619D01*
X180564613Y-118842619D01*
X180904155Y-119664372D01*
X181532321Y-120293636D01*
X182353481Y-120634611D01*
X183242619Y-120635387D01*
X184064372Y-120295845D01*
X184693636Y-119667679D01*
X185034611Y-118846519D01*
X185035387Y-117957381D01*
X184695845Y-117135628D01*
X184067679Y-116506364D01*
X183246519Y-116165389D01*
X182357381Y-116164613D01*
X181535628Y-116504155D01*
X180906364Y-117132321D01*
X180565389Y-117953481D01*
X180564613Y-118842619D01*
X149935571Y-118842619D01*
X149938305Y-118295166D01*
X149391627Y-116956499D01*
X149371063Y-116925723D01*
X148896443Y-116583162D01*
X146479605Y-119000000D01*
X146120395Y-119000000D01*
X143703557Y-116583162D01*
X143228937Y-116925723D01*
X142668916Y-118258863D01*
X142661695Y-119704834D01*
X140135000Y-119704834D01*
X140135000Y-119285750D01*
X139976250Y-119127000D01*
X138027000Y-119127000D01*
X137773000Y-119127000D01*
X137753000Y-119127000D01*
X137753000Y-118873000D01*
X137773000Y-118873000D01*
X137773000Y-117773750D01*
X138027000Y-117773750D01*
X138027000Y-118873000D01*
X139976250Y-118873000D01*
X140135000Y-118714250D01*
X140135000Y-118123690D01*
X140038327Y-117890301D01*
X139859698Y-117711673D01*
X139626309Y-117615000D01*
X138185750Y-117615000D01*
X138027000Y-117773750D01*
X137773000Y-117773750D01*
X137614250Y-117615000D01*
X136173691Y-117615000D01*
X135940302Y-117711673D01*
X135898340Y-117753634D01*
X135751890Y-117653569D01*
X135500000Y-117602560D01*
X132300000Y-117602560D01*
X132064683Y-117646838D01*
X131848559Y-117785910D01*
X131726192Y-117965000D01*
X131428711Y-117965000D01*
X130527000Y-117063288D01*
X130527000Y-116403557D01*
X143883162Y-116403557D01*
X146300000Y-118820395D01*
X148716838Y-116403557D01*
X148514304Y-116122944D01*
X161040025Y-116122944D01*
X161072074Y-116254477D01*
X161388764Y-116817630D01*
X161896857Y-117216724D01*
X162519000Y-117391000D01*
X162773000Y-117391000D01*
X162773000Y-115867000D01*
X163027000Y-115867000D01*
X163027000Y-117391000D01*
X163281000Y-117391000D01*
X163903143Y-117216724D01*
X164411236Y-116817630D01*
X164727926Y-116254477D01*
X164759975Y-116122944D01*
X164640836Y-115867000D01*
X163027000Y-115867000D01*
X162773000Y-115867000D01*
X161159164Y-115867000D01*
X161040025Y-116122944D01*
X148514304Y-116122944D01*
X148374277Y-115928937D01*
X147041137Y-115368916D01*
X145595166Y-115361695D01*
X144256499Y-115908373D01*
X144225723Y-115928937D01*
X143883162Y-116403557D01*
X130527000Y-116403557D01*
X130527000Y-113600000D01*
X131652560Y-113600000D01*
X131652560Y-115200000D01*
X131696838Y-115435317D01*
X131835910Y-115651441D01*
X132048110Y-115796431D01*
X132300000Y-115847440D01*
X133900000Y-115847440D01*
X134135317Y-115803162D01*
X134351441Y-115664090D01*
X134496431Y-115451890D01*
X134547440Y-115200000D01*
X134547440Y-113600000D01*
X134503162Y-113364683D01*
X134364090Y-113148559D01*
X134151890Y-113003569D01*
X133992384Y-112971268D01*
X134331041Y-112597423D01*
X134491904Y-112209039D01*
X134479109Y-112185750D01*
X140465000Y-112185750D01*
X140465000Y-113026309D01*
X140561673Y-113259698D01*
X140740301Y-113438327D01*
X140973690Y-113535000D01*
X141614250Y-113535000D01*
X141773000Y-113376250D01*
X141773000Y-112027000D01*
X142027000Y-112027000D01*
X142027000Y-113376250D01*
X142185750Y-113535000D01*
X142826310Y-113535000D01*
X143059699Y-113438327D01*
X143238327Y-113259698D01*
X143335000Y-113026309D01*
X143335000Y-112185750D01*
X143176250Y-112027000D01*
X142027000Y-112027000D01*
X141773000Y-112027000D01*
X140623750Y-112027000D01*
X140465000Y-112185750D01*
X134479109Y-112185750D01*
X134369915Y-111987000D01*
X133227000Y-111987000D01*
X133227000Y-112007000D01*
X132973000Y-112007000D01*
X132973000Y-111987000D01*
X131830085Y-111987000D01*
X131708096Y-112209039D01*
X131868959Y-112597423D01*
X132206590Y-112970136D01*
X132064683Y-112996838D01*
X131848559Y-113135910D01*
X131703569Y-113348110D01*
X131652560Y-113600000D01*
X130527000Y-113600000D01*
X130527000Y-108210712D01*
X131637036Y-109320747D01*
X131746120Y-109869151D01*
X132057189Y-110334698D01*
X132461703Y-110604986D01*
X132244866Y-110707611D01*
X131868959Y-111122577D01*
X131708096Y-111510961D01*
X131830085Y-111733000D01*
X132973000Y-111733000D01*
X132973000Y-111713000D01*
X133227000Y-111713000D01*
X133227000Y-111733000D01*
X134369915Y-111733000D01*
X134491904Y-111510961D01*
X134331041Y-111122577D01*
X134014995Y-110773691D01*
X140465000Y-110773691D01*
X140465000Y-111614250D01*
X140623750Y-111773000D01*
X141773000Y-111773000D01*
X141773000Y-110423750D01*
X142027000Y-110423750D01*
X142027000Y-111773000D01*
X143176250Y-111773000D01*
X143335000Y-111614250D01*
X143335000Y-110773691D01*
X143287908Y-110660000D01*
X160957679Y-110660000D01*
X161083354Y-111291810D01*
X161441246Y-111827433D01*
X161594748Y-111930000D01*
X161441246Y-112032567D01*
X161083354Y-112568190D01*
X160957679Y-113200000D01*
X161083354Y-113831810D01*
X161441246Y-114367433D01*
X161615781Y-114484054D01*
X161388764Y-114662370D01*
X161072074Y-115225523D01*
X161040025Y-115357056D01*
X161159164Y-115613000D01*
X162773000Y-115613000D01*
X162773000Y-115593000D01*
X163027000Y-115593000D01*
X163027000Y-115613000D01*
X164640836Y-115613000D01*
X164759975Y-115357056D01*
X164727926Y-115225523D01*
X164411236Y-114662370D01*
X164184219Y-114484054D01*
X164358754Y-114367433D01*
X164716646Y-113831810D01*
X164842321Y-113200000D01*
X164716646Y-112568190D01*
X164358754Y-112032567D01*
X164205252Y-111930000D01*
X164358754Y-111827433D01*
X164716646Y-111291810D01*
X164842321Y-110660000D01*
X164716646Y-110028190D01*
X164358754Y-109492567D01*
X163823131Y-109134675D01*
X163191321Y-109009000D01*
X162608679Y-109009000D01*
X161976869Y-109134675D01*
X161441246Y-109492567D01*
X161083354Y-110028190D01*
X160957679Y-110660000D01*
X143287908Y-110660000D01*
X143238327Y-110540302D01*
X143059699Y-110361673D01*
X142826310Y-110265000D01*
X142185750Y-110265000D01*
X142027000Y-110423750D01*
X141773000Y-110423750D01*
X141614250Y-110265000D01*
X140973690Y-110265000D01*
X140740301Y-110361673D01*
X140561673Y-110540302D01*
X140465000Y-110773691D01*
X134014995Y-110773691D01*
X133955134Y-110707611D01*
X133738297Y-110604986D01*
X134142811Y-110334698D01*
X134209427Y-110235000D01*
X136799995Y-110235000D01*
X136800000Y-110235001D01*
X137196077Y-110156215D01*
X137531856Y-109931856D01*
X138528711Y-108935000D01*
X140459146Y-108935000D01*
X140496838Y-109135317D01*
X140635910Y-109351441D01*
X140848110Y-109496431D01*
X141100000Y-109547440D01*
X142700000Y-109547440D01*
X142935317Y-109503162D01*
X143151441Y-109364090D01*
X143296431Y-109151890D01*
X143347440Y-108900000D01*
X143347440Y-106900000D01*
X143303162Y-106664683D01*
X143164090Y-106448559D01*
X142951890Y-106303569D01*
X142700000Y-106252560D01*
X141100000Y-106252560D01*
X140864683Y-106296838D01*
X140648559Y-106435910D01*
X140503569Y-106648110D01*
X140459648Y-106865000D01*
X138100005Y-106865000D01*
X138100000Y-106864999D01*
X137703923Y-106943785D01*
X137368144Y-107168144D01*
X137368142Y-107168147D01*
X136371288Y-108165000D01*
X133932835Y-108165000D01*
X133760725Y-108050000D01*
X134142811Y-107794698D01*
X134453880Y-107329151D01*
X134563113Y-106780000D01*
X134453880Y-106230849D01*
X134142811Y-105765302D01*
X133760725Y-105510000D01*
X134142811Y-105254698D01*
X134328145Y-104977325D01*
X175464146Y-104977325D01*
X176213871Y-106791801D01*
X177600897Y-108181250D01*
X179414061Y-108934141D01*
X181377325Y-108935854D01*
X183191801Y-108186129D01*
X184581250Y-106799103D01*
X185334141Y-104985939D01*
X185335854Y-103022675D01*
X184586129Y-101208199D01*
X183199103Y-99818750D01*
X181385939Y-99065859D01*
X179422675Y-99064146D01*
X177608199Y-99813871D01*
X176218750Y-101200897D01*
X175465859Y-103014061D01*
X175464146Y-104977325D01*
X134328145Y-104977325D01*
X134453880Y-104789151D01*
X134563113Y-104240000D01*
X134453880Y-103690849D01*
X134142811Y-103225302D01*
X133760725Y-102970000D01*
X134142811Y-102714698D01*
X134453880Y-102249151D01*
X134501898Y-102007745D01*
X149671861Y-102007745D01*
X149745995Y-102253864D01*
X150283223Y-102446965D01*
X150853454Y-102419778D01*
X151254005Y-102253864D01*
X151328139Y-102007745D01*
X150500000Y-101179605D01*
X149671861Y-102007745D01*
X134501898Y-102007745D01*
X134563113Y-101700000D01*
X134453880Y-101150849D01*
X134208240Y-100783223D01*
X149053035Y-100783223D01*
X149080222Y-101353454D01*
X149246136Y-101754005D01*
X149492255Y-101828139D01*
X150320395Y-101000000D01*
X150679605Y-101000000D01*
X151507745Y-101828139D01*
X151753864Y-101754005D01*
X151946965Y-101216777D01*
X151919778Y-100646546D01*
X151753864Y-100245995D01*
X151507745Y-100171861D01*
X150679605Y-101000000D01*
X150320395Y-101000000D01*
X149492255Y-100171861D01*
X149246136Y-100245995D01*
X149053035Y-100783223D01*
X134208240Y-100783223D01*
X134142811Y-100685302D01*
X133760725Y-100430000D01*
X134142811Y-100174698D01*
X134264715Y-99992255D01*
X149671861Y-99992255D01*
X150500000Y-100820395D01*
X151328139Y-99992255D01*
X151254005Y-99746136D01*
X150716777Y-99553035D01*
X150146546Y-99580222D01*
X149745995Y-99746136D01*
X149671861Y-99992255D01*
X134264715Y-99992255D01*
X134453880Y-99709151D01*
X134563113Y-99160000D01*
X134453880Y-98610849D01*
X134142811Y-98145302D01*
X133677264Y-97834233D01*
X133128113Y-97725000D01*
X133071887Y-97725000D01*
X132522736Y-97834233D01*
X132057189Y-98145302D01*
X131746120Y-98610849D01*
X131735000Y-98666753D01*
X131735000Y-95200000D01*
X138152560Y-95200000D01*
X138152560Y-96800000D01*
X138196838Y-97035317D01*
X138335910Y-97251441D01*
X138548110Y-97396431D01*
X138800000Y-97447440D01*
X140400000Y-97447440D01*
X140635317Y-97403162D01*
X140851441Y-97264090D01*
X140996431Y-97051890D01*
X141047440Y-96800000D01*
X141047440Y-96000000D01*
X145756887Y-96000000D01*
X145866120Y-96549151D01*
X146177189Y-97014698D01*
X146642736Y-97325767D01*
X147191887Y-97435000D01*
X147248113Y-97435000D01*
X147797264Y-97325767D01*
X148262811Y-97014698D01*
X148573880Y-96549151D01*
X148626584Y-96284187D01*
X149064752Y-96284187D01*
X149282757Y-96811800D01*
X149686077Y-97215824D01*
X150213309Y-97434750D01*
X150784187Y-97435248D01*
X151311800Y-97217243D01*
X151715824Y-96813923D01*
X151934750Y-96286691D01*
X151935248Y-95715813D01*
X151717243Y-95188200D01*
X151313923Y-94784176D01*
X150786691Y-94565250D01*
X150215813Y-94564752D01*
X149688200Y-94782757D01*
X149284176Y-95186077D01*
X149065250Y-95713309D01*
X149064752Y-96284187D01*
X148626584Y-96284187D01*
X148683113Y-96000000D01*
X148573880Y-95450849D01*
X148262811Y-94985302D01*
X147797264Y-94674233D01*
X147248113Y-94565000D01*
X147191887Y-94565000D01*
X146642736Y-94674233D01*
X146177189Y-94985302D01*
X145866120Y-95450849D01*
X145756887Y-96000000D01*
X141047440Y-96000000D01*
X141047440Y-95200000D01*
X141003162Y-94964683D01*
X140864090Y-94748559D01*
X140651890Y-94603569D01*
X140400000Y-94552560D01*
X138800000Y-94552560D01*
X138564683Y-94596838D01*
X138348559Y-94735910D01*
X138203569Y-94948110D01*
X138152560Y-95200000D01*
X131735000Y-95200000D01*
X131735000Y-84422944D01*
X160940025Y-84422944D01*
X160972074Y-84554477D01*
X161288764Y-85117630D01*
X161796857Y-85516724D01*
X162419000Y-85691000D01*
X162673000Y-85691000D01*
X162673000Y-84167000D01*
X162927000Y-84167000D01*
X162927000Y-85691000D01*
X163181000Y-85691000D01*
X163803143Y-85516724D01*
X164311236Y-85117630D01*
X164627926Y-84554477D01*
X164659975Y-84422944D01*
X164540836Y-84167000D01*
X162927000Y-84167000D01*
X162673000Y-84167000D01*
X161059164Y-84167000D01*
X160940025Y-84422944D01*
X131735000Y-84422944D01*
X131735000Y-83550027D01*
X131735910Y-83551441D01*
X131948110Y-83696431D01*
X132200000Y-83747440D01*
X133800000Y-83747440D01*
X134035317Y-83703162D01*
X134251441Y-83564090D01*
X134396431Y-83351890D01*
X134447440Y-83100000D01*
X134447440Y-81500000D01*
X134403162Y-81264683D01*
X134264090Y-81048559D01*
X134051890Y-80903569D01*
X133892384Y-80871268D01*
X134231041Y-80497423D01*
X134391904Y-80109039D01*
X134269915Y-79887000D01*
X133127000Y-79887000D01*
X133127000Y-79907000D01*
X132873000Y-79907000D01*
X132873000Y-79887000D01*
X132853000Y-79887000D01*
X132853000Y-79633000D01*
X132873000Y-79633000D01*
X132873000Y-79613000D01*
X133127000Y-79613000D01*
X133127000Y-79633000D01*
X134269915Y-79633000D01*
X134350814Y-79485750D01*
X140465000Y-79485750D01*
X140465000Y-80326309D01*
X140561673Y-80559698D01*
X140740301Y-80738327D01*
X140973690Y-80835000D01*
X141614250Y-80835000D01*
X141773000Y-80676250D01*
X141773000Y-79327000D01*
X142027000Y-79327000D01*
X142027000Y-80676250D01*
X142185750Y-80835000D01*
X142826310Y-80835000D01*
X143059699Y-80738327D01*
X143238327Y-80559698D01*
X143335000Y-80326309D01*
X143335000Y-79485750D01*
X143176250Y-79327000D01*
X142027000Y-79327000D01*
X141773000Y-79327000D01*
X140623750Y-79327000D01*
X140465000Y-79485750D01*
X134350814Y-79485750D01*
X134391904Y-79410961D01*
X134231041Y-79022577D01*
X133855134Y-78607611D01*
X133638297Y-78504986D01*
X134012427Y-78255000D01*
X135979995Y-78255000D01*
X135980000Y-78255001D01*
X136376077Y-78176215D01*
X136529515Y-78073691D01*
X140465000Y-78073691D01*
X140465000Y-78914250D01*
X140623750Y-79073000D01*
X141773000Y-79073000D01*
X141773000Y-77723750D01*
X142027000Y-77723750D01*
X142027000Y-79073000D01*
X143176250Y-79073000D01*
X143289250Y-78960000D01*
X160857679Y-78960000D01*
X160983354Y-79591810D01*
X161341246Y-80127433D01*
X161494748Y-80230000D01*
X161341246Y-80332567D01*
X160983354Y-80868190D01*
X160857679Y-81500000D01*
X160983354Y-82131810D01*
X161341246Y-82667433D01*
X161515781Y-82784054D01*
X161288764Y-82962370D01*
X160972074Y-83525523D01*
X160940025Y-83657056D01*
X161059164Y-83913000D01*
X162673000Y-83913000D01*
X162673000Y-83893000D01*
X162927000Y-83893000D01*
X162927000Y-83913000D01*
X164540836Y-83913000D01*
X164659975Y-83657056D01*
X164627926Y-83525523D01*
X164311236Y-82962370D01*
X164084219Y-82784054D01*
X164258754Y-82667433D01*
X164616646Y-82131810D01*
X164742321Y-81500000D01*
X164616646Y-80868190D01*
X164258754Y-80332567D01*
X164105252Y-80230000D01*
X164258754Y-80127433D01*
X164616646Y-79591810D01*
X164742321Y-78960000D01*
X164616646Y-78328190D01*
X164258754Y-77792567D01*
X163723131Y-77434675D01*
X163091321Y-77309000D01*
X162508679Y-77309000D01*
X161876869Y-77434675D01*
X161341246Y-77792567D01*
X160983354Y-78328190D01*
X160857679Y-78960000D01*
X143289250Y-78960000D01*
X143335000Y-78914250D01*
X143335000Y-78073691D01*
X143238327Y-77840302D01*
X143059699Y-77661673D01*
X142826310Y-77565000D01*
X142185750Y-77565000D01*
X142027000Y-77723750D01*
X141773000Y-77723750D01*
X141614250Y-77565000D01*
X140973690Y-77565000D01*
X140740301Y-77661673D01*
X140561673Y-77840302D01*
X140465000Y-78073691D01*
X136529515Y-78073691D01*
X136711856Y-77951856D01*
X138428711Y-76235000D01*
X140459146Y-76235000D01*
X140496838Y-76435317D01*
X140635910Y-76651441D01*
X140848110Y-76796431D01*
X141100000Y-76847440D01*
X142700000Y-76847440D01*
X142935317Y-76803162D01*
X143151441Y-76664090D01*
X143296431Y-76451890D01*
X143347440Y-76200000D01*
X143347440Y-75707745D01*
X156771861Y-75707745D01*
X156845995Y-75953864D01*
X157383223Y-76146965D01*
X157953454Y-76119778D01*
X158354005Y-75953864D01*
X158428139Y-75707745D01*
X157600000Y-74879605D01*
X156771861Y-75707745D01*
X143347440Y-75707745D01*
X143347440Y-74483223D01*
X156153035Y-74483223D01*
X156180222Y-75053454D01*
X156346136Y-75454005D01*
X156592255Y-75528139D01*
X157420395Y-74700000D01*
X157779605Y-74700000D01*
X158607745Y-75528139D01*
X158853864Y-75454005D01*
X159046965Y-74916777D01*
X159019778Y-74346546D01*
X158853864Y-73945995D01*
X158607745Y-73871861D01*
X157779605Y-74700000D01*
X157420395Y-74700000D01*
X156592255Y-73871861D01*
X156346136Y-73945995D01*
X156153035Y-74483223D01*
X143347440Y-74483223D01*
X143347440Y-74200000D01*
X143303162Y-73964683D01*
X143164090Y-73748559D01*
X143081687Y-73692255D01*
X156771861Y-73692255D01*
X157600000Y-74520395D01*
X158428139Y-73692255D01*
X158354005Y-73446136D01*
X157816777Y-73253035D01*
X157246546Y-73280222D01*
X156845995Y-73446136D01*
X156771861Y-73692255D01*
X143081687Y-73692255D01*
X142951890Y-73603569D01*
X142700000Y-73552560D01*
X141100000Y-73552560D01*
X140864683Y-73596838D01*
X140648559Y-73735910D01*
X140503569Y-73948110D01*
X140459648Y-74165000D01*
X138000000Y-74165000D01*
X137603922Y-74243785D01*
X137469429Y-74333651D01*
X137268144Y-74468144D01*
X137268142Y-74468147D01*
X135551288Y-76185000D01*
X134012427Y-76185000D01*
X133660725Y-75950000D01*
X134042811Y-75694698D01*
X134353880Y-75229151D01*
X134463113Y-74680000D01*
X134353880Y-74130849D01*
X134042811Y-73665302D01*
X133660725Y-73410000D01*
X134042811Y-73154698D01*
X134353880Y-72689151D01*
X134463113Y-72140000D01*
X134353880Y-71590849D01*
X134042811Y-71125302D01*
X133660725Y-70870000D01*
X134042811Y-70614698D01*
X134353880Y-70149151D01*
X134463113Y-69600000D01*
X134353880Y-69050849D01*
X134042811Y-68585302D01*
X133660725Y-68330000D01*
X134042811Y-68074698D01*
X134353880Y-67609151D01*
X134463113Y-67060000D01*
X134353880Y-66510849D01*
X134042811Y-66045302D01*
X133675692Y-65800000D01*
X148652560Y-65800000D01*
X148652560Y-67400000D01*
X148696838Y-67635317D01*
X148835910Y-67851441D01*
X149048110Y-67996431D01*
X149300000Y-68047440D01*
X150900000Y-68047440D01*
X151135317Y-68003162D01*
X151351441Y-67864090D01*
X151496431Y-67651890D01*
X151547440Y-67400000D01*
X151547440Y-65800000D01*
X151503162Y-65564683D01*
X151364090Y-65348559D01*
X151151890Y-65203569D01*
X150900000Y-65152560D01*
X149300000Y-65152560D01*
X149064683Y-65196838D01*
X148848559Y-65335910D01*
X148703569Y-65548110D01*
X148652560Y-65800000D01*
X133675692Y-65800000D01*
X133577264Y-65734233D01*
X133028113Y-65625000D01*
X132971887Y-65625000D01*
X132422736Y-65734233D01*
X131957189Y-66045302D01*
X131735000Y-66377831D01*
X131735000Y-53715000D01*
X134450714Y-53715000D01*
X134450714Y-64585000D01*
X151149286Y-64585000D01*
X151149286Y-53715000D01*
X134450714Y-53715000D01*
X131735000Y-53715000D01*
X131735000Y-53122944D01*
X161140025Y-53122944D01*
X161172074Y-53254477D01*
X161488764Y-53817630D01*
X161996857Y-54216724D01*
X162619000Y-54391000D01*
X162873000Y-54391000D01*
X162873000Y-52867000D01*
X163127000Y-52867000D01*
X163127000Y-54391000D01*
X163381000Y-54391000D01*
X164003143Y-54216724D01*
X164511236Y-53817630D01*
X164827926Y-53254477D01*
X164859975Y-53122944D01*
X164740836Y-52867000D01*
X163127000Y-52867000D01*
X162873000Y-52867000D01*
X161259164Y-52867000D01*
X161140025Y-53122944D01*
X131735000Y-53122944D01*
X131735000Y-52650027D01*
X131735910Y-52651441D01*
X131948110Y-52796431D01*
X132200000Y-52847440D01*
X133800000Y-52847440D01*
X134035317Y-52803162D01*
X134251441Y-52664090D01*
X134396431Y-52451890D01*
X134447440Y-52200000D01*
X134447440Y-50600000D01*
X134403162Y-50364683D01*
X134264090Y-50148559D01*
X134051890Y-50003569D01*
X133892384Y-49971268D01*
X134231041Y-49597423D01*
X134391904Y-49209039D01*
X134324169Y-49085750D01*
X134765000Y-49085750D01*
X134765000Y-49726310D01*
X134861673Y-49959699D01*
X135040302Y-50138327D01*
X135273691Y-50235000D01*
X136114250Y-50235000D01*
X136273000Y-50076250D01*
X136273000Y-48927000D01*
X136527000Y-48927000D01*
X136527000Y-50076250D01*
X136685750Y-50235000D01*
X137526309Y-50235000D01*
X137759698Y-50138327D01*
X137938327Y-49959699D01*
X138035000Y-49726310D01*
X138035000Y-49085750D01*
X137876250Y-48927000D01*
X136527000Y-48927000D01*
X136273000Y-48927000D01*
X134923750Y-48927000D01*
X134765000Y-49085750D01*
X134324169Y-49085750D01*
X134269915Y-48987000D01*
X133127000Y-48987000D01*
X133127000Y-49007000D01*
X132873000Y-49007000D01*
X132873000Y-48987000D01*
X132853000Y-48987000D01*
X132853000Y-48733000D01*
X132873000Y-48733000D01*
X132873000Y-48713000D01*
X133127000Y-48713000D01*
X133127000Y-48733000D01*
X134269915Y-48733000D01*
X134391904Y-48510961D01*
X134231041Y-48122577D01*
X134005581Y-47873690D01*
X134765000Y-47873690D01*
X134765000Y-48514250D01*
X134923750Y-48673000D01*
X136273000Y-48673000D01*
X136273000Y-47523750D01*
X136527000Y-47523750D01*
X136527000Y-48673000D01*
X137876250Y-48673000D01*
X138035000Y-48514250D01*
X138035000Y-47873690D01*
X137938327Y-47640301D01*
X137759698Y-47461673D01*
X137526309Y-47365000D01*
X136685750Y-47365000D01*
X136527000Y-47523750D01*
X136273000Y-47523750D01*
X136114250Y-47365000D01*
X135273691Y-47365000D01*
X135040302Y-47461673D01*
X134861673Y-47640301D01*
X134765000Y-47873690D01*
X134005581Y-47873690D01*
X133855134Y-47707611D01*
X133638297Y-47604986D01*
X134042811Y-47334698D01*
X134096064Y-47255000D01*
X140481288Y-47255000D01*
X140383728Y-47352560D01*
X139400000Y-47352560D01*
X139164683Y-47396838D01*
X138948559Y-47535910D01*
X138803569Y-47748110D01*
X138752560Y-48000000D01*
X138752560Y-49600000D01*
X138796838Y-49835317D01*
X138935910Y-50051441D01*
X139148110Y-50196431D01*
X139400000Y-50247440D01*
X141400000Y-50247440D01*
X141635317Y-50203162D01*
X141851441Y-50064090D01*
X141996431Y-49851890D01*
X142047440Y-49600000D01*
X142047440Y-49212266D01*
X142083827Y-49157809D01*
X142155000Y-48800000D01*
X142106672Y-48557040D01*
X143154326Y-47509386D01*
X143250849Y-47573880D01*
X143800000Y-47683113D01*
X143916196Y-47660000D01*
X161057679Y-47660000D01*
X161183354Y-48291810D01*
X161541246Y-48827433D01*
X161694748Y-48930000D01*
X161541246Y-49032567D01*
X161183354Y-49568190D01*
X161057679Y-50200000D01*
X161183354Y-50831810D01*
X161541246Y-51367433D01*
X161715781Y-51484054D01*
X161488764Y-51662370D01*
X161172074Y-52225523D01*
X161140025Y-52357056D01*
X161259164Y-52613000D01*
X162873000Y-52613000D01*
X162873000Y-52593000D01*
X163127000Y-52593000D01*
X163127000Y-52613000D01*
X164740836Y-52613000D01*
X164859975Y-52357056D01*
X164827926Y-52225523D01*
X164511236Y-51662370D01*
X164284219Y-51484054D01*
X164458754Y-51367433D01*
X164816646Y-50831810D01*
X164942321Y-50200000D01*
X164816646Y-49568190D01*
X164458754Y-49032567D01*
X164305252Y-48930000D01*
X164458754Y-48827433D01*
X164816646Y-48291810D01*
X164942321Y-47660000D01*
X164816646Y-47028190D01*
X164458754Y-46492567D01*
X163923131Y-46134675D01*
X163291321Y-46009000D01*
X162708679Y-46009000D01*
X162076869Y-46134675D01*
X161541246Y-46492567D01*
X161183354Y-47028190D01*
X161057679Y-47660000D01*
X143916196Y-47660000D01*
X144349151Y-47573880D01*
X144814698Y-47262811D01*
X145125767Y-46797264D01*
X145234851Y-46248861D01*
X147475966Y-44007745D01*
X156971861Y-44007745D01*
X157045995Y-44253864D01*
X157583223Y-44446965D01*
X158153454Y-44419778D01*
X158554005Y-44253864D01*
X158628139Y-44007745D01*
X157800000Y-43179605D01*
X156971861Y-44007745D01*
X147475966Y-44007745D01*
X148700488Y-42783223D01*
X156353035Y-42783223D01*
X156380222Y-43353454D01*
X156546136Y-43754005D01*
X156792255Y-43828139D01*
X157620395Y-43000000D01*
X157979605Y-43000000D01*
X158807745Y-43828139D01*
X159053864Y-43754005D01*
X159246965Y-43216777D01*
X159219778Y-42646546D01*
X159053864Y-42245995D01*
X158807745Y-42171861D01*
X157979605Y-43000000D01*
X157620395Y-43000000D01*
X156792255Y-42171861D01*
X156546136Y-42245995D01*
X156353035Y-42783223D01*
X148700488Y-42783223D01*
X149491456Y-41992255D01*
X156971861Y-41992255D01*
X157800000Y-42820395D01*
X158628139Y-41992255D01*
X158554005Y-41746136D01*
X158016777Y-41553035D01*
X157446546Y-41580222D01*
X157045995Y-41746136D01*
X156971861Y-41992255D01*
X149491456Y-41992255D01*
X152448711Y-39035000D01*
X156805568Y-39035000D01*
X156986077Y-39215824D01*
X157513309Y-39434750D01*
X158084187Y-39435248D01*
X158611800Y-39217243D01*
X159015824Y-38813923D01*
X159234750Y-38286691D01*
X159235248Y-37715813D01*
X159034280Y-37229432D01*
X161068634Y-35195077D01*
X161183354Y-35771810D01*
X161541246Y-36307433D01*
X162076869Y-36665325D01*
X162708679Y-36791000D01*
X163291321Y-36791000D01*
X163923131Y-36665325D01*
X164458754Y-36307433D01*
X164816646Y-35771810D01*
X164942321Y-35140000D01*
X164816646Y-34508190D01*
X164634106Y-34235000D01*
X165799995Y-34235000D01*
X165800000Y-34235001D01*
X166425688Y-34110543D01*
X166956120Y-33756120D01*
X168956117Y-31756122D01*
X168956120Y-31756120D01*
X169165000Y-31443508D01*
X169165000Y-60822761D01*
X167822760Y-62165000D01*
X164634106Y-62165000D01*
X164816646Y-61891810D01*
X164942321Y-61260000D01*
X164816646Y-60628190D01*
X164458754Y-60092567D01*
X163923131Y-59734675D01*
X163291321Y-59609000D01*
X162708679Y-59609000D01*
X162076869Y-59734675D01*
X161541246Y-60092567D01*
X161183354Y-60628190D01*
X161057679Y-61260000D01*
X161183354Y-61891810D01*
X161541246Y-62427433D01*
X161694748Y-62530000D01*
X161541246Y-62632567D01*
X161452757Y-62765000D01*
X160200000Y-62765000D01*
X159803922Y-62843785D01*
X159772172Y-62865000D01*
X159468144Y-63068144D01*
X159468142Y-63068147D01*
X157291682Y-65244606D01*
X157142736Y-65274233D01*
X156677189Y-65585302D01*
X156366120Y-66050849D01*
X156256887Y-66600000D01*
X156366120Y-67149151D01*
X156565000Y-67446796D01*
X156565000Y-68705568D01*
X156384176Y-68886077D01*
X156165250Y-69413309D01*
X156164752Y-69984187D01*
X156382757Y-70511800D01*
X156786077Y-70915824D01*
X157313309Y-71134750D01*
X157884187Y-71135248D01*
X158411800Y-70917243D01*
X158815824Y-70513923D01*
X159034750Y-69986691D01*
X159035248Y-69415813D01*
X158817243Y-68888200D01*
X158635000Y-68705639D01*
X158635000Y-67700099D01*
X158762811Y-67614698D01*
X159073880Y-67149151D01*
X159183113Y-66600000D01*
X159130121Y-66333591D01*
X160628711Y-64835000D01*
X161452757Y-64835000D01*
X161541246Y-64967433D01*
X161694748Y-65070000D01*
X161541246Y-65172567D01*
X161183354Y-65708190D01*
X161057679Y-66340000D01*
X161183354Y-66971810D01*
X161541246Y-67507433D01*
X162076869Y-67865325D01*
X162708679Y-67991000D01*
X163291321Y-67991000D01*
X163923131Y-67865325D01*
X164458754Y-67507433D01*
X164816646Y-66971810D01*
X164942321Y-66340000D01*
X164816646Y-65708190D01*
X164634106Y-65435000D01*
X168499995Y-65435000D01*
X168500000Y-65435001D01*
X169125688Y-65310543D01*
X169656120Y-64956120D01*
X171956117Y-62656122D01*
X171956120Y-62656120D01*
X172210993Y-62274675D01*
X172310543Y-62125688D01*
X172435000Y-61500000D01*
X172435000Y-30947239D01*
X172815000Y-31327239D01*
X172815000Y-89572760D01*
X168022760Y-94365000D01*
X164534106Y-94365000D01*
X164716646Y-94091810D01*
X164842321Y-93460000D01*
X164716646Y-92828190D01*
X164358754Y-92292567D01*
X163823131Y-91934675D01*
X163191321Y-91809000D01*
X162608679Y-91809000D01*
X161976869Y-91934675D01*
X161441246Y-92292567D01*
X161083354Y-92828190D01*
X160957679Y-93460000D01*
X161083354Y-94091810D01*
X161441246Y-94627433D01*
X161594748Y-94730000D01*
X161441246Y-94832567D01*
X161083354Y-95368190D01*
X160957679Y-96000000D01*
X161083354Y-96631810D01*
X161441246Y-97167433D01*
X161594748Y-97270000D01*
X161441246Y-97372567D01*
X161083354Y-97908190D01*
X160957679Y-98540000D01*
X161083354Y-99171810D01*
X161441246Y-99707433D01*
X161976869Y-100065325D01*
X162608679Y-100191000D01*
X163191321Y-100191000D01*
X163823131Y-100065325D01*
X164358754Y-99707433D01*
X164716646Y-99171810D01*
X164842321Y-98540000D01*
X164716646Y-97908190D01*
X164534106Y-97635000D01*
X168699995Y-97635000D01*
X168700000Y-97635001D01*
X168700005Y-97635000D01*
X168800000Y-97635000D01*
X169425687Y-97510543D01*
X169956120Y-97156120D01*
X170157485Y-96854755D01*
X175606120Y-91406120D01*
X175960543Y-90875688D01*
X176085001Y-90250000D01*
X176085000Y-90249995D01*
X176085000Y-75595871D01*
X176413871Y-76391801D01*
X177800897Y-77781250D01*
X179614061Y-78534141D01*
X181577325Y-78535854D01*
X183391801Y-77786129D01*
X184781250Y-76399103D01*
X185534141Y-74585939D01*
X185535854Y-72622675D01*
X184786129Y-70808199D01*
X183399103Y-69418750D01*
X181585939Y-68665859D01*
X179622675Y-68664146D01*
X177808199Y-69413871D01*
X176418750Y-70800897D01*
X176085000Y-71604657D01*
X176085000Y-56842619D01*
X180564613Y-56842619D01*
X180904155Y-57664372D01*
X181532321Y-58293636D01*
X182353481Y-58634611D01*
X183242619Y-58635387D01*
X184064372Y-58295845D01*
X184693636Y-57667679D01*
X185034611Y-56846519D01*
X185035387Y-55957381D01*
X184695845Y-55135628D01*
X184067679Y-54506364D01*
X183246519Y-54165389D01*
X182357381Y-54164613D01*
X181535628Y-54504155D01*
X180906364Y-55132321D01*
X180565389Y-55953481D01*
X180564613Y-56842619D01*
X176085000Y-56842619D01*
X176085000Y-42595871D01*
X176413871Y-43391801D01*
X177800897Y-44781250D01*
X179614061Y-45534141D01*
X181577325Y-45535854D01*
X183391801Y-44786129D01*
X184781250Y-43399103D01*
X185534141Y-41585939D01*
X185535854Y-39622675D01*
X184786129Y-37808199D01*
X183399103Y-36418750D01*
X181585939Y-35665859D01*
X179622675Y-35664146D01*
X177808199Y-36413871D01*
X176418750Y-37800897D01*
X176085000Y-38604657D01*
X176085000Y-30650005D01*
X176085001Y-30650000D01*
X175960543Y-30024313D01*
X175927133Y-29974312D01*
X175606120Y-29493880D01*
X175606117Y-29493878D01*
X172316500Y-26204260D01*
X172310543Y-26174313D01*
X171956120Y-25643880D01*
X171956117Y-25643878D01*
X169354859Y-23042619D01*
X180564613Y-23042619D01*
X180904155Y-23864372D01*
X181532321Y-24493636D01*
X182353481Y-24834611D01*
X183242619Y-24835387D01*
X184064372Y-24495845D01*
X184693636Y-23867679D01*
X185034611Y-23046519D01*
X185035387Y-22157381D01*
X184695845Y-21335628D01*
X184067679Y-20706364D01*
X183246519Y-20365389D01*
X182357381Y-20364613D01*
X181535628Y-20704155D01*
X180906364Y-21332321D01*
X180565389Y-22153481D01*
X180564613Y-23042619D01*
X169354859Y-23042619D01*
X169316500Y-23004260D01*
X169310543Y-22974313D01*
X168956120Y-22443880D01*
X168425687Y-22089457D01*
X167800000Y-21965000D01*
X167700002Y-21984891D01*
X167600000Y-21964999D01*
X167599995Y-21965000D01*
X148847490Y-21965000D01*
X148366605Y-21765319D01*
X147636597Y-21764682D01*
X146961914Y-22043455D01*
X146445270Y-22559199D01*
X146165319Y-23233395D01*
X146164682Y-23963403D01*
X146443455Y-24638086D01*
X146959199Y-25154730D01*
X147633395Y-25434681D01*
X148363403Y-25435318D01*
X148848210Y-25235000D01*
X166165000Y-25235000D01*
X166165000Y-29922761D01*
X165122760Y-30965000D01*
X164634106Y-30965000D01*
X164816646Y-30691810D01*
X164942321Y-30060000D01*
X164816646Y-29428190D01*
X164458754Y-28892567D01*
X163923131Y-28534675D01*
X163291321Y-28409000D01*
X162708679Y-28409000D01*
X162076869Y-28534675D01*
X161541246Y-28892567D01*
X161183354Y-29428190D01*
X161057679Y-30060000D01*
X161183354Y-30691810D01*
X161541246Y-31227433D01*
X161694748Y-31330000D01*
X161541246Y-31432567D01*
X161183354Y-31968190D01*
X161137481Y-32198808D01*
X157068144Y-36268144D01*
X156843785Y-36603923D01*
X156771961Y-36965000D01*
X152020000Y-36965000D01*
X151623922Y-37043785D01*
X151489429Y-37133651D01*
X151288144Y-37268144D01*
X151288142Y-37268147D01*
X143799252Y-44757036D01*
X143250849Y-44866120D01*
X142785302Y-45177189D01*
X142780083Y-45185000D01*
X133862767Y-45185000D01*
X133660725Y-45050000D01*
X134042811Y-44794698D01*
X134353880Y-44329151D01*
X134463113Y-43780000D01*
X134353880Y-43230849D01*
X134042811Y-42765302D01*
X133660725Y-42510000D01*
X134042811Y-42254698D01*
X134353880Y-41789151D01*
X134463113Y-41240000D01*
X134353880Y-40690849D01*
X134042811Y-40225302D01*
X133660725Y-39970000D01*
X134042811Y-39714698D01*
X134353880Y-39249151D01*
X134463113Y-38700000D01*
X134353880Y-38150849D01*
X134119450Y-37800000D01*
X142352560Y-37800000D01*
X142352560Y-39400000D01*
X142396838Y-39635317D01*
X142535910Y-39851441D01*
X142748110Y-39996431D01*
X143000000Y-40047440D01*
X144600000Y-40047440D01*
X144835317Y-40003162D01*
X145051441Y-39864090D01*
X145196431Y-39651890D01*
X145247440Y-39400000D01*
X145247440Y-37800000D01*
X145203162Y-37564683D01*
X145064090Y-37348559D01*
X144851890Y-37203569D01*
X144600000Y-37152560D01*
X143000000Y-37152560D01*
X142764683Y-37196838D01*
X142548559Y-37335910D01*
X142403569Y-37548110D01*
X142352560Y-37800000D01*
X134119450Y-37800000D01*
X134042811Y-37685302D01*
X133660725Y-37430000D01*
X134042811Y-37174698D01*
X134353880Y-36709151D01*
X134463113Y-36160000D01*
X134353880Y-35610849D01*
X134042811Y-35145302D01*
X133577264Y-34834233D01*
X133028113Y-34725000D01*
X132971887Y-34725000D01*
X132422736Y-34834233D01*
X131957189Y-35145302D01*
X131646120Y-35610849D01*
X131536887Y-36160000D01*
X131646120Y-36709151D01*
X131957189Y-37174698D01*
X132339275Y-37430000D01*
X131957189Y-37685302D01*
X131646120Y-38150849D01*
X131536887Y-38700000D01*
X131646120Y-39249151D01*
X131957189Y-39714698D01*
X132339275Y-39970000D01*
X131957189Y-40225302D01*
X131646120Y-40690849D01*
X131536887Y-41240000D01*
X131646120Y-41789151D01*
X131957189Y-42254698D01*
X132339275Y-42510000D01*
X131957189Y-42765302D01*
X131646120Y-43230849D01*
X131536887Y-43780000D01*
X131646120Y-44329151D01*
X131957189Y-44794698D01*
X132339275Y-45050000D01*
X131957189Y-45305302D01*
X131646120Y-45770849D01*
X131537036Y-46319253D01*
X130527000Y-47329288D01*
X130527000Y-16310000D01*
X189490000Y-16310000D01*
X189490000Y-123090000D01*
M02*
