M48
METRIC,TZ
T1C0.500
T2C0.600
T3C0.800
T4C1.000
T5C1.143
T6C1.200
T7C1.350
T8C2.000
T9C2.400
T10C2.499
T11C4.300
%
G90
G05
T1
X90600Y-105000
X104200Y-73100
X105400Y-84600
X117600Y-70000
X127000Y-91550
X144650Y-91850
T2
X94300Y-67200
X96300Y-67200
X98000Y-94800
X99270Y-94800
X100540Y-94800
T3
X90800Y-100980
X90800Y-108600
X93340Y-100980
X93340Y-108600
X95880Y-100980
X95880Y-108600
X98420Y-100980
X98420Y-108600
X100960Y-100980
X100960Y-108600
X103500Y-100980
X103500Y-108600
X104880Y-45700
X104880Y-53320
X106040Y-100980
X106040Y-108600
X107420Y-45700
X107420Y-53320
X109960Y-45700
X109960Y-53320
X112500Y-45700
X112500Y-53320
X125380Y-36160
X125380Y-38700
X125380Y-41240
X125380Y-43780
X125380Y-46320
X125380Y-48860
X125380Y-51400
X125380Y-67060
X125380Y-69600
X125380Y-72140
X125380Y-74680
X125380Y-77220
X125380Y-79760
X125380Y-82300
X125480Y-99160
X125480Y-101700
X125480Y-104240
X125480Y-106780
X125480Y-109320
X125480Y-111860
X125480Y-114400
X133000Y-36160
X133000Y-38700
X133000Y-41240
X133000Y-43780
X133000Y-46320
X133000Y-48860
X133000Y-51400
X133000Y-67060
X133000Y-69600
X133000Y-72140
X133000Y-74680
X133000Y-77220
X133000Y-79760
X133000Y-82300
X133100Y-99160
X133100Y-101700
X133100Y-104240
X133100Y-106780
X133100Y-109320
X133100Y-111860
X133100Y-114400
X139600Y-96000
X143800Y-38600
X143800Y-46220
X147220Y-96000
X150100Y-66600
X150500Y-96000
X150500Y-101000
X157600Y-69700
X157600Y-74700
X157720Y-66600
X157800Y-38000
X157800Y-43000
T4
X87800Y-114920
X87800Y-117460
X87800Y-120000
X88400Y-62100
X88400Y-64640
X88400Y-67180
X88400Y-76080
X88400Y-78620
X88400Y-81160
X88400Y-83700
X88400Y-88900
X88400Y-91440
X120400Y-41420
X120400Y-43960
X120400Y-46500
X120400Y-72120
X120400Y-74660
X120400Y-77200
X120500Y-104220
X120500Y-106760
X120500Y-109300
T5
X162800Y-78960
X162800Y-81500
X162800Y-84040
X162900Y-93460
X162900Y-96000
X162900Y-98540
X162900Y-110660
X162900Y-113200
X162900Y-115740
X163000Y-30060
X163000Y-32600
X163000Y-35140
X163000Y-47660
X163000Y-50200
X163000Y-52740
X163000Y-61260
X163000Y-63800
X163000Y-66340
T6
X96320Y-88200
X97600Y-34000
X98860Y-88200
X101400Y-88200
X105100Y-34000
X117520Y-23600
X148000Y-23600
T7
X88400Y-34500
X88400Y-39500
X88400Y-49500
X88400Y-54500
T8
X99500Y-23500
X108700Y-23500
T9
X104100Y-22300
T10
X88400Y-23600
X146300Y-119000
T11
X180400Y-104000
X180600Y-40600
X180600Y-73600
T0
M30
